<mxfile host="65bd71144e">
    <diagram id="4rqhiW_U054dmcqLci7i" name="Page-1">
        <mxGraphModel dx="908" dy="447" grid="1" gridSize="10" guides="1" tooltips="1" connect="1" arrows="1" fold="1" page="1" pageScale="1" pageWidth="850" pageHeight="1100" math="0" shadow="0">
            <root>
                <mxCell id="0"/>
                <mxCell id="1" parent="0"/>
                <mxCell id="3" value="" style="shape=image;verticalLabelPosition=bottom;labelBackgroundColor=default;verticalAlign=top;aspect=fixed;imageAspect=0;image=data:image/png,iVBORw0KGgoAAAANSUhEUgAAAggAAADqCAYAAADH773DAAAAAXNSR0IArs4c6QAAIABJREFUeF7svQecHVd5PvzM7Xd7X61Wq152Ja26ZUmWu3HFxoBtXMBgCBBKEkoKJN8/JKSHJCSAwUAwptrBxhU3uVuyZFmS1ctK27VN2q4tt898v+fMPXfPjme1V6suz/gn37tzZ86cec857/u89WgADJymY9q0acjPzz9NrTvNOhRwKOBQwKGAQwGHAqeLApoDEE4XaZ12HQo4FHAo4FDAocD5SwEHIJy/Y+f03KGAQwGHAg4FHAqcNgo4AOG0kdZp2KGAQwGHAg4FzlUKGIYBTdPgcrmg67roJv/mv0QiIT7f74cDEN7vM8B5f4cCDgUcCrwPKSCBgQQKJIHb7UYsFhOfPP9+P84pgCARGz+J6DhA/ORg8Rz/5j/+zcGNx+PiO9He6Txkv6666ipcdNFF6OzsxOOPP47+/n5bpBmNRuH1elNd4juwv+w7P+W78IKFCxfi3/7t31BQUDDqFdjGf/7nf+Lpp58+na/mtO1QwKGAQ4H3FQXIfyk3/vEf/xEvvvgiNmzYIGRJIBDAP//zP+P+++/HoUOHUjybfHvSpEn44Ac/iMLCQrz66qt45513RlkcpNWB/J0H7/F4PEI+XHLJJXjrrbdw8cUXo6OjA/X19UI+SADCa9if7OxsDAwMvAeYSACjyg15b05ODubPnz9Kpkg5I0GOlI88f/ToUTQ0NKRtHTlnAAIJO2/ePEGo3bt3CyJLhFdeXo6lS5fi+eefF8RbtmwZ5syZIwaAg3siLzyRlVBaWorPfe5z2Lx5Mw4fPoyMjAysWbMG27Ztw8aNG1NNcgBnz56Nj3/842ICPfvss2IgOPHuvPNOAQJ+8pOfYHBwMDUJnnvuOTH53nzzTTGZJJC48sorxWS57LLLJtJl5x6HAg4FHAo4FLChABW2W2+9VQjWYDAo+DNlCWVLW1ubyLz77ne/i+7ubsGPr7jiCtx+++1444030Nvbi1WrVonrv/Od72B4eBg33HADmpqaUnJLfeTKlSuFovcP//APKC4uFs945JFHUi4NKfwJPJj1t3PnzpTCy+vvu+8+0ZePfvSj2LRpk3iOPHjv1772Nbz77rvC6kFZw36VlZUJ5ZWAg+/KPkq5snjxYqF07tmzJ625cc4AhD/+4z9GZWUl6urq8P3vfz8FEAgGvvrVr6KkpAQf+MAHxIv+2Z/9mQALPNrb2wUxeJA4UtsnIrSaiCRyZBtSGPM+u2sl9XjPn//5n+O3v/2tACa///3vBfrjpPqP//gP/N3f/Z2YSBI1Xn311eK3GTNmiOv+93//F9/4xjfw8ssvY8qUKXjllVfEJJT95KD7/X5ce+21WLt2LWbOnCkG9d577xXXEBg5h0MBhwIOBRwKnDoKUAb89Kc/FfyYApuK2I4dO/CDH/xAWBb27duX0vJ53de//nUhZ6QW/y//8i8CMFD4kueHQiE89NBDQh5JWUD588lPfhJ33XWXeMZrr72Gz3/+8/jbv/1bweP5b/LkycIyQWWSMo6Cm/JIyof//u//xje/+U185StfEX2j0siDsuXSSy/F9OnT8eCDD6biJr785S+LNvkuN998s+gXrd20SIfDYWRlZYlPKtbpHOcMQPD5fALx3Hbbbfjxj38srAlEVByEzMxM/PKXv8RNN90k3okE5kAcOXJEoCGppX/rW99CbW2tEMQ06VAoy8HiNRTwHAzeSwHOaysqKoSZiYLaLiiFoONTn/oUHnvsMYHkPv3pT6fcG0SOnGi0Asjn0A3BQcjNzRUTis/csmULioqKBGB56aWXhJlJHnwuAQUtDpxERIpEndJF4QCEdKaxc41DAYcCDgXSowD5MF27f//3f4977rlH3PT//t//E4oc5Q95NmUMD36nRfgv//IvU4okeT5lDM/TxE/Flpo9+ffbb78t7pMuh+uuuw4U2lR66Z6mjONz2AZly4oVK4QCyvYpM3bt2iWUV/aRbdPlwd8/8YlP4IUXXkBLS4tom/KEVgnKDQIEHrRs8xytHJFIRFgVKFsoJ6l48xyfQdCwfv36tIh1zgAE9pYI6iMf+Qh++MMfCgLyIMqiyec3v/mNAAj8m9o2X5iCmyZ+CniaioiwPvvZz4pBIFgg8iJR6LbgfTQN8Rm8noT8q7/6K2GVoNZOUGIXlEJBTW2e6JAoksKeFgMOFM01eXl5eOKJJ0YBBD6ffWR7Dz/8sOgTfT9Eh2MBBP7+13/916BrgZOUVgUeDkBIax47FzkUcCjgUCBtClBYU+h+6UtfEgroL37xC2EdpguZSiBdypQZdC9QEaQskUogPym8KdR50N1MtzitzHRDy4Oyg4ovrQwU1BTY1OT5nZo/gcKjjz6Kz3zmM+8BCJR/119/PRobG4V1g32jhZmKKuUZ3Q+0dPB5EiDQtXDjjTeir68PU6dOFW54yida2/leBAbnNUAgKpIWBA6OTDnhYHAA6TfiOSK2mpoaUFunz/+BBx4Q6Ol//ud/hDDmgH/7298WA8ABkf6X1atXC38/AQIRIn+/5pprRHsEF3YH7/3TP/1T8TuFNhEhB4pojhODlg0GnUjUyAnFQeBg8RoGqHAQ2XciOQkQJBghwOGEoSmKPjH2ke9OoCDjLdKe9c6FDgUcCjgUcChwXAqQr9Jy/POf/1yABPJl8muCBgpVmvGlwkjhTOsCTfz79+8X2j2F7r/+678KTZ0HFU/+RlkggxelckvZxDgBuhnobiavp/BmPBotGD/60Y8E76eVgO0SaNDFwIN9+/Wvf40/+qM/EvKP1g7KLlrAKe8oKwkW+B48KKvYDuXo9u3bBYiQQZWUmwQqfAY/zzsXA1+QL0O/yc9+9jMhtGnGYcQoBS4HjAQi8UgEauMU1NTQOTgEBYw+XbdunXBNMAqVIIJCfevWrYKAjCLlwNDvROsB4wfoP6K7gaYh/kbXhHqQsESPv/rVr8TkYIAhUSEnDtsmapSuCf5eXV2Nv/mbvxGg4Hvf+574jX3jsziY/OTEkhYS+qUIgPjORJgSzDAmg+9Kd4NzOBRwKOBQwKHAyVNAKmbky7QM09VAIU1eS4swrQWUDeTzPOjnJx+ne5mCmPfR/U13AuMG2N7y5cuFvOE51YLAa++++25hYWa8Gl0NUhn993//dxFLR2s5+yFdDAQIMj7ui1/8YgqE8DmUa5R3tCrIbL4vfOEL+N3vfpfKpqP1mhZ3tkEXBhVkmU0h3ewHDhxIuULGo+g55WKgAKWwpAClUOW/rq4uQQyCBZpJqF0TBfFvDiJ9P1IIcxDps6Fph0Sk24Ftsj1eQ4HOf0SIBCNMVyQS4zkSlIKfz1MP3s8BJMokUKEFggiM0aZ0N6gplryWE02mMsriGxLdyTRNtTDHLbfcIgAPB1Y9CBaIGgl6nMOhgEMBhwIOBU6eAmo6Ir/TYkurL4Voc3OzEPqUC1LpozyiIKeLm25t8nSeI8+mFk7ZUlVVlYovo6uYh3wOrcIEDwQaVEylEkzFl+fYBi0X/I3yis+WcoOCnjJJWtIpW9i+7BvlyIIFC0RQIs9Jq7sEQRJESKpJ0MBn0/WeznFOAYR0OjzWNTTdcCBZU8A5HAo4FHAo4FDAoYBDgZOjwAUBECR6oiWAJhXncCjgUMChgEMBhwIOBU6OAhcEQJCVo+yyEE6OPM7dDgUcCjgUcCjgUOD9SYELAiC8P4fOeWuHAg4FHAo4FHAocPoo4ACE00dbp2WHAg4FHAo4FHAocN5S4LQCBEbh33HHHectcZyOOxRwKOBQwKGAQ4H3KwVOK0BgjQAWiHAOhwIOBRwKOBRwKOBQ4PyigAMQzq/xcnrrUMChgEMBhwIOBc4IBRyAcEbI7DzEoYBDAYcCDgUcCpxfFHAAwvk1Xk5vHQo4FHAo4FDAocAZoYADEM4ImZ2HOBRwKOBQwKGAQ4HziwIOQDi/xsvprUMBhwIOBRwKOBQ4IxRwAMIZIbPzEIcCDgUcCjgUcChwflHAAQjn13g5vXUo4FDAoYBDAYcCZ4QCDkA4I2R2HuJQwKGAQwGHAg4Fzi8KOADh/Bovp7cOBRwKOBRwKOBQ4IxQwAEIZ4TMzkMcCjgUcCjgUMChwPlFAQcgnF/j5fTWoYBDAYcCDgUcCpwRCjgA4YyQ2XmIQwGHAg4FHAo4FDi/KOAAhPNrvJzeOhRwKOBQwKGAQ4EzQgEHIJwRMjsPcSjgUMChgEMBhwLnFwUcgHB+jZfTW4cCDgUcCjgUcChwRijgAIQzQmbnIQ4FHAo4FHAo4FDg/KKAAxDOr/FyeutQwKGAQwGHAg4FzggFHIBwRsjsPMShgEMBhwIOBRwKnF8UcADC+TVeTm8dCjgUcCjgUMChwBmhgAMQzgiZnYc4FHAo4FDAoYBDgfOLAg5AOL/Gy+mtQwGHAg4FHAo4FDgjFHAAwhkhs/OQs0kBwzCgaZzq79/j7NLASBJeHQOeu9DHRL63nHcX+vue2+vr7K6Bc5s2Y/XuggcInBQ8xhMQ6UwetS15vfWTz7K2Zdd2us+z9tuubev7jfW8FJvStPf00a7fdpPGrm1d1wV91b6e6PuNNU7p0G68a+zGaKz3PdF+SxqdivskDdIdz/HorfZJpYHa/qno93g00JMXcCW6UrAgoUwv/sKrfKefi6aDS+zwzIR6Jt8cMOASb8j3RxqANZ01ZbdmxlsLY73GqZoH6bRzIrxmPN6dDg3UdXW89tLp+/F4q1yPJ9Kn8dbwhKbdKbzpfQEQ4vE4PB5PSoBx8fFwucRyFUcsFht1DQc5kUiIc/Lg3zzcbrcQsPI+r9c7qm22r94XiUTEPeo56/PYluynfJ71b/V58ho+i31h++p9/FtOPl7DtthPuUCi0ah4/+P1ie3y3uO1LfttfZ6VBny+eg3bVvsk3433+f3+UeMi+y0Zi3Vc2A7fxTqe8j75HpJOki52fWLbaj95Dc+pfeLffJbKEKx9sptjds+z0pfzgm1Lmo81D3ldIBAYNTfVPlnniqSBpJHse7rznter9LXOTb7/WH0yCB4JAeIJROMxaB4PPLoH0BLQ9TgMik8X569p6VH7JNdZIrmGzQkMJBLmGnYrazihc1zMdcB2SNvh4WFkZmamzokxUMcOANeCz+dL2TP05LwXayO5zsUcS64pyTTlmJtCw+wTv3u4FnlC18U5eZ/b4+YrYjgUSvWJHbObK+yTylfGmgfjjYsdz7COHdseGhoSfVJ5hpWvpDtXJI8cix/ZrX0rIOI1g4ODyMrKOi7f5hiMRwNeo74Lr5frXPZxrD5ZacA+ZWRkpNaCuq5UvmLlR3brxUonO1CYWuBn6csFDxBIV8kAVKHK7+MBBDsBRsY9HqPkQKvCiQuL96lMn+fIlNSD51RhaO33WO9incR2zMX6PIIWvof6PCsD4CJS30U+n4xzPBoIRqmAq3QYHunN56l0sdJgLGBhHRfr8+yAlBwX+S7pgha7d7HOlXSYPq+xAikVhEpAZG2b17APwWAwNX2s4IM/cIytwMbKlHiNEI5JF4wdDfgsdf7aCZ3j9knXcbSzB3sO1WEglgB8AbiS4tiE2W4YugaPK2F6HSiUrS4hg7J1xGR/PIvgKI1Racuq4UkgweepzoBU28p5q6YnCW9n4ZO/JXRNvIsLCQSMKCpnVmDy5DIMDYeQk5OTGjvrmPMHOyFunQf8m89XAbzderGufSufUYHU8QAC5wr5hbpe7BQI9l+ufQls7BQWdZ3bgW4K4+zs7BSd7ECS3byX7ye1fQkQVH6ULn2tgr6/v1/06Xg8I931YuWRdu9ylnBB6rEXLEBQtUbrhFGZNxcEr7UTxtZJa0WrvFfexzbkPyv44MLi5FQXslUYqwJMTmw5YTgZ5TkpnFJMKImOuXAlY5T3qeiYfeeClChVtSCMRQPZJ6mZWhe72k+rpcUO1Y9lQVDfjX1mP+U5SSdJAzsBZmdBUBmA1BgkkLK2rTJ56zyQFgQpROXz5fuqmrjst51WIYWqasmS9FTHToIW2S4/VcYh/1a1dXnOakGwY4KSoas0Vxm1HRO2CjBVy1dBN+c5tSt1HrJPh490YuuBegxpmUhoOTAMPzRPWAADGC4YSMBAbHxeeCKm/+S1mmvE758CDqPQgPLYsUIlBJIY5zq197IdYd2g9cSANxGCJzaAZTMno7ykYJS2LvmMnOMS3Klzzk7rHUt7HsuapwpMCSwkz6IFgdq6yjP4m1URUNu2AzLpgJ2xAKZ1/h47diwFEOR6sGr+Y1liVcVHBQic/3yOuqakPLACKXmez5bPt+uTBG6St6ZjHR4L7KjAyqr0jL9ATv0VFyxAIKnk5LczSVuRt5WZjjX5rYLPDo1btUIromS/5H2qVmPtp7VtCUjGmvxyetiZAkdpH5qGSDgMl9sFr8d0O9i9L9+DfVKfZyeMVaFqMjJaAkYsCFKgqGhc0kAVTnbmfAmIVOZpHSurWV4wIJqkpUk4aVKU46IK9eO5JtgO35/PU7Vsq8C2unDkffwcpd1RA7No63ZuLMmQRD+FKyYBj3e0q8tqzrfTPuzMmlJrkTSQWqE6D8fTVNMFCEJYaBpe27wbHWFgyMjHwX2dGOyMAZofMExQq3mGMXV6Doqm0jQ/NpMbAXIE48e7Tkp0++tUQChBg2mwMB8++px5PgUulHgm9ZzaG9m+x4ghrnmha24gEYVXj6BYP4YVC2ZjctmkkWgMGzN5uhY3Kx+z8oyxALUUPpJH0hVDcCf7ruuc96ZpPjVX6PZIWg/phpH3qtq0vD4FLJLz16vMX/KGWDwGv7CgUvjSYpKAbuiCHwlB69IwMDBguhj4n8scgwTXAl01wiEFxGjdovKVdDWZ52Lw+ZPWWd5DS12Cbt+kG5b8gK4mjwc+6R5mP4/jUpbjyz7RFSPfT+WRpJPka1bhno6csLoY1Hl66kV/ei1e8ABBolVVEJnI0ABcbjHJ3AbdEGTeXmhmGJE4OKkoROWRSEShuYiq/SlzpznwZN4mc+Ek5+Qzhap5LhwOCwbvcZtMngbNeMqdMMKUeK876UM1hVxMLEiVa1qfR2bOx3iTbfM+ts3JLyas7BMFfRIM8IlcWFyZKVcIdThLn8iFhe83Gbsg++R2j8RzmM+Lwus24wZ0F2Docbh0Mv4R8GEHWlTELhG11d+fDsOL8N00xiBI6gLRiA6/jycM6IYbuhGDptP/TMbhhkGmlIjBpfjWzcVtjp20cPNvw1DdHvSRR+HxjFxDYRXnWHnZtim57LQ7QQO2LeeXzmtH/O98aDyWNBt73KbfXsZqKOPJ8eW4qzEIEhDxfaS9XNCO1hgx1zXoCdLAgMvrTwXMpeNisDNl27mj2BbdHpKxibkJ4JlN+9AR55wJwjXgRYm/GIY2jHjCQEz3IqJHsevQG5g7fxZc/mzohgsuxE0DAxLQdBdcHBuhkHuBgV60tLdhyqxKuA0KExdi8MKl6TAQNdezyw2fHoWGAOI0wyOCBNvh+uYaJl01LzSuOY3CTkdcc4tQQpehw9A8Yi2zTY8OJOCGrtExEochrvfAZdD/bUCHW7THmAoDpvDRQ4OIawZ88MDl9UEPBKAZbuREu3D5ghmoKC8y17WhIcF3sLg8T2ZcrDE7doBPtfhx3lPw0XQux67raCd21LahJ0T3EuNFPOL9ae/RhOtFE+8NjfPVjM1SQZtcP6NwnDHCSyVPtcODo1xJoxBjmlkgsiMWNxXXvIxRZTyMKx7B9OIsLJk3HV5/ANF4wgTwyc7ZrWErQBgLgKWjeFjdt3bKV3pi/PRd9b4FCAkNcHPC07cZT6Crr18gBZeLi56BQyZC5kJKGMSwbsRiJkMgEnWxAY3BjWoApBmkpJqcKPCjUQpsN1yay/StJgMgKcTlqpJmabFwk0FdBAjC7CZQdhJBJ4PozFlsBtvwYCCUWLZJt4eME9CEDCI6pkbtMReI2yVcI1L7EEyBqF7GRST9tgz6ooAaFaRIoUNhlVxGQptkAJfmQk5mJrwBD+ICgBEQjUzcdAGCNQbBDiBYTYHRRAw+voPmRiRhoP5wC1pbmuH2+WFoPoD/DA2GxncmPcjUOFakHYX6iHYuTZCy51Ytie8rkb66LHkd6SR/k/epWoDO4EYlmFReI4NeBSAg7SwZIVafvF08hdTc5DzhXDB0s08J3UCc2pmRQNWsaZhcmAtwYmheEacwXgzCyQKE596pQWvEB7fHhSn5AZRkMqIvgHA0gUicQ+PDiy+/goqFs+D1Z1DOArFhAZ741UXhRAHtccNIJNDZeBC/ffABfP1vvg3N7Yfh9kF3eeGKDcLQEnB7A4h5gnAbMbh0F3SOczyEhEZxbSCum4KcFiZJSwGlXW64CH71GHRDQ9wwgyAJdrkkCEC1eAgurxcJl18AE4pJU7xzshNQJDDU1YrGdzcAsRBiWhDTFq5CXsUMuAwN2Yk+XLZgOsrLCs9ZgEAz+rot2zGgeRB35yEeDYDQy3BFAMMtgI7ujsPl0+EmUNKlRj/io0mBYENmcmgwksqPaXkxrxU80XIQgIwAiKTiNYJ7latNHi04oVjYyafKhyvoRCOQ0QnkOGIGdFcCfj0OT7gfFbk+rF2+GIaegC8wEiDtAIRkSNDpwh+//e1vcdddd52u5o/brmS+vMjOtyREmOZCLBrHuwfrUN/ZBcMVgKb5U2Y1yXQT1GIERKZJlOaumKmVqemCYqKak93E13KymoshFSuVhLBk3mJSp0CxTD0cjcRTCyV5nbUdidyV5ZFEyWR5JhaXQiOJTUSA2GiULuTnCLw2XyLpPU0uQHMZisWVssaajQMJHVo8hoIML1bMrUBhfg4SLje842SJWMeFgmgiACEej8Lt0sD4ty17DuFw1zEMu7NguHxIuPimMfHGiPsoAwirYOhkdNSuaQY3I6HHMhmfygmsmmyPP4EnViZAjON7Dmp9CbiNOIJ6CCvmlGPOtEnQDY+tq8uqcY7lV7b6uqUFQT5eBrm+sG0vWkJBuNw+TM7JQXHAi0g8gaGwQX0cOsJYv/4NTFuwEAF/APGhQbz+wjNwE8iGh9F5pA3IyMOVV1+Lja+/BI9bw6Hd7+KSy67CcJTun4Cwmg0M9GNgcBBXXH8TyucsBMQ7A/2drXjlhecQyC1CcV4mWmpr4QtmoTDDg6bWVnj8QWRlZ6Orpxs33vJhNNUeQlNDLXTNAz9i6OwbxNQ58zGppBg9R1rR3dOHmz52LzQfhQlpa6526gw6rXLxEBq2vYFjtdvhL52JeWtuhBHIE3MwJ9GNtfOnY0oSIPBOgjfitfGCptNxlaZjcbO6ozgnGRAosxj279+Pze0xxNxB9HUG0Li7n4YC6IaZNWNoIfhzhzF1bhYy870mH6RvP+nSE+soGeBp8gqh4gjrVWr+C9cF7UQCeqR4jwkYkj5/gvGkAmTaQt97pCwVo8CAeZ1q0dBlmqlLJJfAQ6sTLYNGDDmJY7iiejaKc7Ph8ZMnmIc1Bo3nCJ7o9jhekLaMI7KOp2rZsXPf2sW4nUreM5G2LlgLgvQLS5+QTBmSmjqJ5Tbc2HOoATuO9CDqzUM44kUilkTDwvxrMmlvkIHXcRFpDYMafgwufr7noL5jnchsL03T2ERGUN4zlk/W3oZns9Js5Yp9jyxtCjAGA35jGHmRHlyxfAEycjLhdo3QyLpopKXFGjjJB9oFKaoC/D2xGnG6ODxoaD2KrQdbEfbnYGA4E0cPD0OLu6ETEAifdwiBrDgKJ3nhC5DlMFWRVhx7UHYyw3G27hW+2uTDaTYXjFJCVs0Fvx5CsTaIK1fMh98XSKUUpqZR0rpljXPh72qKpCqIJBinK41+bJM5m2nCPF7eUYfWiBua24uSYBby3V6EEcFgyIVogoA8gS1vv4QZi6uR6fejaf9uvP3GOtxx58fww+/+B3qONuNjf/znwtWw6bXnce3NH8L9//EvKCwswqrLrsKe3buQE/Bgyqy56Ghrw8yFS7F49ZWmhcjQ8NYLT6CjuRG3ferzeOGJ3yI/pxD5JZPx6M/+B1NnzcXc+YvR09eL9tYmrLnqBrQ0NSA74ILLE8SrT/4fyuYtxEc/+Xn0dvegs7kOG19Zh0989RvILCoVa5sghJkKCc2NmMst/h7qakPthmcxbdFKFMxaDD1hWhsIEC6ZV4FJJXmml1NzCyEpAYIUoGrw80hcgBlgJ4+x3FhqBpVV0LEt1ZQtQTGDFOXY1dTUYEuPjoTmQaY7C4unzkBQBwY9ccRiboRDOrbt2oaOvnbMrJxnul4ESBhRO1TBnbLICgutGXAt39Orm1bQcDiEQCBoxhrQope0oqYsBGMAhHTXWSISxtBgN0htuo+8vmy4snME3bP1AVwxfzKKc7LgFm5C81Cth7IfjNVgZhAttPKcXeyYGozMtuzigaSLIaWIKrEo0nqtWm/TfddTed0FCxDUQaZmo/prOTCU/4m4gVc2bUO7kYGYUYSWA0MY6mTqmJn/L5mrlt+IWZV5CDDwxaDJOiE00/ccdkL6DGCDUzkhJtIWF5lpM4kjJ9SLlXPLMX16eSrmgm2S4anpkXYImkKHC0ONF7Gm6klgMSodNB6Dx+XGzppG7Gzpw7AvD+4QkIsSBHUChBBCBhBJBNDcsR8xdxemzpqCBLyIxxLoPHIUBYUFCAZG0gYnQodz4R4JpKh5yRgAulNcHhcMjx8+I458vR/XrV6E7GBQuBjU1DUJrK3Bo9ZgOLvUYRUgSKbI8Xp+Sw1awz4BEHI0oDQzgEhcw2A0jJgegB7XsPXtFzBt+UXI9Hsx1HkYTz76K6y+dC1efOpphPuO4ONf/TaioTie/d3PsXTNGqx79JeYUjENCy6+AobLg7p9OzF1xkx0HzmCqVULsXjVFTDoKtA8OLj5dWxe/wYuueFWNO7biuHBYWQWTkL9lnXIK5qMqXMXYHBgAE21B3DJ1R9Ee+thJAa7MRR340jtPhTPrsQdn/osfvWzn6IiLwP7tu/A3V/5JgKlk4WA8Rj4K9f8AAAgAElEQVR0LtAaqAsLgohJiEUxdKQJwZIy6N4gfIYZv5CtH8Nl82egfFJh0n7rQtxICKueKvzTSaVNx/Uz1nharT9qSuGBAwewoQOIa35k+dyonlaKWP8Aoi4/IpE4hkIx1NQfxNG+TsyqqhRrv6+3VwjOUDiMzIwMUVchHIkgJztbBP9lZ2VheHBAxOD09vYKfszrQoNDoCuzqbEJS5YsEXyi+9ggcnNzRSpoygogXAwTZ6bxY52oefsV6Me6EPcGMX3ZpSgsnylAXZY+iGsWT0VhTiY8SgquneXMakGw40fpWBDGsspZYxfONk95XwAETjo1H1wCBCMRw/Nb9qM9liHSraYU5GJuSbaYiMPhGJjHHE3oePrFl1AwpxL5wQQiyIJXTyDmdsFvREVAlVv3Iuw2oB1rR0/Ig8lFfkRdOSIgStdiCEZdGPbFGBqHhO4TxVziGoOpEtDjxYDWhlBHI7TCOcj30SCegTDvY3CUHRA5i7OG2oIRCWGgrVEE+ej00WbmIrukAobmQlAfxpqZeZgzpRwuJQjBChCkZWe8LIZ0AAIDBGmu3NPYgs3N/TAQEL7sJdNK4AoNQHf5cCyiYzASRVPDITS3t2Hm/GrhY96zfh3efWsDbrjv8yjOL0VYj8Lvy4YRG4bhCcIXG0SEMQxuF9xxwOMzNat4LCy0P7eH40k/NUGjD1p0GAkjioThgd/nRzwaQUxPwJuRCU88iuE4ox6igD8Hbj2MRDwGuH3CTMWAOa8eFe6ZiR5uFvnREhjsbkfH7m3QYiHEfQFMqVyG7JKpgiHmuYZx60VTEQjmCYZsLcgzXhaDBHzqfaYWaFoQRgUpahpeeHsPmiIZItJjsLsLR1raEI0yxsC0t9E8zUjzOStWIuj3Q0tEcHDfLrS3NqNi2iz0Dwyjan6VCLLduXMHjvX1Ii87AyUlJairqxPBdVlZ2cjKz8PgwKBog/E27EfCgBA0dfX16O3pwYKFC1FXc0AEIM+dNxd9vX3Iys5CNK6jb3AIU8pKseudDWisO4jqpStRUDZVaLiVlfNw4EANGhobkZlXgGXLlgmeIl2J6QqvrMQAVi+YjhmTCswYRdoV6G4Uwaoj1oF0xsU2e8dSS8Vunb3XDZEQdMvOygGLWu05cAAbO1zQXQay3D7Mq5iGgZ5eJDzAcFjD0GAITU01OBbqx7SqeQJkP/XT/8LUOYtwYO9WzJ4xHTve3Y6ZM6ahrGI6du7djw/ddR9effyXqF5zJQ5s24iGA3uwaO012PLq06iYuxiRUAwfuvV2vPbCc8guK8DA0T7cfPcngewCuAS4srPOpr9KOL869m3E0X3vInPydMy46Bp4/VkiINVvxHB9dSlyc3IQ8I8El9sBMLs6CHYWhHSyGOwyxKxppOm/4em58n0BEOxiEMxo4yhe3HoAbdGgAAiT8/NQlulFLK5jKBwVAIEBXq+/9RrKKiuR4c+FKz6MlpYa9Hf1oih/Otp7a5HpykXpggVo3vA9vPH2ID7xsY+hta8XOcXlKJ5ajkhTAxrb2xHwZ2H69DIcPnQIrpwiFFWU42h9O7KzI2isa0JWxQKEexuQk1WCyVVLEXBTIzk9Az/hVgnpY1HUvvMqwq0HkHB5ULH0chTMXiy0p2DCHiCMm3qZNMNZYxDSKZRkBxAC3iAqJxciPnhMaEIECMOhCFoO16GzrxszquYjZsTx6Pf/Gf3dA/jg3XfinQ0b0ReLY1ZRITo7DgOZuYgPdkPXfHDrBvyZeZgyvQLT5szHGy8/j+H+Xlx7x90omTLdzH7R3Hjtmd+hu/UINFcCl119NbZu246+tmYsX305QkPHcLC2HuH+blx/2z04sHcXujrbkZuXh6tv+BBcPtOCQRA20YM+XPr1ER5Awzuvo6/lALKKyjBr7c3wZuQJQJuvDePDF02DPyPbtoKoFSCkI4g4btJSZwUIz76zBy1hv8gY0WMJxEMRJEQeBQ+TBQmTbEZQBA4zEJhgiZkB1MxHx9HQP+0CvRemuZplvnkP4y5jwldEa0Dn0U7xvJgGFBTkIy8vz6ym53IjlnAn0+KSAXB8lohFYeaIjmPdR0W7eYUlMDSzaqrq4hJ5Cwz+TLpQxFvYROjbjWFuog9rq2egooQAwXw3AiQeKkCYaPBoOoWSrOZuBnEOHWMWQ24KILx1xCWyNTI1D2aUTMJgbz+ibg1DIQPRSAzNTYcwGBvCzKp5iETjeOKBf8eMykWo2bUV86rm4mBDEwb6+nDRqjXYvWM3Pnz3fXjpiV9i0cpLseud9ajbvxvVq69CR/0+3HbPfXji8cexes1a7NyyCXd+9rP4zf/+Eh/46B0orJgJN5mgyFCZ+CEA3HAXGnZuQ9nseQgWTxUBl8xaGQsg2LlwHIAw8TF4z51nO0hRWAqSZYalpir9SoLxJGJYt/UA2uOZYoEX5+ai0O8R2sRgKAJdd4kMhs0bX0bFggXwBXMx2PIOHnnkGSxftRYZiKCrsw3b1r+Gi+/6C0zufRHPvrEP2X4DGaVVqO+K446bLsW6p5/C3BVrsf/Fx5BXVoHiOSvQeuhtTJo1H2+8sh1Ll85CZ+MuTFv5QWT6hrHr7S246uN/harKySPBjqdwXE6mKfrtCaaG22rR8M5L8OcVY9bFH4ArI5Mx3AjQgjCDFoQywWwE81TK58pnSx+1tZKjdDFIpiyBhdrn9/rzWGrZjb1NrXjn8DFhQQi4/JhZko/wwADiWgADUR0RAoSWWvQN9WJGVaVIyXztkQcRingRzPEiRA1z9Vr87nvfYVYgbrj7Xrz4zGNYu+YybHz5VSxafQka29tw2133oalmN95+bR2qVl+OK278qACTZDZP//z7KJ+zAL3tDSIVctKUGTi0czOODQ1heGgQN334Drz12jrMqKzGu9vewSc/8zk8/Nvf4IO3342CydMRM1zwCm1pYgehhWmwBoaPNODQtvWYWTUf2TOXQodHmMTzEcatK6bBq7gY1GwLCRCkj1W621LZFsnxtAZdqQBBjjnf4sVt+3Ak5DKzETSmBzL98T2BLCLG1wzCNYG5yMxJBvCJ+SA0bDNgRHj0k0VvpOc7oZnnxV4H0odM2aKkuwmQQFte0g8uPAMielcXUfbMXiBIgMbsBwbWsfQ2v8vgXAazmv03200G8aYBEHh1VrwPaxbORFlJobAe0OqGhIB0o7KFJECQ64ef6lqQsQT8tAbMqTEIdutMxiBIuhDw0NSfmZkt+rPv4AFsPOoRAMGbAAoDQUSHw4jqcURiBvSEhvq6Gmh+N2ZUzkXUcOOVRx/EsaEwjjbXYcXFFyE7Pwf79+5D9cLFeGfjRixatgo1e7Yhu7AEWjyM1qYGzKxchPYjnbj19rvwxO8fwY0334zXX34BsyoX4uC+Gtxy193wBWiJpVXs5FwMJj8xkBgagoupuG6viE+RFoTrqkuQk5UDv49zw1x7MiNJrcEigzntKinKDCeri0GOlRq3IMdFLbhmra/C+9S5OzGOcHJ3XdAWBMnYrPn2YnAYhKAn8MLWfWiPZQqhlxfMQEHAK6wHRMWxBJmBhh2b30TF0moE/UE01zyPTS/X4KbP/jGO7Hocm97Yi66W7ai8+W+xJK8G6158E51NjZiz8h6g0IfKXBdeeXMTPvipL+PV//oaelzZuPEL/4bD6x9Ae78Xh5oS+JOvfgbPPfhNeIpXIByP4NjhA1h55/+HNRfPe2/M48mN90nfTcGZSBhwx6NoPbgbWcWTkVlSIdK7CBCEi2FGHmZOngS3UhxlrDRHaaaWAkWtg6ACi1T6ns0eDizMJF0MEiB44cH0kgLo0TjCcUOAPuY51x7ci8HIkLAgxJHA64/9EpEwUFBWhJaaA6heuQJP/eJnyMjOxr1/9pf4yff/C5evvRxvvvQClq1cjQN1B7Fg8Uo0HtgFdzSCSYtX4PLrb4Xb7RXM5umf/w+mVS5A/Z5dCLq96OofQMWUIrR0HMXQQD8+cPNteO2FZ7Dq0iux8Y3X8LE778Fjjz+G2+/9NLKLCapYdnjiw8Q+UDNicR7diKDvSBsKCgth+Fnh0CUyd3K1YdyybAYCmRmp2JCUsLChrwTaY5XllsI2pOwxIBkgP9/duROZecXCyhJ3eeAxoqmMH/VNaTEQGnUyZc1M+LHXG+1M+rrLDPYzNfqxQ4MFyLUcwt0nMItpzhabK1H42gyGzBSRINZ83jhWH4F8gO4j7Zg+pQxTKyqSdQXIhpgVZZZMlqDMKiykr1sVKNKyYxdRb7de5DmusdFVTRMYGmAWQ7ZI9dx7YD82HnELF0MiHEXTwYM41tcnrCyi9gH7qgHTZ89GQUkJIi4/3OEu9PUPIejW4PZnIBQdFmsiKysX4YFehOMavD6P8PEPD/SbBYpY/TUBBLJyEBnqRSArG5HwEMKD3KsiCE9mNjSmUTLMWAzsyZhTDeFe8+pAnMY+2qZEXQzTgnDDokkiOyHoYyJs0rKU3OdGFezSgmDdK2VUKvg4e8NwvnAMZCCianGTMQhybjkAYeK8MO077fx5Ah/EY3hx2wG0RgICIGgsZBMdFilYrPESjbPIjobmg/swbdV85HsmoffYQbz6xO9QUL4Qns7taBkA4sNdmHnJp7FodgIvPfoUirwxDOdWI1CcgVllU7H11afgzy5D3Za3sPSyleiL5iLe14jSRZdg88Zd+MQnb8PLT34XLr0AIXcBPIO1mHXDV7Cssjy5y13ar3raLyRzFMiWCy0SMhmNKPMsssARSAxh7awCzC4vgysNgDBeDIJdCWyrD5X1Iuhz3lXfnIpBiEfj6G1vRvjYgBhDmnGjhobQcD9Kyidj8oxZiBlA876dcCd0lFZWYtemTRgK9aO8eJIIqJq79BLs2vIWKqZNQ3N9DYonT0N//1FUVMzC/l3b4YEbRVMmIaegFAlusgQdrz/5W3iyijB9XiWqlyzBtnc2C3GUW1yBWH8H9u3ajt4jLbjzi99AT3c3utpbkFtcisqly0UxI6Yi6ie5q6EwyZIJuUxN122wZ2ZKLU33ue4Iblk5G8FARtqblElmJieYdQwIIsYKUqyvr8W8eZVm6hvdAUYI0EY2mpJtso9mzyWLHkso2AsKCSXEr6k/7NCWzf0yZVfcKy04I3tPjlpYEoXIk+q946zAA/v3w+/3YsaMWQKACA0twWJnY282Jro0xuZmFCjHK+FuF4MgAUKq+3QxDHBjJDMGYV9NDTa1aYgxHYNjxjiZJF2YYUDQJmoVeANghYqwKwCfMSyKSXHuMebHzTgcWmE0FzyJiAAWouy1aeBJHub4km94waqTjFIx4OaQaQZiTBnV+bw4EtrI7JgIk2OfSW/2j+moIqxUcTEQIDBWJeAbKUxnF0jY19cnrlMtCOmkn1r5mEwBtlapdWIQJjK6J3GPXCDWHRdZLCdqAOve2YcjUS+ihgvRwQG0NtQjFmfFRBq2+M8NX2Yupk6dKoKS2J4oQ0oTqBTfNF+5PcIszehxzj+TLWnwRI7i5acfRWNzhwjGueHGDwsDsu52QaNJk7slulyiTaEvifrnWrK9k0HMJ0G0E741AQ9NtPQl6yGsmV2G2RWF8LjGrqTI96aQUYNHuYh4Xs04sdt0SZY+lt2MRkNwe/zY2dCGrY1diHnz4NGHkRjSEIkPJmshECRwR023CMoTVQ9V+1nquxRKVuFk9zcw3NuBhoaGVJ0L9r98RqXQ2mnVMFMNKaR1HG5qQHd3N/Lz8zF9+gwYLupkfLBSD+NkHK3mlFOEY9IiLwQRGSyL+rhRpB3DrRfPhjeQ854gRbuod7sYBLuslLEAQm1jLSpnVwnG7BneAT20F66sWwFPJhLuOFeJqJxosAiPdZOmMeaiqr0fb7qme90JT/kJ3sAaAwTFM2fOTL2rnSA6mSBF634f1iBtuzoIAwPc98DcQGrv3r3Y0hEVtgJq3Uzv1t06XMkCtGO++vHs0fI36zUqi7PO/dNq3wZcLBudiMOnD+Oy5dUoyPQhEDDLP/OYKEAYa71YN6eSaY6SnnZBkROcZqfsttM6BGczBkGibjvkLXxLRkKAgpe27ENH1IcYI9V1lnU1S9+yzCrrHdCja7CMa3LTFzmHpZaWzkhEQ0OmBufNMEt5shRxKkgrnRbO7WuIzKnzUdz59WGsnjkJs6bkw50sv8ze2zG8iRRKYlvviUGIx+DWPNjdeBg76tsRc2WIugc0kQJxEQVtHtJorUSMj1c/YhyBbZqbTWAnfeEyB0GYdJNPTrAsr6iiSIAp/dasvzfxgMRxZ4VkvqKTJndnfEKuFsKNK+chK5hhW0kxHY3ILq9bbtYk+8V2+K+ljmnC82AY7Yh2PoDE4Bvo9Xwe5VNuRYjFsaJAJs3LsQh27tyJlStXmqOl7AOgviuByEsvvYTrr79+1D4hKqN95513REYF1/qCBQvQ2NiI5uZmMXcYsCizEMal4Sm+gACBoHjGjBmplqUr1BqkaM28sot6t6af2hVKso7ney0II1srs1Pbt29HfskkBFmSW2PcSlyUjVb2vTrFVDk7zYmS3pqB/t5u5GZmorSoUJRcTq1Zmz0y5GZNqktOKHlKhVQreLbjWdJtZ93kTt2wKl2wfDqpd8ECBA4AB4qHDGaSBDcBAlOrgDe27kZvzIOEy8sirGbFVLJ8sakAWb/JwNVAFVPUJKsmymAnyyilisowQlqnqZcCguYrVvEDYjZmZJVBnM5BP9VtM5iJPlzhZEiEsXx6GaZNKTTLHCcPGfBjFwwnhQGZN4WCNS5BLiLZhhxP2bbBmAgN2F9bj75IDC4Py/UyLcsvClp5DVM7ZU1+GViWEtJisN8bMJeyUI+n0SqlXtV7pC9ZftKaQFww4luUesrJmgzGHk35bPMVkxHzmgeJ0DEsrZyOYEZOam2orVgFiKS7bIfzVAZipcYguSMqrT+pAMDk2mtpbsa8qipAjyHc8U8YansBzdqfYFH1HRgcjghXVSQewvYdu0WO/Mc//vGUSX3Hjh0CZEyZMgVdXV0oKyvD1q1bsWXLFtx7772ora1FeXm5uK+wsBCVlZWiS88884yw1Dz22GP47Gc/K7Ti+fPnY/369fjgBz8o2jsb6401BihMKioqlI2RzBLtaqluNU5AAghJf/kpo+zVNcVruV7kPXIspAATAaBJwSeD6niNWiuGAGHpRUsQ8JpFrzR9ENCyRP2XC+swrXft7R0YHAphUtlkeD1iMxnxmnKtcp5IejLOhsBNzh1+kp6qy8HKn9iWdU2pckkdTwkQ2AYtDk6hpNM84+x8cCZ6AxKxCPbt24dps+eISSHq/hnmBiRmFXhWy3LBEL7c0QfLqx7vEIsv5XNNRlUn0Ye5GcxJRKKdZpqdaPMiLkHQyYXhcBgDnZ2YPW8WPJ6Ruubp7sWgBimyH+mkOSaiCVFqefvOHahaVA0/A6CEZZ//Y7qW6UPlfhrqcbJhTydGp7EsBWdqHpjMkE+rr6tFcVERcnPTq4Ogmkwl07TzqVotCBLw1TU0oHLuXAG4Y10/wpHGF+Eqvx+lkyeJAjm9XYOobdyLksJJOHLkCO68805BWgKCdevWiaI7jB6nJeDw4cMoKirC7t27BQPv6OgA/cKf//znRU0Eggsy2c2bNwtf8auvvopJkyYJBn3DDTfglVdewYc//OGzAg74TgQIVguC1ZQtBbZqQeC9E0k/teN/70lz1HVBX9aT4PUEYIsWs+x1BvRIDUI9T8LtnQ5PwW3CupoyTDFTZpgVEANi/alQN13nKEGzWnFetJFcmOm2cWLrcORq0/kHHGnvQDwaRWlJibkXQ1IpsHMx0ILAktRScFOWWC07doWS7NYL77PGYDmFkiY6mhO8byyAQFNrIhJB/aH9mL+o2pyVekhoOXAxWIcpWaO3J1C7kK5hWA2YkpjC3AnhdE//CRJsgreJoCUNGBgaxuH6Rsytmic0GXnYAQTV9MlxkiZplTGmU1tebN2qefDuzu1YUL0Afm6wpYehhV6DyzMNiUCVAAfqmDFoUWhe41kIxqGHnXi3mxvjeTImSPa0b0tZNwygtqEB+UWTUJgTtHX9HM/FMBZAIKMcay8GPq9qzhzR11j/Kzh8eCMKp/0psnMy0dzUjJ7OXtQ3NWPunNlgmd/bb79dXNvZ2YlNmzaJdgkWbrnlFrz88suYPXu2sASwUNKqVatw8OBBXHnlleI3XkPm/eKLLwoLwqFDh4Tl4Mknn8TXvvY1ARjONYAwlotBCg81+0BdU3a7/9mtFztX3li7OXJ8aZ1ZumQRfL4gYgNPwD303+juLIe34nvIyS0QStXcuXMFmHjuuedwySWXiLHgIa1N0nJhxlSZAZj8TbVo8G/ujshPgjmZssnxfvjhh/GBD3wA9fX1osIix5Fzo6enB6WlpbjuuuvEPSd3mKu3vaMD8UgcJSWl8AuAYLaaTh0EO4BgNy52oExae+Q7OLs5ntxoTujusYIUGTwWiyZwqPYgFlYvhGaEMdT/DHzHNkALfAha8eUib1sDi6+4xTa8ff19KCouTvbjvQLe1meqhFaPCAllM6cJvdW5dZMq/IaGQ2isq0Pl/CqxW5487Er62vlUpWlN3pdu4RcWwNm+YzsWLFwg9pmPDb4Kd9/30RcqR7DsbxDMLEVLS7swUXML7+3vbses2bOQm8OdDZNPs4tPTO2OZe7+QtcE76dW++62d1FRMQWBYEAwq0MHD6K3t08wQQYhzpg54mc+d0bMQF1tHQqLS5GXm/2eEth2gNpOk7IKIl5jZ0Fg8G1dYwOq5rIkr7kb4nC4H/5gkdhGmBX8opGQ2ACJjDovL1dsiMO2pFuPgJEuAQohBnnSrcD4ApbjbWlpEZovhQitCbxOCjlew9845hQ0BBa8RjXvn+lxYQwCNe7xYhBOJkgxne2eR6c5jsQgSNotWrrCrAkwvA3hti+j9cjVKKv+C2RkZuGpp57C4sWLBSBramoSwItWHQq4t99+W1h6du3aJUAdrTv8mzEfdBdxTPlbdXW1EPq07nCM6NbgeN56661Csfj1r38tgBzj2DimBIsrVqwQFqCPfOQjmDx58igFZGLjaC54uhii8ThKSybB7yfPHwEI/Kaa+dMtlGSXXWLd34S0Pl4MwsTe6dTedcHGIEgEyE+73elobI1GEjhYV4vFi6uhJYYw0PN9+PoeQcvAxzFl6R8hdMyFzvYeTJtZLhjT66+/Pmp3Sm7cIbUtMkwyNZoQqdXQVyX9sQyqCgaD4loKQDI8nmObXFg8z2s5gdjXBx54QDBDtslALC5Eml7J3BjA9aEPfeismUjHm36kCU298+bNG71NdNzcFlseXBxyXKSGJE3Sdps1qfdZNVxpnSADWrSImo8PicH1SHT8LQ53T0bezH9HYWE53tq4AdWLFomsg40bN+KjH/2ooDP7wnMUTGQ8HJujR48KTYWfFP7Tp08HmTuZGb9z7L7zne/g0ksvFUzysssuE+NExsCxJ6OT/vDxaHamfydjLigoEMF6VsuOXC/qWEnNT/VjS4CgxlpIC4IEynI8GSDI+aCOoeo3V4E1affaa6+JfnHNkL78VO/l97ECuGR/zoUAL7txlVkMnEOqZUBqz1LjlgBBbcPq2z4RTVUCAj5HvU9aLwh4aTrnsW3bNixZynXkBaKN6G36EwxEPo3yyg+L33/4wx9i1qxZYg7R5XPFFVeIdcQ+U6BT83/++ecFOOB78tl07zz77LNibdIqxHVE0EDQxoBTggBaJsjb5syZI0DIzTffLH7jet+zZw8+/elPi3Y/9rGPjcp0Otn1097eLng317vMVGObkjYirTtpaVQLJcl5K9eCtJ5Ys0SkLFLrKcggRbWolTXu5FxIebxgAQIHTw6wFSBIhsdc+YOHDmHREloQ4gj3/Ao9Bx9GKPsbmFp5KbqPHkXNgSYMhvqF0ONgfuELXxDzkZOfZksGRvEfUTE1FmoqFAwMmuKEI8Oj4KEWQ22Hk0BGVXPxUJOguZT3SvT86KOPCoZKIUZth/ddc801wjz6iU98IrXr2skujNNxvwoQrC4GtT65dClYr+F5dZGmW6KZbRMgUDMRACHahKGGb6IntBSlVX+BgBt48KGfYV7lPLS2toKaAJkRx4iM7Re/+IVgVvRtc0yeeOIJUTjljjvuEGNPZsZANzKTu+++WzA4jhO1Gmq0NH0S7JHRkdkQJJ6rB9+HzJ0aWzqaqrQgqAzOep/VgiAFEc8TQKkA4WToYmulO5kGz/C9FILjxSCwS+kAN7u0ODtTtmqpk+MiAQmfRZpS8HG+82AMwtIlS+BjWnfsGHpa/xdR93UoLa8S1/74xz8W62zDhg2in1/84hfF3OecIHhQA/YkP+Tz+DutCuSjXK/kabyP1gOuO973pS99SfTjW9/6logrkS6G+++/X/zNmBS6oNRU6JMdQgkQaM2wpiKybbUoEl0i7J8sajUWH1MtCHx3GZegBspTDpEWEtTKYEd5jQpMTvYdJ3r/BQsQVI3D6oMT6M1wIR4N4dDBWixcvEBkK0SOPYX2ul8ha8q/oqhophDM727dhWgiLDREWhAoMHhQyFAwXHTRRSJSmpYDInAKfwZIkQlQ86SA5zUU9tRMibTJJIiOCSIoqJiS1dbWJjRSTj4Kp6qqKmE1oKZKjY/AgBoqI7fPRvR1uhOM7yj9vidSwOVkYhAko2SKHOlP2scSHeiuvx9RLEfZ7FvhMYbx45/8UggqzgeO7Y033pgCCPR5kulxnKhNcZz4/Stf+YrJMJcuFYKODIuWBwrXhx56CGvXrhXf33zzTTHezG8/1wEC521xcbHo90Rr/lsFmAQI1PYlg5MWBNLsVAGEdOfhuXod+QSFgloH4XgxCGo6nVXRsQMI6cTs2IEICj5z90QzBmHJomXwB1kG2g0Y/Ui4gnC7fELponJEPkWeRYHKOcQ1z4P8jsKbbRF0EFSSL9JFwJgQ3k8lgr9zrvkcUjQAACAASURBVPB3AgcCbK5bzksJKimw2R8qT2yL11PhOvnYg9GzgwCBdOOaV4GHXQwC6cT3sSu1LFtNJzZEWpOthZKcIMUzvHLtfKqmBcGFWHQYtYfqsWBRFXEiEpFmHG3diOySDyM704PDbUdQu2cXuo4NiEAoWgHuu+++lAXhZz/7mZhQNENzYDmhuVg4gWhWpcDhxKcwYlAPJyInOIUKGSYXDRkGzY7s5ze+8Q2xSP7pn/5JaLG8hwvu8ccfF5HdROy0Mpzt1JfjDeHZBAiqBUFUQAg1IJ4oRDCYw0KZ2Ldvr2ACMkee7ggyHjIo0phjQhcOBSgZBn/jOHKM77nnHkF/muUJ+MjkCNgYAMc0O17Lc7Qs8F66Ks7VwwEIZ29k0o1BOBnglk4MwnhBinS7iqJBhlsU89I0Vgod0XZVFw7nPec/+SrXh9jlcoLBv2fDQuQAhLHXwwVtQZCmG2ugmwkQ3IhGh1B7sA7VSxYma7DT3jYEA5nQtDAShh+IhqC7vCLalhOfmiJdBkS1F198sUDQPM9nUJBQOPCT13OR0HRGwUW/3LRp04T/j0hYjerlAuOilr5W3ssFzHbYhmQWsiLaRBffmWCLBEAUQLSAWOuTWwOj7GIQrEGKVo1Iml+tAT88TwuCdDGwJoOZKWKWhTZcowNDOTcI+qgtkZ4EDjR58pD05e+0BnGc6X44nuXmbDC2ExvPkaROjk9RYRFy83KFtUTGx0hzp13aFmlyPIuQXZCi1JJEmuO8eWI0YrqOoVgE2d4A3OYWjMnXSD+rx6oBswFrnMSJ0ebMXT1WoSTOH2uxHdXcbWfKPp6LQcY3qLE+cm5LH7lqZVVdDMKCsHgR/AHGfsQRF5UuxV5aMgPRkt41xhiOyiNW/0imH6f22rCWUxw9F0732iJAIG+VMQiSLnaWHTsLgl3Wj9USMFYWw3guhjM3M+2fdMECBA4uhYtcIOpujjJAhAPL4DRG5KZzsC0KaxmMIgX48e7lxOPk4LXnsmsgnfdP5xoKHAogWj/GAwiko/TlST+dChBU351aqEreJ/sjTYEEYxzL1FjLoqnMYNVMBmc9JIhUgYHKOO3Op0OHc+saMmfJxF0ipkKmlTHoi1YTCq6rrrrKjN9IJN4TUEo6SSEm/dgq4OM9aqlljhfnPc+3Nh/G3PlVzAdCc2cH+kMhZLt9mDG5HB6NKb+sxm+WHVdNt/I5dLWxX+wzGSpdfWvWrBllDqalju9F6w6/833I8GnRoSuFljoCcT6DQXAEhGcDaLNffAfGqkgfsxT0qeJqlt1PpbC3znu1PgXnmwoi5LyWsViyAI9dkCKvIW1kDAKDFJctW5Kkb7IgXKqKhllALoUUhARJzi2xK6boiZk+nMQE5odA6eay0OKAwd0ieZ71ZtwjwENU6kg3ifzUrDICBL4/LcB2ioekHZ9G/kaFUM59KwCTFmv+bgXUVsuO3Xiqlh1ef7ZlxgULEFQmbxeDwIGk8KbvjKZm5zg1FOBCkz7nsXb/45O4OMgYrRkLMstD9iYdn6r0h7/77ruKBYE1K80MxlGaT7LhE9VKTvT6U0PNU9nKSMWGmoM1IrYlHtNFvAtdXgyyvemmmwSDlABBChkpwChoGb1OpmWNQeC42e3FwLYa6xswp6oSjd1HWZIUU7OLsO1IMwrcXkwtLMK2rVtFvf+CAjNtkfEeXJe01HEPlAcffBCXX365cAERBDAfnnnwLJ1MixFddQwgJYDgO/D8D37wA2H1Yb8YSEq3Et+HfWea3NkCCIw/osVGZjFwhNU0UjnP7FwM6WiqdkG9Vv5nDYbjM6UFgd9FoaRFCxEImJUUU9hSCvzkzopqjRdxmRD4o8slmcWIuLmTaRVI1YJJXUYwYdaFEfcSRKRvTDolC0S6GKxBinZWqYmmOVotCGPFIKjA42wAWCtB3xcAQS0jKoWTBAg0I6drQTgls/E8akQyK/VzPI1aAgSri8Fan9yKvNkuGZlM+ZQakd1ujtZgLRkhzGjolIshaTVgO2JLBv47QcXkVIICKWxP16K366t6zvxucvv9B/bi0KFaRMJxUVCIAlS1IKjMTGqvHFdqll/96ldFIJndJlq2AEHXcaihDgvnVuFwXzeODPRhVskUbNi7G1Ozc5GtuVFz4AAuvfxy7K/Zj2ef/UPKnUMwQpBA8EL3HPvAIFSZRvuHP/xBgALG/Mh0U7qJeA8DSHkPhTEj5/nJzA2+DwOOz9Zht1mTnSk7newdqwVBriGrpmoFCLJtlQY0nctKimaQ4mL4gwEWn0dX/zF4fF4UBoKm7NZ0cZ6lx0btwmzExCZ2cPtYg1bsohpJAD4PS7GL/RTFbp6sJMtdHsW6lChDoIuklSEJEE7l+jveeI8Vg2DnwpkoQLAqOk6QIiByYu+6666ztRZNxJq0FFg3PuFvMvrWsSCMPUSqCV5qYOrV1kUsAQJTPY9XSZFM0c7XzfZU36uaDy6FlZXhyahhGaQo/HoABqNhuN0uZLgYbJU+QDie2+F0T+aTYYoqCBkNDhSlTANq6w6hqKhQVJd8+umnhbme7hlmdchaHKqQ4VhRgFDocj3LGh3Wa+wAAu9tqWvATGaPaAYauo+iqa0VeZofC2bORG9XJ97a+BbmzqvCE089IVKGKcw5f6jRMVKeacAMBKWbjuCE1gLOM0bF053A62hp4Lxgvj3v+dGPfoSFCxcK8EMgwWv4jxoaLSZn60g3SDGd9NOTyWJQa1pYLQgEgosWL4HL60Vnfy+GolEMRSPIzcjCtPx8sSkbt7ATQYtJmc5QxuixHvz+pQ248dYPI9cTR2v7MLbvqsW11y6GL+FC3GPubFO/cwde3boHk4rKMX3BbPj1KPbv2In2rg5kFJTj+itXCffQmTqOF6TIPpxooaR0sxhId6dQ0lkECBwAGYsgAYI8J9G2akHgomxpbRWMJEMpzjLeRCWzoulyorm5JyoUjqctyt9knITUTtTa4VLQqylUEkzJzUeE5s0trw1DpGIyKFMV3GyX9OLv/E0eEiAwBkFOfpkDbafZqMCNgI2HXR0EabmwszzIBakGKQ7EwmjqaBNCY86UacjyjtRYP954RmMxUSHxopUr4NK4/fB4o2/3+6jorNQF0k/v9/sQDkfg8/vQ19OH/MIC9PX0IhQOoaCwCMGAT1RkHBoeRkZGJgryuWdCRFQedGkaenp7kJmZja6uTmQEM1BYVISeni689PKruOXmm8Q7czvrgWMD4Pu0tnZgSvl0TJlSDM0FESNSUJiP3ByzUJIMqJLjzXPqemG/6Xtl1g6zOWTtCGtcjyyUJH3rnB+cJ0wPnc3CWUlLTiSWgNfQ4PK5EE9E8frG9YhGosgOZgkgwgweCRQIOijwGfxKvz3dSMwQYV/pSqCVgf1jETECAl7DFGQW42GGCU35nJP8J3d3lGWBJzKyJ3uPXR0E6xrlM/jecgxUYDxeWpy0/qhBinI8JW+Q60W+C6+l1UWmD9KCsGD5MjFHj3b3YNq0qRiORLFh1zZcUbkA4aNH8NAjD+PiVZfh3Z17kJOXj1WL5uHJ//sterRC3HjbXVhVlYsXX9qNuJGN2bNcePLh3+HyG27D1ZctR19dPX7/5lboiSDiGWGUZ2eiIq8YNc01mL/mGiyeWSrm+YnyxYmOjQoQrDyOtFHjn+Rujuo5q0WT816t+SL5n3Snsp9SQbIrCifXz0Tf51Ted8G6GKxAwKrtkIgcyHqRxbAI/bEYjvT1IJiZhfauo5hZVIrCYAZC0Qi3+xGLVZZ/lQFYMniFmiuFIc2fUsBygkiGqQZecbHKYCwyNllZjKViZUSrzC3mROF3uYMY+0xGR58rGSEP/s73oN+QZn0yY36yVCkZJhc7g4/oRiEDYKoe+8pALbbB+5mmSTPtG2+8IXa6e+SRRwQzZfAa72G9deb+E0zxWXwvBneSAZMZM/VSZmCwfzJI0crMrJXBVLObXERWC4I0h1oXpBV58z4ZpEi61vb0oKKoFP2xEBpam7F8yky0Ndehrb0TZRUL4U4cQ0PDIVQtXoGGuhr4vX5EtRAWVq/Fgz95BFWVWZhbeRl6O2pQUFSE1raD8AfKsGRFtRl9n4hj774adBypx5xZKxEaOoyWtm4sXHox2g7uwpFQAhctW45De7YgkFOBRUtmQYsM44XnX8WcBbNwqK4Hs2fl4tf3P4Jrv/xF7Hr0dUydX4iGpgSuXFOM7fuaUFY2GRu2teEz912DtpptKJizBIFjTXjgZ7/E4svvQ39PA7L0KBZfeRNatz+H4IzLURFsw+sv/wGzV96IHU++ghmXrUFFSSG2H2jG7R+9HpluDXV19cjNy0ZBQWGq1LIKFq0MTwKEn//856JIlLQgqP5SCRg5b6QlQ5pRT2WhpFPJ/M5GW2olRfl8O1+3nQXBGoNg52JQMxSsFjc5xqqGy7GysyAsWbYUHo8PdW1tiPu96OzuRXywHxfPqcL/PfwoLr32BvR3dOLFF56Bv6gcXlcOrrpkKl7bWI+88jm4cW0uHvrNDhTOqEBVQQibNryFWPZk/MmXPomh+j146rUaILMcS2aG8dr6PVix6nIcrduC+WtvxqKZspz9mRmhsSopqhY5SUvGanCOqzxdWkKlUpaO60cGysviY1aZIhW00+WSTJeyFyxAkAQYy8WQ0IBwNIK6mlosrK5GbVuLqDNekpeHgx1tOHa0CxW5Bfj1Qw8hoemi6h7NsRSkZJAUgrJGPM2f/I3nqdEwAIxWCAptliG99tprRXeIPlmxj4NOLYx1y6mRsUgPK/XRt8rJRn8qS4xSwDLFjqmV/KSApimVplVGdhOYfP3rXxfPohmVmhUnL6uTscofJx0BACO7xR7v+fnCvErAwHv5Dpyg1NZ4sL9Mx2TEN4U/Tbn04/I9aR2hAOb7U5vkc9hP1gJgm+yXBDCyepoqxO1iEOxcBXz/423WxGfY+fN4XhZK4ve9HR2YXFaGnoFe1O2rwUXzF+Cn9/8G1QunYPveQUyeFEB5PnC4JxMdXU1AtBtTppZh1SU34Q9PvYi5pQnsas1AMM+DFbNLse7V15GRlY3PfPYzKCvJQSKi40f3P4aqBW4c3NeL6uoKPP/mG8gvuxgZ8SEE8pjOWgnXsYNoHxjE7ffchfLiADY+/xyODsQwdc5CxPr2obvVh0Z3BvoOdqGq0oPDgzmYV5iBeSsuwexy4B+//VMci7ZACw/i41/6MgYP7UBtTzfe3efDzFleBOIGVt/8IRza9BzWXvYhPP67H3CbUuTMWIaunbvRExnGx+/9FJ59aT3uvPd2lATdaDjUjILSTOTmFItA0bHST+Ua4piQMVoBAsdXMrCx0hxlppBTKMmkpp2LQWbhqBHrBOHqOiAfswtSJP3Hi5a3W2fWOgiy1DKfQ6Vi8ZJFCPgDCCV0HKivQ3g4gjmzZ6DQH8Djv38chjcDpfkFqG9sxLQ5c9Ha1A4DXWhpjyC3sBQ5mcdwqCmAOfPmIVs/DPgSaOsK41P33om6bRvxyFNbMW3ucnzkhun4/v2/xJorPoDelv2oXn0dqmaYGz+dqYMAgeuAPNlaSVFaEGRf7GIQ7LIRVAuCHc9Sg7Rl23auiTNFg7Ge874ACHZZDNyKORyLou5gLRYtqsZgNIYGmqRh4GhbK+ZVTCeCwOZNm1BSZtbkZ9EiFs6hBs+4BVk6lJo4Fxw1cApn+ml/9atfie8U3gQJPKhtMwKbApsCnOZUBk6RERAA/OY3vxHPIHOg9k5foAQMrNZIbZ7aOq0A1NQJRCicV69eLTYxoaZGPzIFPAU366Qz8pxCnpYBBnvxdwp7tk3/razZQHBA0EGrA9+PIOK2224TUeUsEMVFxMhyVn+kNYGMjkyFIIbMn1YLHjxH68J4MQhkROkABDtNyi7oisyV70crDhd551AI9W3NGOjpxazJ5ZhcUoof/mQ7brulGA//+lUUl5ZiflUQG3dHUVCYAy3cihkzy1FQNBMbNr6NRdO9eGl7HItXVWOqNoj1G3Zg4aoluPjiJcjw6UhEDfz6V29i4YosbHy5HS5XC/yFMdQ3lGLWwhyUuj04MuBDYV4ENTWNuOOej2JqWT66Du3AQ4+8gtvuvRMvPfUgcrPmoL67H8PxSVg224W+4SgmF5ZiaFjHgqUz8PsntuPTn7kCh3dsRG7FdLz5zHNwlWRh8+vtWH3dcrj6j2HZ5Wuxf8dmXHb1bQj1HsShnVsQzS7HtMJ8vL15O6o5l7bvwV2fuAOFARcaDzWhoDRLAIR0C/IQIDAGQVoQ7Eot0ywu6/lLpshPp5LiCPuli0Fu1qSCK9WUrbrkjmfZGSsGQQVuduvMCkh4jRqkSF5QvXghgv6AiCKMMfAwkYDL64Hb0BEaHEZzeweK8vLROzAMtxZHfk4hjvS3IDNYhIDXjb6BTngyypGTEYQr2ofW3k7k5U5GaUkehrrb0dEVRVZ+MSYVudHfG4KLAZDRQXgzC5HhO7NiUboYGN+i7vuhZpccDyDYBU2THx0PuNnFYDkA4cyOe2prUatAEaYj1jQQaY61WFRdLdJvemNR1DQ2oDQzC9NKy9DR0S4EOgUzAYJMUaLApJ+UTJK+Twp5luXlJ88zSpoaPUuSMmWLQpfP7O3twZNPPiU0dgpvMgqiVk5EauR8ljT7U7snAKBlgYKf5znhmKv+1ltvCcFN5rF8+XIBJuiPZTXAz33uc2LPBsYAUIjzPFO/6CagW4HvwGpn9M3yHwU8/bWcnNw/4IUXXhDPooBn3XOmilGIEFiQidASQUFAawaFMRcXU85kUBGBCwGC3WZNdpqq6pcjPXmoKD6dNEeZtkWrCGlttgkMRSKIRaPI5yY0mob1O+uxaEY+ana1QnMPYevO7Vh99Z3QE33wJgaRnetFRlYBnn12PYxID1ZceRcCgSFMyXTjD394FqGEG9deexU0PYZwWMOPH3wepZN57iY0HHobRzt7MWfWYmxe/zxq2vrx6S//Geo3vYGi8plYe81qBBmoHe/H5i2HMHf+VLTUHxabR+3etQdNQwFcvXwONm94CZOmTkPN7gNo6RlA3qTFuOW6BQi11SLuC+JY9xBmLZqDTevewaTKSmRrIezZexC6Nox4xnRcv2YBwj3N6B7WsXH9JgSCRSibNRn1jZ247ZYr4NVcqK0/hJLiQmRn56e13bMapEiAQEZqZ8Wx7uYoXQzSonSmfMpnmM2c0OMI3qkQcO2pFho1157nT6UFwc5lpAovjotqQRBpjosXmwBBY8mxZCaQiMdh8jAP7tTKYmQuc8dbBiwiCs2gdFdrGYx8N9MgeTAHgo5bfnqgGa6ROiX24TsnROMTvVgChHQsCHIvBhW42bl+rBaEsQolWbfvVnnk2XYvkI4XrAWBA0JBJk1zKuFFDICmIRQOo6W1DUsXLxYAQQS6J8xcXZ1lyPUEjGgUmsst2uHkYDsU7LLAj/Q7yfrkFLgyhoDaNhc+dzGjsKdgpgmfWhbvZx/5XWoMMqCS99ECQSFLLZ6uCVoCJJDge8l3Y2oSn8d7ZSCWTOvkJ//xGrZBdMxPHgQ9kiYytkJaE+Q70pzG45lnnhFuEul75vWyD3SL0NUgJzr7QPBAoCSZkIwHUQvBSB+ctZKYjOxV/aWS1uyLzMFX/d/SV0jww1gOESyqFHdL1W0zEgIoJOCGW9fFYMfhFcFzIsPKHRXZ2NC9gCuCBPxwGyHoGivKGXDpBo52NKL+UDNiRgDIKMalS2ch4WXPwtAQQCw8iLpduzHsC2L+wiXwe3S4DCUdTEuIKp6aNgwjkQHNHYchksIScCWYA25WdGKUuFsUl2EtfIA/iXIyrPiUDJwUlQ20CDTdj2i4Azvre7B47nz4fHwfk2nzlsOdrfAEy1GWEwV0H/Y370O+Pw9ZOTmjXAySjqrJVJ6TFgRax+QOpOr4SouBdTc8tkUGLC1Mdq6IE2Xo5/P1BO2kG92SPGQMgJzbavyGul6EaKYW73IJfiEDG8UUSO42KNtS43XkOTVrQbqV5LNUQMJztMQtu2glMgi0GW6TTAAy64mM5AwzbZFTURdXeOGmwNc9Yl1x9nJNMQ8yrmnwCNBgFkLQGfhn7v0NnVUaDaY/shKCOdfPRh0E8kUCBGsdAglq5adqcZO8n7+pPEqmXavjYHVDqHEnvF+NQZD3ka+rytLZmPcXLECQxBwrBkGeP911EKRwlIvbGqhnN+gS1Fj9i2djghzvmSqDkQJ9LBfDeDEIbEtW3lOzQezKZMsCS7JvMiiIMRO0zqi+2zNFMztanKlnn8hzyJjoSqIri4BVRsuPF6SopjmSkaqMUgohGZQrBZ8EgfVi++9KhA0drX3d6OfWwv4gphcVwuMiOCJEknooxY0LPb1DyM/JhEdUy6bU0DHY1YZYfjlcXe3ILMxCW3MHgpOnIdHVh/ojTSjKm4Kpsyejv7EWDe1HkQhOx4L5pQhGOnF0MBMVxT40NjYho3wmuvYdRLcxiMo5i1HsGcQz63djxZplCAx3oSOSgbxj3WgOxWEEC9Hf34q1a1chk7BNd4tMkIkeqgVBdTGwPVWrT2dcuDYoTI6XTmzH/+y0WWup5aWLquEJBsQmdppuQHcROptQWxOVEzURm0WxzrEzBbsJDARoEZOA9Q4EtOZON0mrQbIgkrA+uMXQxjTAqydBcKrqKTU1N3TNgCtZXSnB74gJK4Wp0MXhMswt5OMa55AJQISCRzWA4Fp0xqzWqIv+841GF2Q60ToIcjdHOc/tshg4JmpMiR0fs0vztromJjrPTtV97wuAYB1Aib7J0GjKZ3Gd03VIwaEyYDFnx8mfO1/NsScSg6COiwRFHJsTdTFIjYgxEoyfkBHHxxtT63icivFPt02769T5oIKNU9Evdb5JYU7XFd1a6UTLk5FJgKDGIFhTwlSAwGdKF0NDXR1mV1ai8Ug7/BlBFGbmYW93B3KjMZRk5OOtdzZBT0SwfNVivPvmZmQWzUcgJw+FvmHs2FeD1ZevQXlBDnZt2QR3ThYONzZi2cXL8cj9v8CkS29GEUtDZ+ejZe9mXH7N1Vj35jpUL12B117chRs/tAqeY03Y3hrEHWun4Lvf+wFmXHUnBttaUFWRibZ+A8smubC7TcfKi6Zi3dOPoivx/7P3JtB1XdeV4P7zxzwPHDBwAsCZ4ChRkjVREilZlmQ5sqUkVtqupFy2u8srXZXl6rXKXVWrq6vT7SRtO+WU4yGJHMuxI1uRLGumxEkTKXEUKXECCBCcQMzjH97Qve/7B7i4eiBAECJlkt9LBvjx3n333eGcfc/Z55zZyOrpRMPaNahf2oitrz+DT226F+VZ2WMTA01hcsRNSQubfEQemQqF1rULmbKnmgeB82K6GMxMih4HgZYzSZ9snOzNk77271HjHX9j6HIMlgIS/h9lR1BuBgIALd0iYaEGEDwXhaPMu0y4SLXvgYJMFkfXgR0gGJEvNFAykoMpY1nT3CAXU6yJlmJaX/UoBj8OwnS4GKawvKb9lmsCIPiRFC+XBWHaZ+wT3uBkLQjjsXjNKAY/X+x4iZII9ggQJgPApjqMFwIfJhgc7xl+133cFgjzmeTG0OXE8dVzvoslx8xJb0Yx+JEUTQ4CBSfbaz52HHUNDcp60D00iMLCIhw81oxZuVmIOTG8+cbbiLgJFFfNx5F927C3aRBLVt6LcM+HgDuMOx7+LBrmlKO7+SC2vbMH4bxyzC7PwvbX3kbTYBCrG2+Akz6DdCKIDTfejeZzrbjp5iV47pcv4OC5NhQMNCG3diPW1wzh+a3voSU1A/k5WVic34uKxtsR7z+EeMUinDmyFc1N7TgzUIUbFxbhRMcJrF+/EX2dTahuvAE1xUWKpHcpJgQ/C4IfQPAjj45HztWV/WRIvaYFgXNkkhRJ3I5Hs0Dl3T7Yj0gghJKcXARHsh3agBNSvjlmR/TykHmWHmpsxw2jd9hGYXYmzbK6JuBZH+giUbwGz13huRx48qd1IOK5GyQ1szpMcSeRnxSh/UCBiJCbhhuIKOsGv1DJmlmhl9YI1Q0LHX29KCooQYB+YzBzIxGGjc4eC1nxMLLjnoVB5yDo1ke/6BK/KIapkBQFPE8UCj5VOTVd913VAEFOS34AgQMomRSvp1qeruXk5WmQVLgXyhKmKyLxwekkRbGgmClnhf3r1zafK6W3xfTKjSjsYFGS3JTkZXCziy9Q+qAravmOo6ML8Y/jhD9dMyDjRqBEACDpc3Vgw2u45mlB8Atz9POXUoEwzJFhuWYmRXGjCUCQPghAUCTF+gZYAaCp46wiAs+M5KOhvhZnzgziyIfNCCe6cfR0CuVlfXh9zzFUV9+Bm+rLcOTAdlStXovbblqOYO8Z/NVf/xiNN9+LM4d3oD0BnG4+g5mL7sU9t1TirR17ccf6G/H69lfxqY2fxjO/eQ93f2YVcvub8e7+blhde3EeuWg93ouiGXOxdm4YQ7mVqMjqh5U7DzcsKEBTy2G8tuMsblo5H+29PQhFC2ClOrBw7Q2YVVCgpQee2oxJNUc/kiLXrB5Lr/NzOH/myd+P9a4rf7mHbUpb/M4vD4Lwl/hWJCkSQEbCUZzt7Uafk8bg8DBKsgtRXZyDgBOGE/QIiQHyB1iYy2O8MAhZmRpSdhjPv/YO7t6wDtmKqGADQXIMPMWuVLadxMH9+zF3wQIcO3oSixpm4IUX38Kn7tuALS+9gf17d+LuDfdjzcr5ePa3z+DDg60om9+Ihz+7AeeOHkR2/gxUl2fh2RefQ+On7sHPfvT3yIqk8ftf/DdAshWvvHEMD3/6Hry981WEC2fhyI53cC6dRu3sBcjKj+P+uz6lwIdZzVH2t19+Cj2hlKwAAQhyn7mnxJqmAzmTgyXzIi5ocw9ObbVd+l1XLUAQkzV/mgCBG03+zlPndYBw6QtJWhCA4FfNkQJwItMc50VQtZA3TX+eyaAXgcfoCSpGPoN+QoZ3yuZnSgEkSgAAIABJREFU/5hwim1RaTInBK8n30EUnCg2PpfXcZ2I4OR3Ug1w+kbr42mJwoXRJgyrnTt3rmLMCxlWnsg1L2XK9fEVwaUDMH4nFgSSFBnFIMpKTOC8Rkqe64KTY9rS2qIAApUCT46J/mGEIwFkxYI4crQLv37uNSxfVovGRXPx7q4dcLIrMXtmLdLdbTjX04N1t96KipyYKuTz4cF3UVC9EP0nmlGzeBHOtn6Asz1ZWLy4BqdPfoiUG4LVN4APm1sQyanGnbctRDAxhLPn0nDTHZi1pAFdTU043RHB6lUzsH//EVTmR/HivhZ8YdNdCLgdONkyjO6uE2jvSWDe0huxc+dreOhzD6AgSHGZ8WtPceokURLzhugcBP5uJlTTT5eiZExgzO91sqgOIgQUCmjQib/mXjSjGBrXrEHCsXDmzDnMqalVFTh3HjyOm+pmY+erO9Fjn0dh4QLE7H6c6+3HnPqFOLzvPWTHAnCz8nDjrZ/GL//+Rygq4T6sw9kzbWhYMBfNh/cjnl+GW++8C3kxYMeW3yA/vxCnznRhwdx8/PKpLbjh/sfRdeY8liwsxrtvfIjGRXU4cq4NjUtW4Kc/fxqrVtXiwwMHsPZTn8HsWDue/NXLWHrXHyHRcRwz462w8xsxdO59lNbegqhzFG9sfRc51avQ8cYW1Ny9CRtWL8NzW57DIw88gkg4pCLRKBvMao5yKNDdf2YUgz4v+qHG5BJMJopBLBZCOtXnaIrL7ZJvu2oBgozMhQACFc31ao6XvIbGNHAxHAQduAlgmyhRkp8JXHyxPKnSgqCEbTQPDXNr0HHuFCpmzkb3QAJO2ivVyj7SjyjmQgpd5oRgpAiFLcNf4dqIR+Po6R9CXl4uOtpPoX9geKTy3vSO2vS2RsHGlMQkbXIsCBAYwqoDAUZ70IIwmTwIfhwE07Ij0Qm0WuiKiPN1XFkQ6kdfUvNXq4iYZAr5eXnTktZ6ciT40avUqc91VTQT61OMxsF71zDlNd+1rLxsWsj1dDFQ8RO46eCKg2MmSiLH40Lk0alyEPyUFRUf9wTHQyVKalyBcDSGo21tcLOzcfZ8J+yeM1i7YA3++w+34MGHy/HU332AqsYqrJtbihd3tCGa1Yvh/g4sXDof1fNvxYF392JNg42//0UTau5oxNzhs3ji5/+E3NJK/Ls/+19RO7MQJ9/fiZff3I/6RcvQcmAHzvQNoT9Uh0ikH+2HjuK2Bx9EZWE+4rnZWLK4Bv/4dy9j/twcfHDwLSxftxHH3nsW57pjaB8uw+lTRzEjCHzlv/wpDm37J9Ssugev/vgvcKipGfn19+GPH7wBB44dxJoFn8a+c1uw6bZPIyseUzKDpFCSbydyMXCcCLYvdNDxs+z4hQWLZUcH1J8EUKBLo2sSIOgkxY87imF6Rf8nv7VPCkAIx/NQV1uNrvNnUVxagc7+QWRFmbwkqEJOGe0giVBoNqSAYH4LFW5kW3AdG/29/RhOOaisKEMsAhxvblXK4pPuYmD/mBOCFgSCA1pSaDXRw66mChDoYpA8CH6ZFP0AQnNTE+oIEMZWAh5ZzHLyuhKrW+ZyItLwdPVtssWaJgPcpgsgcAzMao6NK5YjGo1jyLJxrK0Vw0NJzKmZgZJILn78s23YtGk2nnlyL8IFaeQxfLisASG3C85AArULylFYXo+Xn9uM4vxepAPzMGPpPFQFevHq61sxp2EJbrvjU8iPB5HsPIX//vdP4d77H8Dbm5/BrHn12PbmEcyrW4GNN8/B62/sRP38Odi9dw/yC8pwtHUIX//qI9j35mYgVITDB3dgzvzF+O3mt7Fm9a2YmZPAQCyEWF8LShbdidXVuXjvwC40deQgK9WOc90d2HDz57D94BZ8/v4HEImEVVQPx/s6QPjoKr8mAYKYcrgorgOE6RJ9XjuXAhAo8AjeLpRq2c8i5GdByMsvRnFhHoYy2R77h5IIh7x4Y54AOPe0GlDZifVCCHs8ysZiEbi2g/6hFPJysmGlBnG+s+cTDQ44/qLwCIKorMW1IP5oUYRTBQhmoiTdTC5RDGMsCI6LlqYmVaxp5DOlAljTu07N1nTQ93GCBVoQaBlgFINuQeDzdR/1lQYIK5YvRUwlSgqCPECJDAy5Nnr6QyjIS2CgO4RIVgJDPUmEykoRTdKNE0E4dxihcBA9XUNIpJMoKqlUFrmsYBDdvd1IOQEUlRYhyjwKjo2BYRsR5i5JDSKSlYPkcCdSgRLkxgZh9wcRDEeRsHsxmLCA7FLk5wCx1BAsJxcpO4Hc7LgqbIZgNnJiKfQmbTgdTXj6zSb80YMbYIdcpNJRuIkBOMEQDh06jNM9/Xho4+3KakUXA91jkwEIPEzQfXndgjAN+/FKlnsWljxfQ4+bF2UgviO6GCgsr3+mZwQIEEgW9OMgmJkUOUd6Bjk5nUt4FwWoJB25ULiXAD5Jg+0lLfHeh1XovV/HYmG9vY+8eaZGPZO52Iio0CrGXzuX6H+enhG+9Fa4B5gqnABC8lOY46sT5HQOggAEk5jFOeBcSQ4LAST8vu1EC+qYijsTMXcRlbcv/WUvsYXptm7QgsCxldolMk7spp7MSNY9vxfLjx9JUecuCNFNLDtiIRPCm3AShAjJdulmI2Bh+B6taryX7qnlK1cgO5NqecQhk8l14PEwvFBCJ5BE0I15mRCtTF6vADNZkG3C7AfMtMiIBYn+8LIvemvAy0vg7VLvw93Kfce8BkH+L3OJo7IuecmUvKttlWSJrBb1BDvgJTpzvBwJAacf5/pslOTnIRTkPSPp0tA70INgOBf5WV7gJQEC+UXkIJgVF5Xk0BJRkYujg26ds6NzPkxXgeli0AmQOqlX55iYoZKXuJSndPs1YUG4UB6E6xyEKa2bcW+Scs9mLQaT2esX5shNNBkLgjmf4vMjMKG5UG1OpYy8pClMxuIBhdGj64SmZRV/7QEETwilYVMK/o5/RNmQpEhBZ3IJBECbJEWaoH/yk5+MRDGY4XScN7pp9NLfYhFqaW5WRXsoohk2l0ynkBOKjvG5jzesQiDVgSSv9QsNnO6pkbHwS27mJ+An83xxMdD1cyEOgl90iZnSVxIliWLi83VFxO/9on7E4sa/Mz07M7YyfTvrtTDDI+u0LF+xElkxpuTUkhsaSYxGss8KglBJj1jKWxIUjR0R7zJP43shj4LbM9+peEZaFZhR1NuvgUAacCOj/dCsGd5utL3MqCO5EIgjMhETmaTOYYU+GI7JJE0evGA+VSGcigVBAIL02i+KwS/M0ZyXiaJLVK9tW83NeOW7pxuYTmZt+l1zTQAEiaU3TXrcYNcBwlSXjv99ZANTUZsAwcykOBmAwE2iZyATQfiRPAhpG4FgAIePNeNY62lYCCOsYqMV/s+cPJToGem0Sqk8cmbxfxfvTi/BLAWbDjCmd9Q+7ta8WHOVa86xkBVK4dYbG5ETz/NNlGQCMAoznpx0gOAXfsq514s1sR3e23qiFQvqFmAo4KKtuwOJwWFEQlHMrahETA2yq4TlmXNnVUVSmWf+pEWKhcc2bdo0kkCL64KKlvcwhXNHR4dK/0y3CuuhMDKJp2HubfaBIXsEPORl8F5mkWQUC4Uz34suLSoJfk/lKPfw+axhwmJr/J3vR6B0+jQJjaUKELHImk4unGgmJYpBJyn6xdv75TMw54VzwHfm+PBd5DQraX8lbJLvrAMsISnye1aUJfeGY8XkWRw/tvu53/scslTK8tHU3sosp5S4l2TZO/vLLpKfNoIECCPAQgABvxJ1YwLt0dRKI3BkxGyRyXAkW3lMLmbvorHEVI90ytwMBCDKsqFSltPa4VklvM9ojYgLuRh4pe76ma48CALcrudBePTRifbMx/p3UTK6X/s6SfHjG3Ip5MRy0ROlgPVLeMS5udhMinaaKWdD2H+kGQdOnEc6WoA0Y64/8rmEHLkf35B97C0HXRuBgA0rEEbYTaPQ7sOmG5ep8uaTtSAIQJBMin4mUzOTolgQjp9oQf2CBWjpaFex8NUFJdh99hSKQ2FUl5bgwIH9Sinzfp5mqbwptCk8WcKbSvv+++9X5nAW42J4KguM0U3CSqZPP/20itIgMFi9ejW+/e1vq+yobIMnYq4n7n+a0akAWeuESpFghmGxtHqwSBkLnbFuCvM80M9MkEGLFBUnv2cbDB+l9YUF2XjqZhEzRr9M9iOJkibKpOg3L36WM7oDOB433XST6oJfCDABCMdAgAzBh1hF+N50d/C9br/9djUuHMf162/IuIs8RwCVsNpRGW2sl2Oa7LtfyetMjol+Qr9QJsXJAISpWhDYhwvlirmS4yXPvqotCJwAAQgS766wIwv1ZBIlkaQohWQ+CRPyu94HAgRWqqSgvxBA4ByIz1o273guBr0dXQh6FiEXVjqJSCiIM139eH3PUQyFC2D5AARmWrtWP3Yml340PYi5eSHc3rgYiIbUKXiymRRpQSBAIJnLDyCwrfGiGJhqubWnAz0Dg5hZVIq9H36oEg/lRaPYvWc3Fi9ajNc2b1YVQgkCWJGUVUxZrZSnXCpUggL+myd5Knr2g+XOWUyMSo9cIq4rVlYlsOC6YWVSXsM1SUsAQ/loFRBTP60GVLC8n4CDSYIY8cFrSUjj/SyvzhBaKlUCD+kXSa68h1Eik/1IoiQdIAhXYLxaDOIq8LMgsLASAc+GDRtGyLayX3QeiJ62WUzg7LPUL+H7cez57gQLKxYvQSQ7C2m4aO/qQjgaRUlu3ki65MmFk052VKb3OgJNjqm+FhW2yVStJCDUrT46QPA7SOrX6iTF8ebFtJb6AbcLZVK8GIvU9I7cR1u7agGC+A/FlK1nEhPfEieJZsfrn+kbAQofClUpTy0bk2OtE3dM3yg3GzcW502IQkJSlPh9ARK6oKSgStsWIgEHAZYybmvHB82n0e16scpemLtHhszUkxth+uthfyOImaZ4YThmvtR9vH7kRt0kLu+rXzfias20q67XzbOuOybeXSdFKZNuBuiKyViep/dfWPACfvX3oa014KQQt9IoDDtYvXg+iguzYQciI5kURSjp+0XegXNHU78OEOQUyueIoNRTLcv+49i30oLQsFDRPJs7zuHYqZMoQQxLFtShu7Md7+x6F8sWL8Wrr72KefPnq5M7T8Y059M9sHXrVnVKlyJRnH8KfypZnpx37typSpN/7WtfU2XWGdfOEE+ehgn+aQ2gEqVbgAWqqOBZ+pzf8z4eEmi1IOih6Z8KhNfxHfhM+qZpjaAlQywYkqaapdb5nMl+aEHgeiao0MeX94sbQMCzADchFfqdVAmEaBlhGXghKYqLweQgyBybLg22LwnB+M4c+zWNKxGIR9He26vKpg8lEijOy8GMohKEHCDtWGq/sSqu9EsHOvIMOamr8GHLGnGFcMw5bnTXkI/B+aI1h+/MMeLccmw5tyxZz/niuHH833//fTWv27Ztw5o1a9T88T/OHS1KtIowOontcs7Y1pYtW9TfuQ5oKeFakA8BAsEtLUd67gm+g+wr2XPcB5x7vXqj/l4CyvhTT2AlgFqfcyGPytyL1Uj6xTHTQeNk19h0XnfVAgQZJE6wacoWIcoFwAUkC3s6B/ZabYvjLQBBP/n7VXOUstQyVuKz1lG8WQXND41bLD5DpjJ1qeOif6Af7V3dykTq6Vdakmg5klCyjOXBspRrQgnmjGXJdhyEQ54P1QMoTCKLke8Uvcm2EA6F4YwodjeTWZCsaM+fatsELKNCn89XQiLsMafJmXBsB47rIBQKj4AYIZCxX+rDKpcsRpS5j1/pSpwCWnG6bb4LLSQkdnne3rQSyGFYyh4cRshKory4ANF4LONLDkw6UZJZi8GPgzBesaZjzcewsK7Bcwgz5p4Wn2AQcfYtncb+A+/DsV0UFBWoE/7hw4fVTwIFnvwpkDmHtBzQHE5FwnUxb948pQgotBnBQqsVf3L9URGwz7QQiDKi6Zxjw+/YPpURlQ+BAhUGT/dsj9YJ+uSpLGiNYMl1riU+l3wHAhcqHwIX/u1iSvKKBYHKSj5+hMvJFtGiMidAYBl5v73h52IVDoIuI/VMikyU1Lh8JfrtFM50daCqqgaJRBL7D7yHlQ2LcfTAQbz48ssoLS/HjMpKHDt6VLlcaOFh2+zL66+/rhQuLRIEH5y3l156CQ8//LBy0VDxcy4IEO655x688MILSvHTikGlz/tvvfVWZc2gBYhci2eeeUZZdmhRosWEriU+l2uRUVOvvPIKHnnkEfzLv/yLckmxP1xLXBe85/HHH1duKq4juqR0gMA2TJKiHzfEL8xRV/Rs04+k6Gdx06PrPJlBV+BoRk1v+48eHq6ETrkmAIIf6YrS27Zs7NmzGzbzhLMKWDCMIOuXW55S0D8UAoLs9dOhnPbUJld8HqHuZMgyk6jceCUmfqrPFMDFMaLQNM1hXOSTBQh+PlXefyGA4Cfw7FQKgXAEDF2QoCky5aOR6KgQZs54e6zPz9zI8m6mOdavT2alPfNd/IS++Tw/lrSfudnPr0wFokcMiIVG1iZffEyhKwIk14btEgB5WfM5Vn7FmvxOqmJB0Gsx6ImS2J+2tjalOMWyQWVKRRuPx7Bi5UoPvIy6sUeC2z5CeJuCUJysIPW7brx7OQ5U6JJoSt8zBAkEIBdjPeD9VIJ0TdBVwvnjfHFsqbhI0JTPZEmKtCAQDI0HEPzIwCZA4DV6JkW6WZYsb0QoGkbT6VMIZsfQea4Dyb5uLKtfhB9+/2+UAv7V079WfS8rLVNgjuPIn1TKBAW0wnAMee0vf/lL1UeCqm984xvKykPrDS0069evV3U+CNa4rwgsyB0hn4Rriid+ckG++93vKvDANUUgxza4fmkhoIWHIIQAgmPCOXv22WeVtej3fu/3FLjj74zU4P333XffiAWHFgS2w7k0MylyPvRT/FSrOfoBBI7NdZLiFSYp+qFqJZhVwS8Xu/e8B8ex4ATCmDFjFnLiYbVQxbzERU+Bx8XDRUShJx9+L6hPmaCCrjoJRUNRdaLzhKHE4U9VJX+y7uN70hxIQTd//vwREpgoJo6tH0CYLOlqMgDBD/CZYXB+YXhiLpQRnSxAEDCk36ef6MWcbp7yeb0OoPz6xPHS7xMLgm6e9HtftjWaFtg7fZjmSNP6MlW2PJ9vAgRTyfBkRS4AT4ica55CeWJXCZmysrBYK6n+ux8sOvU9ScDB0zPHjwqQJ2YqQY4XrRGyj8y54xozT6qURwcOHFAWBJ6oRdbpwM2PLW+uFbb90XLPK5AViWLItXHwZBNSg8NYWj1HzeX3vvc9ZTUhb4Gnbip5WmXECkEXAX9nJBMV92c+8xn84he/GLEkfP7zn1cm/b/8y7/EH/7hHyp5wrao6H/+85/jW9/6llLuHB+6EQgGaIkgiHnooYfwxBNPqN9pPdi8ebP6O59Bi8Itt9yixpJAlpYCWhPYP4ICvietEbyXP+UzXhSDH8j3syCYgFpyWOh732/Mzfn0259TX2nTc+dVa0EY9YF6Lga9AJAABNtysHfvHlWy1HZDKCkpQ2FeltoscjojOqd/khuC31MI83e2KSBC2iZAsCzG8QZUEZDOjg4MDQ+NyTA7PdN25VqhAKPZl8QtjiOROpWAhLdx3AmmeAKQDaL7RqXnIvAkPEuEm3AQ1Ak3kyhJV6BsUzagtCU+Wt0nL0pV+AS6gBXQJ+3op27Z7HIf2+HvutAV5ahbkvT7PJeGZxrU2/Yz7fI+sU7p/kuzT7ryZ9t+7hmdnGaCFumTCCVdEcn6lfGTfsoYsI983t/+7d+C0SncD+IyknmiQqAwpwWBZn5yBugnpmDPLSzAyuUrLrKWQSbgfUww3ZVb99P1ZAJrCb+UWhncLzzFkkegRxpcqFiTzC8PM1TOEsUwhp+TWYf6SVX2oqxNmWOe+LmH+W+6XRtXNiIeialSyikGNdoOwkHPPfbOO+8oMEgFTp4AD01inuc6ZR+odLkeuVb4H9tnX4XjwefQAkDXDuUqryXg5SmflgCCHo4F7+N1lCe8huuKMpnvREuD1F5hO/ye99C1wEMKCaX8jh8ZJ0ae0L1AUCF7gNYJPkc4CH5yhd+xz3otBuEliPKXf/P99dwZIrN0WadbD812hGuky5zpWn8X285VCxBkQsVsbJJPaENgPo3du9+D69qw3KACCPk5MSUMOWk0oQuqk0VAgcdFRwRMBUM/KP1o9Fv29PcgMZxCVjSO8rIynD17Buc7zitf9dXy4XjyxEOAQN8tNyEFlCgwsSDo3/HdTVO2uGvEpMd2hYMg2fj0udM3rem74zyYhB4zVa2AOTOyQr9Pnqe7DwQI6n3SAYIIWJ2EJO/i1yc9YsDvdKdbEPS2dT83r+H76TkH/E4tfmPAcRyPLc+/mfMiwI37gYKU4JDvpUc/yAmU5mMCBJp46RMmoYzjnZ2Tg5UrGr0p5F5QVRE/3o8AtMk+ZaLr5e8TXTfR8wgKaFmhMqSiJbCi0qSiu/POO0eUlsydtKcrGZFtAkoJ0GVdmZaH8VwMugITFwNlGz/KxbBiCbKj8dHXUaxaLwqIz+XpXMh6E73z5f67H6iXPvhZ2swoBp1IaO4XWhC474SkKEBNB3N+UQzmvIis010apkXzco+b3/OueoAgAk4XsNwQCiBYruIgpG36sOMoK6tAbjysNq2gbm4EbhwuAKJHUTAUkAIg+JNtpuwUkokUggghPzcXg4P96OruvuosCCQM0Y8qseT6whoPIEwUby8bzXQxmL4782QsAssk95jP8wMIfi4G0zpgbmRR/ia693ue2SfzZDERQDAVgS7kTBeD2Tav9XMxmAJvMr5uP16E2TYFJ83CdDHwNHbo0CEFnHmy5Aly2dJlqvtp2OhLDqMoOhpqNjqnJGZmwAOzWGYS4qlo1ov4sD2Orel2uogmPnKpgDXdsjOV9ggQSLyjkqFJnUCK4IAkOprepX2/dW+Srf0UymTvM11kZrGmpSuWqVoMHu1VPhc5EVMZoCtwz4XyIJh7eDKJkvzmxY/34ede5Jo1eV1XYEjGzPjHdry9krUYRLiKoDTjW3mqJ1+AFgTbsVS6zmAgBNhJhQ7FbK23oxMSdfPyiNAIks0OhNgOQ+sUYy5wVVkQ9DHQzegiQDluVQxz1KwKAtJ0pSqK1iTpTIWDMJ6g1J83WQuCCRAmsiDI+vALYzKV8UQgidf7cRBMxSAmf52k6GdBmAxAMK0MfidOPwuN+S7sN60LdDmJgKPSoTKMZ2dj7erVSLsO2jrb0d7fg4pQNqpmzVIsnddf24LmlhP48pcfRzAQ9rL3ucDzz2/HTbesQkFBtkZtnFhcDg4OYPPm17Fx4z3jRhicO3sObadPobSkBFVV1Rga7EdHZxdycnLR1taqChTFY3FlJQwGA+qUn5Obo/p1KSCBAIEWSJq55RTPAwnN7PSVy2eyxZp0heK3p/yscH6uLh0g0ILA/A5RkpDVAh+DEkb6eKnWlIln8vJccTGJkkwOgh/I99sv5phzD/Pe8VItX543n/gp14wFQZ8IRT6hELIslaQlpXL1O15BkYv0lE48xNfGFQ6rvrGgip1C1cxazJw9B+GIhz1FcOnFR8YDCJwbPQ+CH1nLJAX5AQQ5GfP5FOi6z08Em59S9VN8flaNC4EdOcHqAMHP8qAsWT4kRfMU4SdcJmNBME+T44GkyQA3jqHumtD7JO+r90msAny/lqYW1NXX4VjHOQSiEczKKcbu86cwyw6jMN6H//1f/zes+qPfR3lkGFk5BcjJKcSZs+14d88p1Nflom7hOsydmcKu7fuRM2shVq2ZhxiAgYFebH9tO4rKapBXVo6+c62oqCrD3m0vYd+xEB7Y1IiTne1YsXQdjh45gFRiGGtvvhMlBWG8+tvdSLASYetR1N3waQwdfw1P7zyKP37scbQc3Ioj5yxUVtfhXNsp1M4tx7q1a1BakIOAnnp4CltbEjSZeRDkpCprUwcIAr4ns+79LAg6L0FAqFk4TQ9zJEBYQYDA8FIpp6TVW6CInEomRT9A4ee6kfeVvasf0uS76QQnOkAwXdGmBcEECDKe3EPjyRU/WecHEPidWL14zyfBknDVAgRBdvJTn0AFEByPSLZr7wEMWR44CMKCzRPM9c9FjQDHjoVQbIRVQp4F1VXe6VBLXOjH4jUFF4Ub50QHCLoiEkVvCko/9q+fSY9t63nqBenrG9FPqbItnSuhv4tuEhZFK/3UBdx4gllcWSIUBezIvUIq0wmIvIb9FF4ErxXhoj9TdzuIEhdFLyZ48ZfqFjFzfNV+yXAX9H7qe4rfSyZFWTxsh/+1nGzFooZFONndia7hQVSUlOL9D4+hJpqLyhlRPPHdp1C6ZDH27tuB/r4gyotn4LFHP4Nf/vPLWL+2Au8eOItHH74NLz39DHafHsA3/+M3UZUbxL6dR9De3ozm8+dwvnsG1q+ZiQ/378XSRSV4YdsJRPp74eQDxRULkRzqQHWFg/LaW3Dn+rnYvK0F9avmo//AVhxp68Pg4BlYVhjz1t6JeVld2N8WRkFxDn79T7/GrOoS/P5jX0BxftZogaGL2iGjF0s1R3J0dF+3qYiEsyPX8Ke5h/zWvd8+89svOgjl/OoAgSTFVatXIxKLqZJGJAyGI1EU5WR7768W2UUZdcaMlg4A9D/I97IfZd2ZFhsh9en7TAi2fA/uC5PUK24yk/jJ5xMg0JVMC47+d92tJH2gpUfnXujKX643Dxm8V76T9/WzPJhzx3e4nihpihttsrf5mdg8gGAjbQOvvrUXXVYEdjCsAhL1gj6Tfca1fp1kfgi6LmLpfjTOn4n5NTMR0vIQmJvGNGXLiVM/rfvN3XiWB/PUPZmQQtMU6HfKp5Llf+ORFOV0Y7om/IS33xj4WRBEWYgg9DsBsi09zHE8F4MQLv2sGuy7H3mUzzNJkbxWQIrfOInbw0y1zMRTJ5qbUF/XAMt10drRjube9x8pAAAgAElEQVRTbciLRLGsdh7c4DB+8oN/worVN+CdPe+hYsZcnDzZhrs33obXtnyAR+6twzPPv4M5s4rQ3taM/Wf78W+/8e8xp8TG++8dRvPxkzg72Isk6rDxzkXY8dKvUTEzH1vfbENpOIk5jQuRV74QfedPo6LoLIaDC3H3zXPwyku7EcmPovNkEwrzC7D38EHMzsnCQPECbFxejIMnY5gxI47D7x9FXcMc5TrJz2Xp70v7MASQc2IWaxIAJq1PhhsynuvHtJYKCJW2/bgwVHzkWqlD065dWLpiBcKxGM739iClMmkOoTgnCxXFJarg8hhbq0+mT1m7XN96ZkeCSIY0MiqBuQkYscA6FwyZ5nO5j5kvgT+ZbpvtMJsmow74oSuEa5Mpphm5wfwKfF+5h5k0GQrJ0EmOId+LY85MjLyXeRB0/oUABI4loxh4ENCBmzkvfmGOfgcds1Sz38HjuovhySfx6BXOgzAeQHDVqSiAHXsOoanHQiKcryre0Ypw/XNxI8DKaY4bRpaTQF66G+uXzsXM8mIEmbwo8/Hzv+u+dT+AwFsnazI1AYL5vEshKX5cAEHeeTryIEyVpDhZX7fpYvAbX8mkKAKWfeI7NjcdQ13dQrUSeCIdSCUQDQDxaBiObeHg+0dQUzsHb7y6FVYwjcLSfJxr70bZzGVYvbgMx1t6UJgbxDtvv4Xs0krUVMxGJJKE7bj44GAzKmbNQGFFLapn5KCv8wR279mPsrLlyIn1YP+HrWhYugZFuYXIyzqHBKpQNSOGYweOYtfedzF38SrU11RhMJ3E7MI49p/oRG1FHL1DWYhGLby++TVVevjW2zZgRkXRJQMEcTFMVKzpUubFPAX7AcyJSIorVqxEwrZxsuMcqqpr0J8YxsH9u7Fq0RJ0njqLrTu2Y+mypfjw4AcoyM8fKR1OgiqTJfFEztBCJiSi4iex+Qtf+IJSwAIIuDaYHIrhs/zJPUzSJqOk+A7MgEjQwkyYYgUhOOAzmOGSWRNp7WAkGSNsGEnGNqjot2/frkIiCRAYWcOQW9bgYHEtEmf1z8WQFPUwR/1wMBGX4DpA8NEpV5qkKBNokrzEdBUMOKogy7a9R9GejsIKxWD7VgG8OIV5rV0dYLpgO41caxjLqktRP2823GBoJK2wKHrT1+0HEISDoAMLU+CZ8zlVkqJ53+W2IFwKQNDrHnCsPskAoanpGBbU13uldplglBlHXSAVcBDNFNCyA0BIlee1lJ8/gFCmVK8F2w0jFGA0fhRWahAt+/ajx40hK78Y9fXVCGfC7wJIA27GRWgHMr+ySHcScOJAMAHHZfptVoWIIDQSX+SdiF1Sle0AnFAQtIZ5pY15La/00nEHL7FK0e8KQGhcthKIRdB05hScSBjtHR2whvrQWLcI//zEz3Dvp+/D+a5ODGZO6CReEgAwPwKV8J//+Z+rHAfMfEjlzqgNkmqZoIjJi7iHmeiIOTMY7snQT37HyCimRGaNHLbDvc+/M6+C5KBhGC2VOi0LTDXNKJkvfelLqsw8wQJzHTCKhp8/+IM/UGG34iJk8iYCj+sAYXJa6qrlIIjwFeFpmt10fzRRIRdX2nbhhr3YX/6dhWb48fxb6lsvjFvlvPc+vMbzhUnObLmGRX+8a3Tyyeh9JKFkEgOrpDperYCx/rZRacSQsZKS4sxCNw2dRkX0THEieQ8WVZGojEztn5GaAZ4pUH+30X57f/MsLaP3jS6sTDFFpqSEkxpSyUl4EhDzooyTnw9OlLHwDWSeTA6CflLl38Qnr/vmRt9tdFz0U5P4Ks3QNzHL62PuRwjk/InJ3XwXnYPANSZ9FFKkvlb82OOm+VdcE2xXxlF8k/JvPsNMlKRfYwJjvz5J+2zHDNn042+wTd1ULCciaVtcDFQC/I7vLe4Zqe45umlGAhW8/eUtv2uCH0yAwLUkFSCFWyDjK2PkZ3GT9SvXjMdBMDN66mtD5kXcWJ6cc9WpXPJqKJLiihWIxeNI2mkcbTqOgaEhLKyZq3Kf0KzP0zn/o2Kn35+/M5uhnNKZOplZImkpYbZD9p2AgIm2mP2RtRe+/vWvq/oM3DdsR/Kq0AVBVxVdBOwTrQjVVVUIhkIqCRKtERw/pnSmq4aggkCDQIHXMkKEYdhSmZPXUS4RZGzcuHFMtAjHUoo10bIwHgdBxpwWCfbJb1/LXjDlisgMkQ+yP8UqIntR7pNn6UTSUal7eX+7agGCTIL4uvXkNzqjXa5TPr9wCEEta4E6lYXDI2ZFRXQhm1sDCEr5h+iV8z4qKVJGQIrMoxDmZOs+XPpm1QLQ5tskqeh+ZcaYr7vhBrUJ1Ltk7lOmcykmlPnO7LeqeJhOIxoZNfknWRM+GBztE4GMkQFMgSwpXqS3zX5rFQnTagwiI5vGFGSi/E3mtKnE2Ue+j5Tm1pWxKOLxmP+mCVxPNKMDBDNRkrkJTVMg+6jzItiWSeyT99OFi4BCmV6/+0wLgigLERh+AIHtsW32QScpigVBBBfb1iNApG1+r4+BHu0hfZV54bXyPF2BybvI+0rbflYNzlfziRNokFObHlR9qQ79yysrp+VpUqyJZm9Z0xxvc3xNTomsFQHGApRF0etzZ7oPzH2mAwsBCFTyVND8txfFsByxrLiyrFiurfLGxMg+CAQUmKDFQNIf83TO/6g4aZFlISzmCxDgQN4B1xkVsGRa5HWs1SBVJPmT78x7CQDYF5Ij+TyCD1lrvI6/E0CwD2yP1/Ie3k/wwvTNlJNcj3w23R38nSG3Dz744EeIfwQI0j/9wCLERiHjcox5mOTz9EOFSQL1mzs/0K3zj2Q+9dwdIgemZeFNsZGrGiDoyt/MgyAWBBk3T+h7BX/4UcbFNItpjBoimUZZZcfT2PmpzDWjCtsT4NFophofgOHhJMKRCCJh70avsp/XtiSBYdw1LQjhkNcS5WgqZamFy/Ssr776qspaSDLP4sULRwBCWpXqw0jb/F31Kay1zfKsZOJHRyM0Esm0qoAYjoy+zEifMoPCflq2M6btZDKNSDQyJhke+8m29dOkLvD4ux9Bzzw98xqxIMi8jCk4pIVMTuTzm0wtBr+NLABBF946B8HvXfx4LrzHBC1+YzBRmKNf2/ppXcbJfBd+b46dCYzlXSYKPxVBqVttTCDFtimI9eyOAq6aTpzAQgIEkwEvnZ9i2NwUZd6Et8k6nvDCKVxAwhyVEE/Wssb8LAF+4b1+XAJzjflZqdiWLv/8eD16LQavmuNyRGNxJQj1aZvCK3+st+hzxd8JKrgGzQqb3Av8uw6qpWPCQWAUw0TFmiZTi2G8vW9asf32/ifBaqBP2DULEDgIZnibX3a8sYqIFKuxJzCWA/bu84bVL3wlQTOuYUHwBAAZs6P3KYAQHgUWVOosh0vSDk13K1etQnVVNWpqqkfm0Dt9BMbcl0qx9gT75DXuWVEIWkYtCHw+XQ+8TlcyBEnSJ88NQCCjXzP2fRUgSaXHtO2nUMz0o2YUgygrsSBIn0xBKdfp8+KnHP0Agh+b20w048dv0C0Ifs8Xd4lpQTBPd1MFCOYJRSwIehSDHwfBBAjK2jSOBUHWimnVkPdVwJhlsDMfc144nzyt6cmbFEBwHMVaX1jfoJQNPfpDVgpZ4RiDYj2fPtcoS2P7qBJTAegnt6lqno8TAEzUJwIEKiEhKbIv4iK7kDzyW2N+3Bu/eeF1ZlSKaWUwAYJyMcSYbeLq/xAgcIwkikHe2A+40WpBi4ZuqfMDbpPJZeIXxXAdIFzG9SbmMxH6YrKVTan7yNXGog850z+qVovlOMPhkUyIDl0M9MVqbodUphCUp1S9WGVeR4uB9w0wNDyszGKjm9JTvCOx7RklTvcEgYRyTVCYpr0qeiTdbNu2FQ0NC7FkyWJVJEUctsqUnakhLn23rDTCobBqxOM2OEin0ojFMxve9U6XAc3FwDbodvBARMaKobJN2up95UPAot4/gyL8zM1iMtXHVxSYtCOKSA/D4zWTISmaG9J0zZhKXEzg5obknE8UjqTGLp32PYHpSlU/lenmQnlffqf77fm9jIEpvPVToVgQTIFuchD83Do62JE+8bm6q8uMt+ff/VwMftYQM4RSohjUus+8L/vf1NyMhrp6Zapu6zqP7tQQ4sEwaipmIltlTswQFy8gG+hTJvjQw9DkcqYqJoNd3ovvTc4Ocw3IGiRRjUx2njDpk6Z5m/8m94j389+8nox5vhf/ozmbbdLPzTUmsfIEPLTk0axNpXIxHyEp0sXgp4hkTRFsiYLmdwKozXwY41kQdFnn58ozeQoS5sg+0cWwdPkylUlSZNjFvOPv2rViQWAopW5hGCGzKw6aJ10l46QOVE15JHJFruEaFOAm7YirVOcliFvyk5AgaURujbDVPoZZvZJRDJwATgo/OjlNQIPuYvA7NYlA1YsQcYnQb09FrhjNqrIgK3eNLiB5nr4BFQchHFbKXz46kUU284iQp8LPJEbhdz29vXjpxRcVa5fxw0SwfsJF/05fZDovQp7B5/O5curlu5GDYAoOOW2ZyUuEuEmcIGZNGVt5H70Psvh1pSpt6+Z8mRev/dGc+vJvUWBmP81NJVYMHenrJ0fxheo+P791IKdusQaIsGY/9D6JuVDM+DIX+rixffN5IjDkOgFS+rjrJ0UZE5ODIKcdfXz1dS+ARJS3vlbMwj2m6VOfV7nPbFv2G60a8k4ydidb21DfUI9j7WdVfv/qnEK813UO2az8mZuP/e/ughtwUFfXgObmZlXkiWFqZKRzrdPkTUY8T91UXmShMxxO3onlh+l+I4AgAOB9/I6+aCp/EtpIUFu/fr1itHPtkBTH7xmLz/boV6aVju1wT7AdEt9IqGOMPcPo+GHsPQl4f/qnf6r6Qqb9xXwITjjeJPSac6WTQGXOeY38Z/Ja/E64OlAUBWeuO7lPnse/S/El/k5f/aqVSxGO56mg75gDWEEvjkMOIZ4kS8NFZCR5kh1IKnUScumaSMF1o+on3CACmegSO8i/u3Bc1hywATek5j7gBr2fKpaE4eaePcmBrWrbeEcW73onkETQzRx22L4TVRYolckVQYRVMG1QtRPiG/DZF+C7ECD4VXOUvWaOE0GE7GNR9GIxMP8ta3S8vSj70Ty08nuuw+uJki5md03hWg68oDddEbMpGXwx35kJNHTTrigP/T45JemuCRGKOpmIm0+fbHmefnL0U04CIijkGBrEQjg6YUfAiPRJBLOYskWBmc+TU+kYgJCppmieVE1l4WfON32apnJWoiSdHsOWlz7oqU1NQiDvG88Xq/fTBB/yPP2Eq4+vrAM/s7zpw2Xb/M70TY5HbtRPCCLYZdn6+X5186/00bQg+FlM/ACC9En64Lfu+Tcz4ZHfu+hkLf20o7+Lvu7HczHw+qZjx1FXV4/W3i50JQZRlluED44eRUVBISKWjX173sNwchh9vX3qFE+lzZM8x4FMeAIGAgfOBdc/oyKo/MXF8g//8A8KPDMmnv5nXkOAQUIaY+55Gr/llltw++23g7UQqJx5EmQiHgmdI6ggQ/6rX/2qape8H/aBe4/300JBAh1BA+eDiXe4vhjnfzEf3YIgAMF0yenySAcR5tr0czGYHBrZZ6a1xwSqZi2GJStWICsaRWC4Fz1vvIFUbycKN3wa4YJCLyV9IKOAR0yuLIAXRNABhgf60J9KIDenHJGYC1KvGNbKPDMqbstJYHAojUhWHkjV8tLTMU2dpGDywmERYB6NsLq3q7dDhZvGw0WI5zJnK2904fKBTghQYIM4gO3Q6uuFx2TssRecIpOkKBcLMNb1BMmXXAemi0HfCzq4G2/v++0pv/m8mLX1cVx7TXIQ/DakLkwF9U3Gt+Tn8zNN0hQwXGQjp3XXHTE36wLA9DXTvcA+PP3004oxfM8996h2dN/zZPzKfv5+WjW4yHW/uem35ziYQsnvGnMM/E42fgDBb3x1f7+AO105+wEpP0Vv9tOcc3k3P3O+HvHCtvmfbnq8ENiRTcp7/MzyplI1eRFsW/f3i7Iw+Q18P5ODYPo9peKo9MlvDMSUbSoikwTq9y5mn8woBiGdUrnX19UjGYBKi3zk+DHMiOdhYV092s+cxsmTregbHMCZU6fUKZ9x77QW0IzPhDg8tfNUSyVG0zxP4Yy5F77DU089peLteS3Z61wv27ZtU9cyBI6x8gQaGzZsUBYBAggqes4pTesMi+P7/eQnPxmJvScwaGlpUc9keB4tDCQKEzjQrUALA9tkZj7+zTxcjCeshYOgRzH47Re/efHjx0y0xnQgrq/N8VwMvF5lUly5CtmRMKz2k+j61c/Qdfgwsv/oq6hasQoBy4UTcmAFIogiCdeJwCWZxA0gmErhxz/8PjqsbNy4bgMWL56DojxGh1k4dKIdi2rLgfQQXnh5GxavvRVV5TkMogbjJIJ2EAFFEh8CnCw4oRQCTgzOYBf+7+//D2QXVaGytBab7rkR+VlBPPmPTyCvgu6fIO6+ezl2bXkP+/a9g54BF5Vza/GFzz6I3Jy4whqjttuPzowABK4V/dDmJ1s57zpAoGw197C4GC5E6vVr20+OfRxK/2LavCYAgomqxQysI0M/5O2nwCbakIqDYFTp4mbnhtRPbn6AhPfpfaJgO3r0qDrZUGAylve2224b4/f0E/p+ZDhzEZsAYbLK2GxbP63LwhN07BdOpysiU+Dx37x3Isb1ZOZlMiRF0xoynjD1AwhmvLT5LpMFbua8mMDCr0+8x08ZmyRbP/BqWoQmk7FP3FH6fPqtMZOkyH7yv6YTTWioa1AnvLTrom94CLnBsOLE0J//yquvYMnSpaiprlbKlvdw7RMU8+ROgEH/MN0MPIFzH1CQk5fAD6/js9knKvx169ap0z/Hjic+Aimm9OV95CYQJLC95cuXK4uCZOGjZUFO+JxfqbBIrgL7xDalLfaPf+eHnCAqjcl8/BIl+QEEc/36rQMTTI5ncfMDFmbIsUlSXE4OAsvYJwbR8at/wPlT7ZjzpX+NeFEFnnlqC873HUBpyVpk5/TiZMt51C+9AUeP7caK2nL87Q+exNIND2Jh3TIsW1KF0vwAAm4KO/a3o6GCVTpfxInmU3jsa1/D3MoiBJ0gfvWbV9B55hDq5t+Erq5j6O2PYvm6m/H+gR1oqMzHD//pZay7YxOiwTjuv/dGFGVZeOWF51E470b85pnf4M5bZuNci4XGG+uw9ZV3cddn70cVi2uFPbeIHwFW5mu8TIp+IN+v3LN5sPObFz8rq6kn/Cyhk1lTH+c1Vy1AEGSnuxg4kFRQulLl33W+gSgwuV9MreIjEl/0eKYjP4AgyWjErGdudjEJy0Ljvz1+Q1qZ2L/1rW9h06ZNChzwb/rmFkWkf+cnvP0UA+8xhb6p+ESBiblNLApipuc46BtErpN+yjiJwJM5MK0autuDY86/my4cGSe9DwJQ5PSs8xn0MeE9/Ojva5r0/E7r4vYwEyXp1iB9DGQ9XchsrI+BnwXBjzgpyl/GV0LXdHeJaZ0w3Rfik9Z93WZ0yXhjMB4w1t9FSIqyfvl8/t5CgLCQqZY907EXseBlCRkcHkJy2DPhT/bD92Au/o6ODrVGyLhnet+P6yNzOh3tS7EmAhbd5Wma/M0DBJ+tnzBlnmSNy7rXyXD8Tgfr+trUZRG/pxtULDLkVqxc2Yh4LAuW7aLn+Z+hYyCFOV/4fcSsKP6vv3oejzwyA9/5by8hgT4UlERQOnsd8vKjePyhRvz8iZfRn1WOxQsXYvnicpTmRQArhWe2HENNdhipyAA6Th/GonX3oqYyHyEngCd/uR0b7yrBX/z5i2hpPYzCmeVYse4BzKqM4ubFBfjVC8cxgDBysmN4YNNaFMdTeHPrVhQ33IL33tyFdN9OpJLVeOBLG/H2s2/jjs/djTz6GZivhZk7LzB5ZrEm3fWjy3uOkwApmTvRCzrZ0O/gYYIIXU/oOki3AuqWxOlYe1Np45oACLaKNGBQVUAJJ5upXCUjYoadmibzX7HziTU9x9pH/NGWrTZ1UEuEYGXCHL0VyA3pWRBGFRET6yRVzoGQCmH0shOOWiwyz3MB27E/wovgCeu73/2eyiT2jW98QyVl8sIOvamzbam0x3a878b0SeVtcmHZ1kfcCQIQRPGScMmoDS/O0YXrsH1GZIw+T4V1MlESTYGZTFDmOIkiCgfpDySCD3hRGxy3TPSDCDgdgAnY0RPw6Kfg0X5yPkdDNv1OYH59MkHSZACCnILNSAPzBMbrdN6JjIFOnjT7JMKFa0UHiX4gVJ4v95gchMm4WXTLmShxM4qB3/sJM+FTjAfAhKSoM+/VfDoOWltaUb+QFgQKbHqchYJmKzpZyA1dE1kUKSHoYuB8SyZFfue3Vvz4Kua8XIiDIMrAnE/9MMRrZN3pFgRaR1Y0NiIrHgfpBp2HD2A4bWPGkhUI/f8T9p/+649QXmEj4ObCSfYirzAXxTWrkUgO4zO31eEXP/8NhrJq0DB/JpY0zEBRXhyubePVLQexoCQbm99+DR39PfjCF7+CmgoCBOAvvvMz5OUOIBIuxvmWwyifuwBVDTcjO2ph0awAfvv6MQzYMeRlB7HprjUozHLw4x/8COVzb0XKHcKNy7Lwi59vxaNf/2PseuFVbHzgXkRG0mVfOE2nAAQzzNFvXuj2pRXpQvvaby9ORh6ZFgTzoDAVBX+p91y1AEFf/Mk044AjyszEpaKApQIImeFjXngqR5U7YHRIJXGQfMNESSpLfHj0onTKu08gqm17zHsmQZJPMsFwuvBIUiKVKIm5CqKjOQfYMSYlCmeSKfHeoaGEIie2nzunTK9r163DwoYGRLSERzYTJTG7YybBkjpRpyyl1EdzLHhgJ6rdx4RHYxIlsU8q9HI0wRL7SQCi9ymdYthjaHTs1PO8pE/6GLAfDNogOPCSTqURYehlJhGVWAx0xSfK+GJdDJNxs/iZ/McDCCbhSHcxCLDRr/H7bjJ98lPGfi4G06XCtk0Ogp/rx48b4s2LtjaTSWWunwoHwSTnjlus6XizF3XgMdRGLAnkqKvvHALHayfVMk33n/RiTXS/mCF/QRITbeAHf/sPuPm2W1A7rwqBwT6c7+xHTtkshMIOSnPC6O8ZQDqcg3jYQmvzERxVhNMIZixchZVzy9HWdgqhaDa6zrbh2OnTcKwITp48gw0b7sDc+TOR6uhA57CFgspZisSYG0yhPxFEGhGEAzbyssMIBlycPX0aCJcinh9FYdYQ+nuAUEEOrH4vm+NkP9eLNY0/UtcEQEgwjp1C0Du/q1LPClNKYSaV2TCFCMsTawDBZgijliSIYYBUd0EtmZGVSns5DzL3ubajLAGSB4FDn0p4qZZH2iIYIKtfu48dUqdQadt1sW/ffsVBSCYSqJ1Ti8MfHsZDn/0sioqLRmbUsbz0z2OsGuwTLQGijFWiJAuRaHTkvhRDL2nVkPdjn5QVZfRdeOJTyFc7rfN9VR6ETNvK0uIzBrQd0NoxAq5STFsdIflZfcYDCARX+ml9POa/aUEwFZ+pMK82gDAVDoIfaJkMB2EyhEu27QcQGGJ77MRxNCxoyBicbATdNNxAbAQ8qrUyoad4suL+k33d70qxJhMgjFokgN6+IeTkZSMQdBHOJG2hRCXVUJW0ktBF2Ojt6UF3Tz/cQBhFJeUozI1mrIouBrrOoKOfhbQiyMnJR2lpARgGEWIBr4ALi8WzMkWyRvM50k2VEbY85alk0HLQ4yFF2aQuahFcBwjXMEBQJtn0IAKROHoHhlWJWFYfpPk8GBpN+GPbFoJBnowFIQQySlxLEqRcDMyFMHpaHjUdZSJ1M8Ss0ayFASSTjGIgSdFbuPqJ03M5eAVThKTomQHTeOWVV7B06TJFpOIJrLm5CRUVlSpZknx4wue9egZGZjYkQJBiUKNMW+9daBng6ZLPMU/LngXBexfPf+lxHvR+i4tj1P/tAQsp6CR+z1DQRW6cedrjYEroQDiCkNrUo2NgsuUnAggKkBj5GvzIPfo14/FOhExkhiyZ4INtXciqwT75kZAmAi26i0HGZDzLw0RRDLqLQ9aGH0lR+qS7a0xryGRM2X4mUz1REp8jFiGSFBfWL/REeU8n+g7uQnTmXMRr5ytng+WyBoeFWCTrogT7dF2sm5Knk2/g1z8CBJqodReD6SLjetVriUg7fut+Ik6UyBrdbScm8FGl76qEbFKLgfwOdaDJ1FwZfQ+x/kjaS1flLgi6IQScMFzmRVBps5n3QDl04dKlFOB1AcQsG04gBDvgBR8yUNJT8Dw1UMbwd1vd47XJ3AjEA14YpJdQK5PEbQQj8FrA5skjwEDJBFzmYZjkh+PHd2cEAyNgdKuJn+uSqZZJihUZKetcdxP6uX789gvnRrfmyTUiV/VnTPJ1pv2yq9aCwMGXREmuPYwPTpzBkVNdsEJZAIFAxpogbioqCSrDkY/6g6fIPF6CEuEjP9SpJ3MPFbEi1YkZIcNHEKHv+W89xcyPVG6UZ/Hfo6QXuj689sQNIYQ9rw6UgIHMRslUgsy0nOmf9F1c/qPTTGDEDIrK+K+qNXrVJ+XfugllpJ98hmYxkKFQm1zePZBJFpW5VoGcVBIl8SAWz5uN8qJCL7Oj5mLgBtQ5CNwg/OjKUCf8mEBKxk/Gx2/T6teI4hP/ux9AEEWrgySTSGia/PkM2dzsC9eFCBe9T3KfKGdxMUhYpQArb43QbZRJR5MJfdTzWoyXSVHebRQUjnI1dGAqitAvbFXeQR87/k4hKMpUHwOdF0HlJ/fzGv6t7cRJ1C1aoHZPz8430fvyr9GfW4mGP/4KwtF8PPfsU0gFXDz04MMjyad0l4esU136XUh4XkjJy9+YBZHhjhxjhjyyz8yY6NfuRKCB64h5FxglwTliO4yWYL4GhsVx3NauXasUkElSFAXDnzK/7IMJOOU6XaH4KTB9jQswFkUkPBLZZ7ofXTgIfK+Rt3YAACAASURBVA6tllIoSWTYqHzxhNjoOHnVXpXVQCl8qnLaESwE1UnfAwkKKGSAADkH/I+gwAp5e94DCWINGG1TnitGA7E28edY4gplXqbyrFysLxif30fln6tCaplDwwyplveUa0nmJIgwib7cwzqxWucPcJx1+SBjKpwoWV/mnF/nIEwwgdPxZ26Yw0eOYW9rB4bDeRiwsmGlmd7VQ7hcmFSE4UgK4ZiHa5XqzST24LIOO0FYqkY8FzNP2K4iOtIsqtYif1fJQ9TWoYpTaJq/E9066v/4dwp8muIyz6UlQ7XiEReZPdG7wVOk/KunvWXzEISEMnd7iUnUE6nkPZSRyWrGVmn083Kf0fDHHlnqzjCCzE/mYQiF6PlvlbmRVhW1kZmwhHnIMixgVzKo0friWfiCtHiEQgiS9akynPH9vAQlxAAcI/Y9lh5EaSSF9UvnorgoHwh6Css82YiS5Xzpm3TsKdgrwU1rxGhlSi9tNZ/puVk8R1Ka1TmVCydjDWH4qVGHQIGPYHDUFSL5KTRXjAq9lD5l2lLuC7E+UTY6zGuRQlTLXW/T9cPUL5KmWvFcvD6NKD/GUKtqmaMcFhJMlZWK4CCDKr1aF6PuL7q6mBZ7TN0DggjOhxBrMlYiZcnKlPTm2I2p96HGUqw/Hmjk3z2+yqg7ajJ8ivFcDPz+RHML5jfM89b5kQM4/fd/jeSCNZj76GPoGUzhT7/xv+CLX/4SIoGQmnuuDaY+ZpSCRLTQ5M21wNMtQxQbGhrUONI8zPBDXseESsyRwGfyNMzsibyW9xFQMRxR1haVILOSUmEz7JE5Dfh3tsn8ByQHMzKC7bS2tqoMi1T6DInk6Z95EtgWEzRxPXz/+99XYZNbtmzBn/zJn2DHjh0qlTPLGTPscuXKlcovLtUc9WJNQh7VIwvMKAY/wDcZ14/pypN9ZpJs9SqFHMPOri5vr6tS76J4R0/wlDmUZ1ymlk1ZpwQR4FLSkAyeUu4B4Zco+UTZ4FKueO1R9oxfwYvyhO151gUPEHgZbEdsvEpUUkpSFntC2wFdyQI6RjWIn5VRFDPHltk0CRgnWvccJ73csw66ZV+bUQzshR8fyOOq+ZOtJwKl06EbJ9PGVWtBkJfnxDy/dSs6gzOQQgGO7BtG57Ehsll47oPtWgiEUiiqHETD8hKEsz3lx9SfFgVr0ELAjYApQrNsF8OBMMKBQbhuptASF7wb9Ba7EsQ2AlYEiFhwgwGEUy5SpANwGTOdqFK/PFkRaDhqAwgWZtpSJ5hSPjia6KyAjaBjwQnlKN8a26bpzQkEEXJT6pncHGGHZjwvQkMpbvWTCopknmGkkYMs10GSitwKIBixYYUiCFlp2IEIQjQNuiGEMoif5jr2KuzYsAhUXAptC+GglxI1rXyPNhKhCGLpIJygJyDYBt02jnq2jbAyeQQQSw5g+awoli5e6LlnLsBBMAHCGFSdcTkOJl1EIh6Ycjg/Sc/CQRcRU7gqcOd4uScEslERU5SIKVBVqrQ8gKD3STfzKWGatpRw0ktls4jWR0iKJGFSqRKsEXgxuoRd1EqDf4RP4XjuIXUayQg+tj0S3pRpS5XhztS/EKuDcntEYxK4oqJU1H1MUa0BMGWhyYjWER5GiOZggsEAEukEoqEooip6xVuXpoVkMopoPIDA/jYfb0JdfZ1ao8GOUzjxo+8j/tD/hMq6uegdGMD3vvM9rG5chWA4iP0H9qsaBw899BD27t2rzL9U5KtWrVLC+6c//akStt/85jfVSe7ll19WY8jESI8++ih27typ8oZQ8D722GPqe95PZc+fVOj88Hsqhc2bN6vvCQT4DH7YJk/7TLy0bNkylYJ50aJFChAQmLB9mpnZjzvuuEPlWHjuuedUYib2mf3kXDzyyCNgmXamYxbFI9UcaWWQjx9b/lK4IWaost986uG+HD/JpMg+ESB0dHYghBBi2fkoK8lFd08fEgO9SLssd8+oGwfRrFxUlBbi1Kk276BDbleAx42MSs+EkI8oYhcIu5a6huwCDyhcng9BH3NlEJhxHuW0z6fzd84r59TMmGq6cMYDCKar1ExaNpk8CH6uicszOuM/5aoHCNxov3n7EDqcfARDNsqyCtFQWoBhO6WKxyRSAQwlgJe3vIDZc2Yhu7hULeCAQ/xrww7Y6DnfiWhxAQqCcSTSg2h6Yytq196GaG5OBrdaSolSwbrBJNJd7UgGs5Cbn6MygxMJ0+8WcTxkmwpGEXLTSmDywy0VILBwspAOead/5ivnofz47teRPWsxymdWKmgRdtPKleEpFC/nONOR8sN7CGRshbxj6loEh2EhC2ELsENBBLqa0RcpQnZ+PmIERzw1K6UdQNR2kQrEEAz2q76wH+kgrRJhID2I8x3nUV5SDicWVlaVdBCI2kA6FIBrpzBw/gyCiX4FrJBdgMLiCiVMYqkBNM7KwpJF9Z6VZIoAwbUtnDx9Gh+2nMGwFYATDnkHFNs7lfNdPKHjgSTPLOiRLpRFhuZ/ukIy7hXyN+gi0V1DI99p/VRm+4wLRdqh20nzJGltZw7+ypWjMV4zYaxsZ8SCwJ4QIChgQ7CY2ajabSN9y4yZhJeqd9HCbZUQzvBZeA2tGuIC8kzAXtte4ClBX+Z6J4WI66C6sgQL581CJByfVoAgJMVFC1juOQC3rwcnX/gN8m7ZgKJZFRgYGlbhajeuX48zZ0+rEzZzItx5553KMsDENJLkiEKe7gACiK985SvKgsJ0yRTaVLxU8Izhp+JmBVSmJidgYAIkXitpmwUgUCnwfipLKmye8vlhxkQKfEmixOezTVoAKisrcejQIQUo+N3dd9+tXAusz0ArA33U/NBC8fWvf10Bh40bN44AhE86SdEPICyYNxutJ08hJx5B2gEGBoYU6TsrJw85WRGcamtDNv3yrouEIixHFddIwC/Xan//APLyC+Cmh9DbPwiLVtLLCBA4ZwRvTLZFYEhQKCDpOkC4RgECTzVEZc/vPIBzVoGS3FUFlajODSNhORhOWEjaLgYTKby2Ywtq5tcgtzQPycQwhgeHUJSdhTNd/eg4fgCFy2/CjIiFs80f4M1/fAp3f/3fwkYKiJchtywX6VMnkUwBuWVFOLn3ddg5czBnVjmc3HwE+roQKyrBUF83UkNJRMprEE32oLurA6lAGDMqK9HX3gZE8pBXUQM3lEaYp8u0hVd/8n8ga95NWLy4HgVFs9DbcxJ2IoXCymq4qQH09A4ikFOGwpI8xGxaPULIsrpxunMAsPqRnVuInt5uZEdzkFNaju0/+9/QEVyCz3/ufnT2DCIUCCKnfBYS3Scx1N+PcE4F4vEhJHoshPPyEIqGkB7oR8gawDuHmrG4fhkQGkZOrATx0lJEXFsBgqCbwPFdO9B/fD8QjGH2orUoWbRKERNj6QGsnBXH4vnzEcyEY8pJ2My2yO/FzExFqidYOn2uA28cOIpEOA8pNxvBUBYs10EgmoBrR+BSARH0BL0iMuYnw4/0QJnij9A/eqUx+uV5vrz7GH++6yBM1xYsRK0BNMwqRmP93DFkWfZOTKa0dOh+VjMxE09oevpnmeNmJkqqX6gwCjMfhIcHgViush4ztPbE0WbMmD0Lb765QyleKmQqY/rFuX9pKaCCJxBgjD5P9wQRbP/tt99W3zOJGOsj0DLA66moyQug2Z/f8xqa+k+dOqUAGg8OJP4yhTML9dAHTf8yP7yPAOHGG29UFgy6KlirgUqfgILplbl+aBXgNVyjJBTTgkCXBk+idEcIF4GgQtY5AQLv40lW56vImpT5MU/9fvtlPMuOzmkRE7iZ6EsnHvOZHGuazvk7C1nxMEBLJusl1M+vxukzZzFrRhm6epmrIKpyoZzr7EZZcb4imEaiceVmPH32HMorK5VTQOcGcYyLikvQebYN7Z3dsGklvcwAgeCR48C5JJgTQiL7ybXANae7GMSyw7kR/gbXFdeoTmzmdTo3xEy1LHNnJrhjuzq5UfaZPEu3Pl4eKfHRp1y1FgTdFPvSrr04a+UrgVSeV4HZWREMpB0kkg5SaRdDqUFsf2sz5i2oQ3FxEU43f4CfP/EEPnXDzXjrg5OIB87g5g1fxN5t/4LimXPQtO1ZzFtUDycnC62nhtHQOB/nmrpRWphCr1uEnOFm9ISqkTx1EkvuvQ/HX/5nLFp7A97e8z5yWEgkvwi97S2omlOP/Vuew8IlKxGqaECqrwmzFt2NZWsbEQ6kAWsYm7//HzFYugiDZ5ux6f7HcaxlL04f3Au3qBrdp5tQXrUAxXNXYdUNyxB3s5Sy7tz9NH77TgsWL69DzAZ6z5/Am2/twee/9mdoevlbaE4vwbraHBw9N4z+nh7Uzp+PgwebsLCuBCf3HgJKilA7ZzWOH3oPsxfUY9euPVi9sAb7Ws5j7dqbEHHP4v29bXjg3/x7lBVlq8ItTKGbbD+JpjdeUEKlYf0mBPIL4QZDiDmDaKyIYcn8+QiwuErmNKyz5YWYxc3mV7ue87n93b1oGY4giRI0H+7HwDkHYcRhOynPtBkcRkGpg9lz8xDK+qjm17/xyJoZa8aV2n2X6bnmW0ppcovmYsWRAcLOEArsIdy1sk4pYx246RwE3c+qX8N580u1rEiKzS2Yt7BevS0dNrThiPdZeY8nUe5ZHyoKadYLEN89aynoce/8nmZy8hP0NMjd3d2qoBP/TqsCOQLyPgQB5Dfww/dnbQfd3MzveQJlISnWi6AylXV8IcKkOcUCEMhjkPtkfIWkyJ+S4VKUhRBY9WRcOkDgOAuYM10MugIT4qK0K+9AICQAgWPX3dOtXAzxnAIsmDsL59o7UFqc7wGESAzhYBD9w0nk58QwPDyEUDiKvr5exUEqLCpGhFbFTGQWCY/k0ZSUlSEnEkBzaxuSafKpLp+LgWW9yR8haCOI0xW6AAQqfj+AoIMpAimCYP07kWMmB0EnOIqLQeZJ5lMAghAZdVBwnaR4GQQkN9pz7xzEWTsLgaCF4qxiVMWi6EwNYijhwkqFkbaH8dbbr2PuosUoKCmG09eKv/5/vo2C3CLMXnUPzhz4LdasuQdbdr2Mex/7D3jrL76Mrv5exOYuQTZykUI3Chq+gI0N5/HkS4exvDqEI51xuK2tWPaZz6LluR8if1YNXtt9CIur5iIRCuBUXz8+96/+DC/913+F7MJKLP/KD2Af+CEOny/Bw3/0RUTDSQTSA9jyw/8TlWs+jdY9W7Fs5V3Y9t4rsJoPwC2rQ2VhHPuOtKF27X144MFNiLhxpMMpHPvNX+K41YA7PrMJR7c9iz1vvoIPj5zFo//u27A+/B84EVyFeNt2NHW6KMmLI2QPoSN3NTbeUokdf/MddJbMx+e/+l+w+QffRKpwFroSMfzJY5/Gd//mR1i2cCm6T72Ns21p/N5/+CvUVpci4tAVEwZSQ2jbvx3RwkIULViFKAuvBui6GMTKyhhW1C8YkwfBzzdqAgSe9MSi8Opbu3EiEQNCcRREc1FfUYmw5SAVsJBMR5GwgRdfexZls/KQU1I1ymYS87ptj5RpJYnwyJHDqJkzB/HsrJGskJ7UzxCzSSxVpwctk7tAakEbowSS0dU8BolchkU+wSMUYVS5sUiWSioCJzkLzHQZCWcjkJ2NUNBGXrIPm1bNVyfgiy3W5AcQOL/kYrQ0NSuAEHRsj2+biZP36Lcksk2QLP/KD+G4PRCBP1mQQFO3JEqSe/w4CJMt1jSRr5v9k7Tc8hJ+uUV0DgJBTFd3F8KBMIKRLMTCtkq5TA5SinxkF8ryCOZMsVJIWyToxpXLjeRnJnwTF4MXfu1FZfAaNzUMJq5zAsxse/kAgoR2iuVQrGGKLOnYyu1AYuxEGVonw0Hgu3JuL5TGnqDCJClKHye7li7HtrhqLQgyeNwcz+z8AD2pGKxgGFHLRg5oNRhCygrCSnuL9+ChPVi8fClipUWI2EnsffEJ7Hi7GQ999T9j52+/gxU334n3t21GJL8cne+/gzlL69CBIuTnF2BGXgz7jpxAORIIzlqCwuG9ODxYgtLBDiTCuWhrbcJdG+/D2+/tQeXsakRDDo4eOYDiokrsfv1l3L5hIwbCRRgcPINlN9yDeUuWIRywEEilsP0Xf42KJTei7YM9qK+uxEtv7sLM/DC6nFyUz6xFz9lWFNcswq133wcnFEAYwzh/+F28vPktzKptQNexLUi4tehu24uNX/5PyBl6H9t3HcXCujwcP5ZASU0hsm0b+w6w/G42zpxsQtnsKkSLy3CivQ9Lambjw7YBPPyZ9Xjy755FPDqE/IIZ6Dt3GBu+9J8xr7IUyRBDmjwtrPIrZKpE2qrOewhRJ4XlM2JYsbCWLAp1HTeHyZbnv8eLYqCg2/zOfhxPZCkv+qz8XFQVFyhTcVIldIoglUzg9a2voax6NgqKS5GyEhgaTiA3Owe9XWdxct9+zG5sRHF2Cc6dbcXPvv9XeOyr30A8rwDxWBTx3EL09XbDtVLIKSnFiX3vwI0VoLJqFrKzC5AY7kM8Ow/DQ/3qWQVFJXCSJHh1KWtEUVExejq7FbE1v6QCoVBEmV15ZvY+Whjt5djdmWeQ6yJkVqu/F0d3vorQwBmkonmYtfxTKJxdq/5eZA/insYadRo347MptPTvTCUzLkBwHDQ1N6Ouvn5kjRA0KqqqiuwxwNdlHJcr8Sg/kqJfuKKZ6GuyLga/3BfmPvMDCHqYI/vY2dmtUqEyOouRTTwAkCd1NX0YlUZSLkFNfcN85Oflq5wt8vGL3jGrOYoLZyKSopkH4TpAAPDkk08qZvGV/HgA4RC60xFYwSD6OjvRevQ4Uqk+xchnSCI/2dkR1C9egkBWNiKII5TqQtKOwM7Kg8VER5GIEnBDw0PIIns/YqM/HVAJOnJiYSTTKVipFIY727Dlp3+Dkk99EfeuqUUXYirzYiQcgZ2y4VhM0pTEh7u3oPVYCzqTUTzyxccRDaVVVbOB3nbspflUseBdVDesRHX9UoSspArlG7ZSiDiMFnSUIou6MXR1tWPPnjfg2sxtHFNkrNKqGUiHYoiEezCUKkbc6kW6sAr5qW70DQN5OQmkEvkYRD/CySR2vfw8TpzuQk3DMtxyx51KuSIaVGBq0MlBTiyBRB8P70MYSoaQH0ljMLsCWU4KViCMSOa0LX5VFeJHEyNpmk4aK2dmY0V97Yg+4HV++QV0C4IZorX5nX04NuwBhIqcLMwsKsDQ0CCSVgSWG0ZyeBhvvLMVM+ZUIbukFKcPHMArLz2D2+66HVteeBWpoW7ceu/92L/zAJKBFJrefROrbrgBfUlGnESwbu1qvPXOu8jOimNmzRy0Nh1DcXEZzpw5ifsf+gJe+M1TuPOue7DltVfAyIK5C+px7sRx2KEoWluOY83ypWg53YHBgW7cdu9nUbdiXYYUKKGqV2onZMJUmYDGsnFy35voOLoPOTNrsfDGDbDCcRUmW2gPYtPKWmVqvlgLgkQxjAm9zAC+5pYmNCxgsaZMErxMdEum5Iey9BBMetlJru7PZKs5+kUxSI4OXYFNBNz8FJjZjkci7B9x06gohvazQCiiQAEDq7mPR4Hu1TFHTpDmkBBc28WihfXIzyvwQpUzFkDd9SNvLImSdA6C7irldWZ+FXGf6ntKdzHo8ymhrp+UEb5qLQiyMZSLYXcz+qwYkiqNJ0PQMnH7yv/pCSVGowWCPN164YFOKA3XiYEZwIMUXU5aKcIQkkgFcxB1GE3AmuheFq+Im4aFPDjJDqBvAKmimcgPD8Jy8zIxB15uAIYHMZPjcH83nJSDcE4xwtmsEzEMl/70dD8G+xOZkncpxLKLEMuKq1DGNE1+AQtWIKrCH2nGs6mEk8MYHBpAQCV6CiCcW4hIdgwBJ4BIYAiOk42Qm0QqFEJ2OoR00EYgmETAzoHFmutWGomebjiERvlFCIYjKnuZw1TMPOkjimAgiaDLzZOA40QQdW2kQgE1DhbicFSK09HETB6rnuGfLmJOQnEQls6t8VJBjMNB4FzxPtPMJ6a6LbveR3MyR0V/FMWiqMjLVRaC4XQIKUY1WCm88+52zJpXg4KScrjDffjZ97+N/FgEsYIyHP1wPxpvWI+3Xn8Tj3/9j/HT7/6/GB4awKJVN6BnYAh52TFU1c7HrJkz8cKLv8WCeXXKQnGmrQkPPfI4fvv0z1HXsBg733oDc2qr0Tc4jM6OdnzxT/5nPPHjHyA92Iu7P/sYkudP4lR/Gvc99mWVIEaZUtU6uzKMSIbMqgx3mQQfdtc5HN65HbVLG5FfMQeuyrngIs8exN3LqhQJy/TRenskk3dDI4/qPlUKRp2kKBYhRhTQgqBiePraMbBvN+KzqxGZMw9BAmif6I3pEJCjYPXSW5NQPVm7phl4or9LDyRRknAQxDLAvwuJTdwCQjaUts1TqB9J0UzGJUB8JOQ3U81WXBNsm//pxZpoQfigPQE7GFXA0QuZvjJr99JnbvwWKAejLhBND2HdsgaU5OepUGUv/sfLBCphjvzJsSTZ0q9Yk17N0S9c0c/iph+QBETobonrHISPc/YzbXNiXnz7fQykQrD/P/beA7yu67oaXK/ioYMAUUgABNgL2LtEkVSXVahqWpblGrfEdpziOO2fZDJf4szE6bEniZ0/LiPHkmWrV0oiqcJOEGARewMLCIAgenn93sna5573Di8fSFBiC637fRLJ+24597S9dlvbz1RApoB5JDBLHKJCAkKJpdLWPIhLOiEoQC2amyzHvKa0H/6ehPK3ceEIFagQEiURSjItUAEG/puZCPS1qbQ7Raqkrhf92iFSUsQhPB9IqnuFvEiIjBKA7UfSS+Yxj6Qw0o/sB9umJnLSRw4CH2Cx4A63YKZP+oRHgecpuMloJml/1AOsgLSFQlYIoLykSrWREDDALxF6Jvmdwl+EfmrJeJEkIJJ2OGxp0kZu8mpR6c1M/JFOZUxfIoJpFXmYQT+0I2Qy+UYzuRjMaoOrN+3AkUhIxiOYTKK8IB/RaAwx9nvCi3gsivrGzRg7dRKKCktg+YF3nnsSb7/8Aj719d/He688jQXLlmHTmvWYfeNCvPX8cxhdPQbjp0xFWdkodPd2o729EyXFI9ATHkSe34P+wTg6e9pRN30BNq5bi7vuuQ8b172H5TctQXtnN3ZsfQ+Lb1iG1195CdU1Ncgvr0RneyvG1c3DvCW3KMIopxevwHQ/7yuEqIgcGskooj0dCOQXwePLE1Ds9VrIsQZw35yxKYBgBtFxvNw+1UxZDG4LAjfVk4eOYRyJkrw2uuo3YuCVZ9FdUIq6L38F3jyWeVb8eKKtOPPIFMDmOS3MdEBdKmWUQbLRaCodkZoeCZCWLFmSsU/c78n0bzOyX4FfJSR27NghaXKcr0ybY/olNXD+xowF/jaUH3koC4IGCLqxbobLTJYAralmcv3odei2wvH5bl83262plvk727jlVARxX64oI8KGKMmx15eLIenzISseQW68G7csmIKSvFwEyS3iHJlcDOfLYjCBnNuycz7Xj3mfCdyuhViE69aCoAeZiG97/UZMnj5P5KiHue8kJBIGLq76NEAQQe5NwLbyELAHRQOmAFUMXVliPaDwDbAgE3PNhSlRcYEznt7yWggmPYj6KP7JI07CI1oGtMCmoubcx8XmiSPuyRL2MQb6xXifMDzG1GK0aVmwEPUGEBR/LcFLQFwR0k4KfRItCXc548NJgKPYE9V5xaZIU3/UT+IjukT4p42EJwtBKyECX0Elpgaq+xUoIAGUcqH4kBTQJJzolLq+QSQRFN4EtoMgRmsYmi9ATXr+FkBfXxjtp5owa/Fi6EKYQ21cmYiStGBas3kHDocVQIj1dOPEwUMgsRA8UYlBkMnsSWLSzBkI5eUDdhADva3o7DiJ0spJiLSchK+0GMneKPoGWF3eRk5JKfo6O8R9U1w2Gp0d7fAkoxLPsf6VX6J60ixMmzkTfb1hiTOoGF2N7s52hAcHkJ1XgAM7NuP4wQOIROJ49HO/gY4+8kB4UV5Vg1BWNtUQ2NpscgWDskypqCEKgaJNkhuJDSHRVlBIwHwEgt4ksq0BrJgz9hwXw1CCyA0Q3LUYNNXyoaOHMXXiRFk7if27ceqn/47+qTMw9lOfRmLQRjzcixhZN2JxNGzblmK1I9hg5sH7778vLHfMPCDDIYUyAQKzCm655RZJeeRmSnbDzs5O0cTXrl0rEemf//znpSu4sWtGRc49ZjOY7HnkW2AAIQmVWPaX7Il8DzVDvp+8DEyv5Df98Ic/lPRGsibee++9kirJ9pH5kdcRJFwIIDAl0gRgWlPV46aDc/W/h4pBcAcpuq0MQ7nyhiJKYjsIjNY27EFH1Iu4P0+I2VTZ9uvLjkCeGH9sABMr8jG/rlZ4HAIBKn9qUxxuDEImF4Nb+880Lhwbcxw+Ikq6CioUAcLGHdtw26IbkfRS1AHBgR7An4uEEP4owUphRiFPIey1/KJBUwALx52jgYupjUEt1LoFNFAwMxrXsS7EWZgsAS9NFWT5E8Ht+FVFWFNwUyxxpan3+axBwJsDiDWCQMJZhU7ql+hWCglogmYROqQ51qQ3zGOnkLYZ2OiQJklguJj9NVOjNhHSKnAuR8DlHBpuztxkmY5mWhAyZTEMxaTIDXL1ll1oGggKMVTcYyNuh4E4K0umW6/YBH3n1o64qA+0JXWLAUkUCjrdzZMS9OmHdZ5pl/S+gvz8lA+XG+r/hEOReSvmO78dRQ6SuG/OGLEguDeuTL7uCwEEjiUZLA8TIEyYLKRb/vZTOPaT7yO44osYPWk8jhw/ii6mwfUP4uCRw6nURApmCmrWM2CKGoHB7NmzhWuAIIBCmRwHdF+QNInjTp4CXkcOAl7HNEeyKfIg6RKBDlPdeA/TGkmMxLGlcOe1vJfAgJTNTIcj4OB7eB0BxGc+8xkRGs8995ycI8ig5k1QQaZFPuOmm24679DrIEU31bKAdBfr5nCKPwcc8wAAIABJREFUaF1oXIYKojNz8k0LggYtXd39eH/fAXQPRJDwk+FVUSg77OtCtCWZAE5mEMdZ7jXYE5Wmoc+R0M3JCiIHSZLXq4wIxnWFskKy5rJzcjCoUy69jlVXE57xcUIC5s5+cOu5iqperqPVhyXrfXx/2sLJtuRF2lE5epSwKPJbOD/cTIr8BNNCk8mCMByAMFyq5Y9iEK7QzqlNhlzAW7fvxC033iilRKOnTqDjrefgK6tB+S13A8GAov30sLioHwER0DYGensQyikUYh+VN66AhMx5hwNcTLM2hS21WF0vwe9suzr7nC4EXanM8THIU/rRPZiDolwCBcYUKI+HY6hXLoJU6dIYYY16j6qk4Lw3ArBymSOPKPpFl08Fyzs1Gs5C/hdfDvXDDpnWzliwxkztcgcpSt0DyzIEcrpojQCEzQ04Ec0VZ7pNN4vtF+ppIaxKxT84aVgGy+DFtl9pa6oipppHaizPSndMPZT1DRRDY9pN+z8JIPhEiNOikOOxcOec8edYELQvVheo4adn8qlyE6R/Vq89Hal9pOkYpk6eoIoB93Ti8OvPo2zpvSisKMfhpiPYs3cPBvv6UVZejqNHj8qzCcwIVPhvWhJIcMSNnIRIZEfcvHmzaPEk9fna174mwpXBdbyegp0CmOBCAwQKZroCyGNAIiZds4HWBwoFggO+k9cQIPA9pFTmu8h7QNDxhS98QQDCj370I/mdbgVeT6FBYEDwMZRLQ08XzYOgqZbdMQj6ug+axaA1Va4zPtttQeB5rama7hmTB0G0Z1bYTDCQmMoQaZHVWvSxJg2VE4l3UnVQ/AEqSUNr3ZJSy3ojzsG0QlUTxC+1QF55+RVUVVdh185dWHzDYhnblR9fKe3XriTeSrZREfa6volo+axd4jXAldOm1DWqDxIOmZHmmkgkk+AWwbHX8zrTnNYAQc/pTFkMwwEIw4lBcI/LR0RJF7tzX8T1euGJi6FxO25atkzkaPeeRgz+6j/R7M/DnK9+C/7iUiTiZLSysaepBVOrRyIeC+P5V1ZhzvylqKnIhxXKQcgTxWA0G95gAicPHEfJmGoUZTPgQMUhcALY2SFkxSLotz3I9oWARD9inlyEggQgzOqycejwMdSMqUC85yRe29iKBx9YDD9rJlhAa/MxxLOKUVGaAx+zGGAhRm7+gEN7HEnAFwzCh17EEoUIZgO+WAwvvvAq7OxCdPbbuOfOWTjYuB8nT+1H2+kBVE+agLtuuxm5ObRSUMpdeYCgLQgkrXFH/5rBPdKHtn0WWYlmFxOzcMN2lJaPAXmjhePIykLSF4bHOtsiojQTHWr0QcyiBIVqg+XBP9XGkilv++xr1RS9OumMF7E8UpeKy0vopi10tJzCmOoqEZSZWN/cqY9mUB03YQIECnPdb8rFABw7dhyTpkwQIeJhTtlgP5CVAwT86B8cwNo1a8SUr4snUTun4OXYk8aYIIDAgwCBZXkp5Ml6yFgACmpu2vw3zfIkwaGJnACADIp0M2jXAi0HfI5+D6mZaZ1g2/lcvoeghKyKvIZAgyCAlMu33367uDLYJloQWKOBFg7OC7oW+F5aksrLy887DJmCFGWu6poczpxzZxqI0E4mM1p2TEEyFAOjO4jOHDu+W8cgaNCQkHomtmjeDKrmckvEk8KgyDTmNAhMpDRsCmoKbH5Cuvy8BwmpU0Km0/R60t/CU8ePH8PatW+ju6sL1WOqMWniJEVb3Xd2aWUFeGi5SAPwc1JEpcZKAn4WQdJ9yRoR0r8apNgCiklVruNKNHC6EA+CJkrSlU15n3us3DEeWha5C2TpINpUn7PmilNiW8+Hqw0SrvsYBE78HQ1bsXDpzaJdR9qa0f6f30eibgZG3/sowoODWLduM8bVTMALq7fgsysW4qmnn8KufUex4sHP4cSBVaiefCOCXg8aGnZh7rwpOLT7KCYvuh2Lpo/Ezm0Nkja4d089ln3sEzi0420cPHIMs2ffjOZjm+ELVeOzX/gMckNqga9+ewuikQj2bn0R3uJF+MY3P4Ec24ukFcfTP/4RApULMWNKMframtHXbaN+97sYN2kJAv4wtm+px6gxk+AdPIO2/jge/fIXMb7QxobV6xDOrsabb23AbTePwukTFpbeMhFvvboF93zyUZQWZEnGQ7oq5JXVcIdyMQh5ilM1UC+ioWIQ+Hv95m2Yv3AevTxCA8v4kYRUu7jUhCsqXPXcI9N7MvXlpW7PBxH9w7xHk0LRDL9nj/BH0GQ+nDRH0wSu0xwpgM0Nj+N2+PBRTJ4yKeU+ox0srU8Os53nuYwCnOuc7yY7otYw2Sb+RoBAciICDFP7/PBvvvgn0JLBviXdb1qjVvPFFAZXq1hTKnYiyVowFjwBIU2W9sXiLFIWSNdTcTR40zpAzZxjHjC0fFXcTFkhtCWAlgddAI1Q/tlnn8OmTRtRU1OLr3z1K5IWTssjOTk08yevo0vDfB+fLVYNx63H6Sz7ilklkQRdCUuBBueQAmiB9Cxkm839SAMyd2zIcIiShpPFMBQPgjum5OJn2KW949cCIDTW12Px8mXws7BQfweaf/JDZC+/DcWzFyEQ6ceLq15DXziEls4sLJpUgl6/jc6ju3Cy2YYv3xZGxa7uKO68bRZWv/4yykfVIhyahBXLy7HqpVextfEUJk0uQnHlTNjxJBbNK8SzLx7HpInZ6OvtxYJFN2HapAokEh48+dTbiCW9uO/WUry5sQUrP3ELsi0vkt4oGlavxfa20Zhdl4W2o7ux+Z0TyB2dFFZAbyIP9983Hk8/2wDLn4OFU/LRMRDCirsXoGHDGkQCE3Dg/SaUlzZh36EQPvP5JXj7pa245/GPI0+yN5QPQ2ViXNnjUgAEou1t9fWYu3AuvKxiObgJkfAOhLJugid7mlRyND8sEg4jKxQaMljsgj2QyQiQoeOGedkFX3c1LlDeNFX3mzrivj37UVxceMkBwvu796CsrFxIdxiXwyBTFgJTmToXtrdw83YH/WU6N1QfmuZ2bU7W95vP+SDvSVuX0jPhfG2jq4RWBro5rmWAkCTBl1OKXH8Zs4ToTtDCmO3PSABkWyLg9SElxXV5dE2SlkwgGEiXFN+3fx++/Qffxh98+w+wbOkyGW/NOcDn6DHMZEVxC1WWVTefrWNhzga9cakpoY+PAELm1TOc9fmB965rgSiJLoYtDfVYftNS4QVgRaWje/ehsGoU8stKJVthX+M6bNvdC19+LaZUZ+PlF55FW/cg6qbPRMepw5gwZz68J5uxrfU0Js+ZiMJ+H3qSMbSfaUK434fsXJoIvVh4053Yt/4FHOvzobi0FoOtBxErKMdXv/IYaooLEElaeO5XbyHc04zT3e0IFIzG1774aWSTsRTAljVrcOR0L04c2o6OiBdTyitworMF0+beiljzThzr6kQvylHcfwJ9vjw88ulPYfrYEvy///Dv8BVORl5+Pm5ZNhL//oOX8Du/8ymse+0dPPDoynM45T/wgH7AG6kJMEiRPmOtJV0MkyIXtgCEhm1YMG8ObLsXka5/Q7D/JXT1TEf+xH+DFfCh+XQvxleGYEcH8NyLjbj1waUo9rKITAKHTjZhbNVYqV8vtenpD09lILIapwo29XjCiCFbSnJ3t53BU//1KsbMmI+8Qj8WTirFwf2ncPxQPQ639iI0shKfvP8OoWi9FlKSPuDwpG6j+ZvfQguCyUk/3CwGdy0GncWwrXE77NggSILBqqYCSjK4YUjHQ3WRQblS9VOsRNQb/+e4bNiZ2pSeaU7QmsHsCbo0UtqskW+vz7mD2rSF7UJR75nuc7sdMhElcZ88y9/vBAK63RduM7lbYPPfbOv5aIbNuAheT6sK3T/PP/887r77bgFQDEilFYW03+eLW8qkrWfKGNAme92/w8n2OMd94WTDXKhY0/nST80x599Ntx3f91GQ4ofdxYZ5v15Q4mLYuRNLb7pJmbgkyZ8bkQXLR03GAqIDwpMQ92SjIGThTGsz4r6Q0Cj3tJ2AJ7sIZQU5aG7vRfK/6Wg3bqjHnXfcgVi8F9mhkQiGkujs6EFWQQF2vv0qNu9rwf2PrERFjgdWMB/xwTbs2LoDEZ8PNWNnYsr4UvR0dSG3qAzdrSewa1cjot4gBrp7ceOtdyI3EIMdLEB5dgitnaeBUCG6DjXi5bXrMfOmu3DLtPHoilkorypDlpVAa8sZxP3ZyM0pwIj8QXR2+5BX4IHVm0CoMOeqCy8zBsEMjNJBitwweJ6bGxeIWcBExyDwmu07dkgRHRaEjJ/5N/SceAY98ZUYM/PzQmK1//BpFIb6sWXj2zh0Ionf/P0voSQQQG9PO15/ezNyysfjhmm1OLBzB0LBKA4ebcb0eQtxfP8+nO4YwPSZ03Dy8EEE88pw0x1LYQ+04v/57n9i7g0fw4Gd7+Gm5XOxa38vVtw8Dk89+SpuffABzJhYc5YwHeb0vCYvI0DghkyA4DbFm6RDHCsddJX2RavKqTTla5+6HtfGHTtgxSKApFh6xZKQSeTrs4xddzidrrtqm+wjBigyFdLsOzP/PZNmznNuwe4WYHpc3KRIOp0uU1olf+OhAYKpUev7zJgS/WxtJUnHEqTJhdyCzy2M9fcR+PN+ppcyA+S1116TmBLGdsyZM0fmGIWxebjJrzIJcRMQqbgFKwVa9P16X9FBi5n6XM9f/qavM10MOn4hUz9dKP1Ut0vvdXrsTAD2EVHSFdgmOfFZ+W3ZMmW2StuUqEnazPaHX+Y2I/4VHYgiBlGUf4ochGSjytsNK4EYmROpgTJ10WYAokonTCAGf9xGDCGQD5lURuIwxyBg5SDOVEYvGRJi8JO1kZpUMiaBNwlfjgTeUWkKONSmXoerPulJgmRDCSsbiaAXIUmBpI+QceFMqWTrowDInkjaYHrlE/CRs+DKhhtkHNELpTnqzYYLm4vNjEvQGhE3gm0N9Zi3YDZ8nhDQ/XO0Nr0Gb/Ffobi6BgODwKath9F3Zj+mT5+Ad7fsx8pHV6CY5SytPjz/wgZsayrEFz4xFs/89Gmcae5CIhhDbtl0jK3MwegxhThyJImFdWNw8Hg95i19ELWFvfjnf3sBMxbfj5B1GocOvIdB/wx8+bHZePJ/v4K7H3sI5YXK534xJu8rMO0/0CsIEJjyR4Bgpntl0ogyke2YFgQN0DmeTBVMxmPwBrIkAt5nJxBLnBunMbKsXKizB/v7nQAzRdBz5Z1iH6j75CZ+L4MWufEz2NNtRWC/MQiSAMG0pmlXhb7ejEEwBbQ7NkQLY31fpjoLbt96prFj8J2prXO9uQW9Ji0bimZYjznvO58FwbSG6HXDPeKnP/0pPvGJT4gFgec1UZXZT+7MJ34Lv93UxN0kU6bFQr8vU5ZIJkuL2xrCNjEQ1w0s9Ljwem3VOF/tkkwxCCYgEdljyqsPPiU/1J3XvYuBFoTGhgaVnyxFa9Sh+QYoSJmGqANoMvWm8tUqngKpLiCmTwUq0l5UxTeoGAzJIqgpi2TbUMyDzksdBgUnA53PIAAR6gTjMGrgksxJnqu4GdLARZthecbhc3CeYXlYQIm8Dh9qflySmz9sDIJ2MbCe+/z5s+HxBuGJbUPLsfUIlH4RI4qyMdCfQH3DEYR7jqGntwNNXRa+/sXHUZjNvhvAK8+9iz1HulA12oM9+0+janQFCgqzUD56PHY3rEc4GUdJ2RQEYj0YtHqw4hOfR0G0Ff/HX/0r5t75GKZMGoW+fa9i58lcfOPLt+MXT7yBOx65HxWF2Zekj66Fh2gXgyYI0m3KtAm7N9ihghS5yTVs24p4PAkEQhg9qgLZ3iRaz3RJsB7vYwYCNcXyikqc6TiD8EAfggE/otGwlBFmqWBd0ZOCh4KKz+X9BCX8z9ywr2ZfcpNndgXTJplqyf9MF5QGCMzO0IfW4q+lIEW2SWvGup26BLXb7XB22uG5VQrdcyWTe5Ga+Y9//GM88sgjYkHgwX3DLOOtgYU780lr2hqomyBJZyeYgl4/h9Yu06L5UZDiuSvn1wIgkNBk6dKlaUTmaOApl4MWokZEt5LlmorIAQPCaa+tDBocGLVqU3hBValTtgfCAQrvAHyIC7NgWmgLo4Eo+SmCpNTjeJ+CLfyNjIfiOWdKlCcNZ4zLQUsDn8brzWuu5oapF3omoqRMWQymBYH36s2Fi3rr1gYsmjcX8DtcEPFexAMjVBaDlUBPH5DtG8Cho0eRW1SKwbZTONPfL+DswNFW3HP3EvR09CGroATZ2UDLyRZUluZi64ZNqN/bjgc+fr+kswazR6J6bAWS/QPYf+AwcitqUDaiENnoQHt/LkaXWDjTPoj8kcXI+hB8C1d7XNzvvxwAgeO2o6Ee0YQNyxfEyOIiFARI7R0ULZPWIp2B4AuEMNDfj4L8HKHNTiRInZxEVkiBMJ1apv3JnBs0TRMwXCsHAc/OnTuF5pkHAQJjb7QQJUBg+qUZg/ARQFAujieeeEIAo67noS0IohA52rR2s5hWFSFHY3CRq8aLvka7GEw3Dp+3YsUKYcvU930EEH7NAAInBideQ0MDli6lBYFC24av/wyQlQsrkOM4EpyS9GRKtLywfQyX8oler+wA+k8iAFXMScr4Ss0FimhtBo0JvS+5BtK16UiERLIRRsw6dRO0BcIR9rIAtNtA0ckIeRMzDxhXSYuFKrSjfqPlQv3Oc04hIPrlxWohTxPbhl/a6FGUyapig8PImAYYV8LAkIkoaaigK3eao/Zf8nxjQyMWzpvnAAQGs6kCRI5txeGLV+NhJeJoOXkcXX2D4gYqKhmJytHlUrpWHU7KVTyGpqYjSHhCGDu2Fn5fGvCpK9KoUdw6qgRVqo/PZ3kyl1sKaprg9FqRak47tIuBm+ZwmBTd1ek01bLpnxaAsL0eMfIfePyoKB+J7IAPMVbfjEYworAA0cgAgiwtHMxFNBZDQUE+WltOIRIJIzs7B8UjilNWBprvaTHgu+kKIRUzeRGulYPzlBYEMjWOHz9B6KHzcvNSgZaJRDzlYtBt1gLMbZI2Ywm0z9rNRTEcX3emQEJToLId3CdpOjc1au320O10m+553k3M5LY2ZVrnpsnf7AMCArZDC3bdJnNsM8XCmH57Mw5DWxTMvtPn6HZmwSyycepjKKIk02JiMinqGIRMmRVmm8x+0u/SLhwzBuEjoqQruIr1JOQka9y5A8uZOmMlEW85hbY1LyAwqhbly+6AHSSHv1QecASuQyaU8MD2KcEsgtihEUinhjmCxk4Kx7yKuNb2ADL7qaIfJOQgCxKLLfUPhJGVF0KAOq8I/nTxJhHs8kjWOcgCaX0JZwRouC0bBBYsmMT0SAIeoYVOirOEsRFJxkGQJYwC1A8pGpWgGyURR5KxD14PApoB+gqMiS6cQ6Ik06+mF7vpd9WmYxHhTjCc3swaGhtBNkYfiVqMdl8JkPNhuykjQNAWp9TYn4VdPuwrL/p+AgSa+kn6Y7Im6g3WFEZaMGgwwLE0AQKv1RHtO3ZuRyJpS8n04qJCId8JD0Qlp125CcIoKCyEP+AVGuVAIIjc3BzlOvB40dfXi8LCIpUDHwggHo9J2hyJbng9C3ZdC/5aGUbLQld3F0KhbORk5+rypinSnnhSBSmyj03fuh4sfgfPa3O+Xgda0Oq1oNeGGyBoHz2v1/9prZv38D8zsE8LY13NUbdD32vOA3eAoDbfZwKT+tt0O023QKaAPB3BL/TNTtAy3Q46SNFtQTD3h0x94J6/2uqkv+/dd98V9wWDIfW36hgE0/LA681nmQW8NNjQ95kujkygxewDkQ1kc3SIkXivHnMNzD4KUrzoLezibyBAqN+yBUuXLxdtv+/97eh87kdo9Rdi/ld+D76SYhHsLD6kkt8sRC0v9q1bjZKpC1E1MjfNgexlJUe6CiJSmlkpoxaa2nrE1DyqNCdVpVEVW/LjeHM38nM8GJEbwHNvbsCS5TehLE/XHDdjIhh06MGpQ9sQzq3BhFEjEfMpQhkGNZJqWQkZWjko5C0g4cW+k22YXMM0Ox/C8CPbSuLdN17HgTMRBLwh3HLHAvSeakFfJI4ta1ehPZ6Nu+9YihsXL5DOvBLClRYEEta4azG4TXr8NzcHM0BOByny/Nb6rZgnWQzKjiKHKWQvOD0yMyFeiV5INdMILdFMb6rZqeCSC37F5bqAAIGBdW4LAseFG9iFUtcypTnSMrytfhsSScfiZhOKK/dZWkNV8Ttij5Ooeoek3xGWasPWXAia4VJBRKXF8bfL1SsX/1wqHJKaKYOe/hY+KRaLYvLkSZfMxXAOB0AsdlZWDfsuU5Ciu1iTBghaEGeyarhjEHRAXqbASfdccdeVcAcEut0sfDb3DQbNmlaNTNq6uw/cloBMAZcECHy2tiBk6qdM9w2nFkOmmJ2MfBGWdQ4hmdsNcvGz79Le8WsRg7Bj22YsXnazMkG3NKPpJ/8Ca8JsjH1gJVV8rF39Bo60t2FCTQ22vPc2Jt50H3a+8XOMqF2EEXYC7eF+jB8zHodP7EZx8Rjk5wCnT3di/uI70NhYjzET61A1qhRte9/Elv2teOTTv4PxlUkErBB27GrF4GAntm95E4fb+/G73/o2qopUuuV7765H465dmD5tMrasW4eJC29B/FgjmiJFmDIiB7ubT+LWOx7A3t3vobOjG8uWr8DWzW8hr2Q0RhSVo7+jByMrx6DQfwJr3mnEwnsexW2zq3Bw92acSozChne3obbKQlEgH7OWLEfXwXoc7C3E3bfORsDhFboS+6q2IJg8CENtXG4Xg47mliyGbduwgHTNQmaQRghqHx7Ol5wVBeo84Pz3aQ0507I732+CXQyCHwUQ+H8Llu1TVNEp6uZ0AKpjqLq0q9x4mm4T/2Q1wieffFJqCHCDZiwAN3v+p7VNgcCORqc1JPPb3Ju3qeEqzcxCX08PEuTuF2DH4mMW7EAAEydMxIp770FFWRlsBgFn4Fcczqhets760A8+F5DGE0lMnDRJKKT1kUkQZYqyN9Mch7IgaOFojksmIO4W2O7S1pksCLpNFwpS5HdlcpeY4CNTNoIp6Pl+WhDMzIpMVhQNWsz1nwl86IBLvpd1NTZs2CAWBPItMB4kU+CkOS7aqqDJm4bK5OC3u10FphVFj3mmIFBtRRneXvahJ+ewHnDdAwRaELZtq8eSpYoHwdPZib3/9b9RfMMdGDl/LgY7u/HK6+/grvvvwdZ3VmPHljfRUzgDkwrDKBk9Gy/84nmU15Sh9UwU3/itlXjj5XUYPb4WdaO8eGNnP0ZXlaOqfCTsZBzHt6xGQ8txzL9pJR5dMR3BZACr39mPky2nMWNqEd7ffwi333UvRhUzkNCP555/BUtvuQ27d9Rjw9rVGMwpw8Nzx6ArMBovP/EEimorUFk7FzVVBYBvAPt2JlA3YwTWbXwP2YUz8cjDS1C/cT8infuwb9/7CNXOxB99+SE079+K5uQYHN5zFOVFLTi4rx0rvvw1RPeuw56+ctx/y8RU1MSV2IB1DMKiRYs+UDVH7adjFsOCefPg8bFAk42O3m4hh8rxDJ+4N5lUiXMswnWxhylch7OIzwUIKpgylgwgGOD7VXVQxWQIxJLcWK9Mrc2Ojg58/etfF5+vFviXAyCw6l9HT6+4GMAqm8Lrb8FreUC+/3ETpuDRxz8Drz+oSo+7hiVdeOxiR+tauP5cgBCywpgzfepZACFTkKLb36+1dXfGgHZJmGDDbR0YDlGS24KQCSDo9MjzAYShrE0mIMkUg5BJOGoXw1AglN+c6b7zAQQqHOvXrxdlg8GQdFnyv0wAwRyXDwsQMhEzubNEPgIIV3DNckB1kOL2bduxdNlScfrbsQhat29CXvUU5I2qQGRgEP/1y1dRWzMWrU37MaLAxpGuHIwbaaN30IuTLb2oq6vGzt0HUVaShxPNfSgrG4HiQD885fNROKIAI7L9GBzox76NW2AXxlBVMwt33zoPHsuHDVuOovXMaUQGjqG3ewCPfvKTKC5i6VQ/nn3+VYRyc9HbeQY5AR/O9Cdx4+Ry7DnZidaTpzBm8jiUVtQI02NnrBeVpTegt3M3+gcTGDNpOW6+bSI2vb0TR/btQkmxHwOBfHzx4/dh83urcKwnB9n+LNy5rBo//ukLeOg3fhPhI41o6s/HrTcogMDj4sXkxQ+iTnMkyZHpdzV9d3yqdjEwsl0LV60RcSwbtjXIYo56gVNnTiMZj6MvEsb4ymoUBAMSzEmNlaWwJdtDcjpsWDbT4kIihPfvb5LIxslTayRoU2eawEpKfAY1+2h/D061R1BSaKO934O8QAz7DxzHrHmzsOGdLUKMNbPuBgR9fdiy5wDoCyquGI15dWNwrOkUysdVoe9EE/afbENBwSi0Nu9B8chxmD2zBpvWb8aA5cfSuTOw7+D7GFNbi8ZN+xEoLUBnawvm3HA7xpVd3tRJ9u0777yDf/zHfzyrgA4Bgs4sMAGQHgtlzj9b6JnX6Q1O5pVj0SFAaO3pJxW+BPVqt4rK7vEht2QUHv/KN+HPL3Z+c1l5HDrmi591595xUd6oS/FCD8uwk95cBfzQcjIi2opFdeNFa9UWGW3ONwX7UDwIF2JS1CZ4PWZa8Gk3gI4b0Ix9ekzd1Rz1/qnBuV6fWtC7/e8aZJrBd7oLUyZ/WzlfWJWRNRSUpUqNCmsj0B3D+CJJR6cFobcX+QUOk6LjSmIlSKFVd/YuBn2yCJM5D/Wz1fsdoiRWgZT4lTjoStu8eRNyc3Ixb/58ySrhPij7EYtKOQ3XsRoS8yQnbfT39SM3L1e1gTLGZsVL1pVQLmAeMVa9JN+NU75bWRBiElujTZ9JixVjLQSlZgUjrXWVTRWDoi14w1FELsVUHeoZ17UFgZNMWRDOTnPUaFB3PtGzIPagD/GYhaxgDoJZFiLRCGBlIxLpxY76t7BqVQPmr3gYDyyqQ3/Sg7w8xieoMsCyEAf7ELds0Iz45M9+ikipu3zRAAAgAElEQVQ0juqa2VjxwI1IRKPwIhcb1r2J7Y3vA34P7r33XtEkmI+rCsrkISvkweBgL3zeEMKDCUTtCJ790fdwMpyL3/3tbyLfG0MsVIhAwIdQALCiMYnY74vZCIWCKMj2YaB/AJGkD4GsEPKzvBLsRb++3iz4vit5ECAwBoHC3TTNZfKNul0MZpojfdkL5y1AU1c7rKAflYXFOMEo9jPtmFE9Gq89/wZOtRzCbfc/im3vvQtvIB/Tpk/BpnXPI5RTjYLyURg5ohrr33gTleNHYMa0hdi9fyfmTxmHt954A7Nv/hhumj8D0a5mPPNKA6ZNyUU0NAbRtl14c00DHv78b2Pz2i2YWVeCY8fDyEmcwMi5C1DsycfL6xrwmXunYd3G/bjr0Tuw+8Vn8NzWvZg45R7ctCAf7713BHfdOwdrXlqDj338ARzauBY7m47iluU3YvPru7Hw4/fC7j6G+hPAb9y36LIPz5tvvonvfe97zvxVgp9rheOjY0BMzU0EnFHFTzfQvMYdxKav6RoYxEA4IiRhBAUUmLQjMMQ2t7gcn/qtP4A/r4Q1hi/5d2vPk9rfVeBe5rLdl/zV8HgT8AhRGoFqAsH4AMbmA7Mm1zpFiBQ8vxgXg9u3b6b4mUJc7UtK0Lo16kxEScOhWs6UxWC6PfS38J1uS4cSek4OFoPFnQBVSeWmBU2q1zpzzAksEoBAqmWvylhiiWkBQEaRpaiUoPZJwKqDB2BJUSmzvLSFhK3KRHM/YXnxzZs2qyDFuXOkeqQIaKfIk1aa2CYKfQmcdCSlMCkSIHioeqg4E857n98nIIIB7cl4Al5WSHVSL3kvQUMwmK5PYSfJM5FEQFeYFIDACpPpcTMtNZd+dg7vidc1QGAXSJBifb3Uab8wmQo3EE5YolhWR6ADllplEgPhHgySurisDHmkaebMkAAkhSwF8ZFcxOMDK5oN9HYps6o/ByXFIXgsxSk/0N8N0tKTSIkT9KzNWHgWqHWoTcy2fKL9DvZ1I+LNx8g8ln1mbCKDxoQ+UTYgTkyVOUn/rtpkLSGF4sJKb7ruDV/tmZd+U3ZPPQIEonZ3kCI3HDMgkRuXGyCcFaS4rR4L5s5HbzSCg6dPYURBEY4cPozyvBEYM6oSr76+HmNrs9DY2InCfB96egYQzipEXWUchw6fQfuAFwvmLUJOog9HT+5BZ6wMC+dMwKH699DW3Qv/yFH42hceQ75nAL988seIhipx980z8cwzL2Ew0oOCMcuxdUsDJozMwoI7VuDkpn24/fO3Ij+ZwF/+wxOYPsHG8Tbgt7+yAk//9GdoGYii6VQZJk0CirNLsfzem7B74xZMnzkZq555Eid6Irjv7gfQenQvtjdH8OkHbsCz753AH3/p3uGt3g9x1VAAQVsQtIDRc0RrNHq+mFYFmW8Ona0JAHXz4k58QzjGlF/lR0g6lMsFI8rwud/8PQTzCp1U3g/xURlu1e2lJSOllV3aVwz5NLrBKNhoOfBbYZTmBjBnygQEfJ5zWAvdroJMjIiZBD3vOx9j31CxPsMJUtQCW3/gcIiS2EYemYIUNdmLgJZ4QgVTOtsPhaUaH039qi0IBY6GDdHWubfqQlCi9Yu27oXHsSrwgbFE3NHWnS2c1RyTFOJpAf3uu+/IGMyZM1dp9U4wZyCLlgAHuLFNjKcQa4F6Vm9PtyJv0u2kxVJKRytAQiI7Fqdim0xLB62d5vuZ7cJvZmaPOmyxovA5max3V2jKnvOa6x4gcFIzIIX+Jp1CM7Rg1EZI3S38N1kWNa8B2RQ5l1jY51zB6gE3QGoMHvhIwyw6kiI3IlmP5YsKJ4HXCsIiO+KQw6Fz8SngE0iQwx4eZFlxqTnABAbFW8/dR7ErSnsIbkRj4V/55itnVM1kCtObMzcNssmxFK/bxWAWBeJ1XGzmOa218Hz9tnrMn8cgRS9Ohwew++B+FAZyUDemBnHbi031BzG21oN33jqKjq4TsC0viifPxsLxHuzefQotp3oxedZcdJ46hsFwBwKFU7B00QTsePdNePJHYNz0GZg+YTSCiOPIzrV4enUbvvTwDDzz6kbUTavCxoao1M+YOSaG7c1tKIpHEcnLRX5WOU60RfCNL8/Bqpe3Ye7kkXjzna2oHl+Fnz25D3/455/Fe6+uwszFs3CosRH3Pv4bGOHtw5rXV2FE5Qy0nNiCLXv6sOL22WhsSuArK5dd9v3ABAh6PWgXg9uCYAYp6obpsdWgW/usTYCQBhECoZFIJsAyv5LC67HhsywUl5bjL/7yu5LGaHtULQ6OOc3G1MJU22j+5aavgidFwJAKmPibZYSdc1JWWNLGKGRo/rUxODAgqXL127ahrLRULHYe1vswiHW0OV9/C1OTmVIpri6nAbpNfJ/urzR4taWtOq1Tygo72SrUZqXwlM9CcX6exEH1DwwOSWus+8yt5Q9lCcgEENwBiJmAuBsgaNZCU4ngO00tlpZI9smFghRNC4LZ7mQigu6+MBJJiQZDwOuD7VWUzmZcgnZ7hMnNkOtYabklMrjVVhq9EqkQS4SAK4OwzIrFBaDoecBrCVKp5YtS5fUI/T7nBQtnyftpLWAVSgpoZ5Kn3GmcX85cpHU2OydbuQEoGVLARt3lI+dMgsR4aSsKJQHnq8w57XojZhHxolhvCvOy4BcrS+Cs/r3sG8EFXnDdAgS9YXHx04KgF785uc/Vnp2poViLVNc5UVJeavNeIko6U1l0xrEwGB3MKnSWmJ5I3qwAAsvbei0VvU2rgSwN8Y+7Dj0r9XtlJqvX85nUQlStKT5BTWKhbJbzur1GLWfHsmGE+1+2uTaUnyylvVmWkNpMmjTprJQlboLueAPeY57TAIGb73ZmMSxcoLQF2yP0yAHbCyoG3NQ7+5LIDw0i3O/H8VOH4fHlorSyFgXBLvT0BhCPROHPzsbBPQdQXl2OgqJKFOYlgHAUjXv2IW9EEWZMmQg/Y1UivWju9GFkgYXBWBJFBYU4cbINCBSgeiSw53AbqivysfvQMSTi2SirHIuJNUBn+wBCQRtJKwf5RR7s39WDmrpS9J/uRH88iYPbN8M/ahJuXjAFEZL+BPKwf3c9RlbV4cjebRg1dRFm1xRftrHSDz4fQGD/u7UYWQoZMkXO52LQwk7TkeuNn2tQUZFZKCmrwHf//h8xIj/PIQFjKiABAn24BOecwcpM7vcTICjJwI1Z8LEAAmUJi8fp105rYJwzGvSsWbNWSiyTg0ARAqVNuaKt89kE26JMKr+ymb6n25QmGFKgJS1olZuG9yq/vUpxtOJxeP1+JEXAeOhPQHhw4KzKiSYvgR4fDVrMieA2518onc50MZikSxp8mM9mP5lESZnSHN1ZDFr4u58tgtIR4vw738f+276/Cc0dvUh6syVg1eexEXfNKak+Lnsh+1NVN1T7sKOSmRZRZ3ak6e7VpbJHOnMi9Y0O2EkDMAdYyJhrt5PONVK7c2q+p/ZSAhkFmvRz0u5q/W79xrRoJUA853qpsyOqJDzJCAqzgIljRmFclYpN0e+/2m6G6xYgcDER8XKhsVoYTT7UKFLDl2mzS9kFHLZEEeO0HvgRsCzECQDFz2QhqSfuWQBBbXscdo8dF4DAqpF6m0s4hEpeDxkXM0Xea42fi0Igs/AqcGn47Dji3izHmqE2Rw6eV96nzXKWgBgeBDTuhXO5pI4GY26NQ090jgUtCLW1tengtSG43rkg3IFY3Ki5yezbswezblggHJeBpAf8RLXtclcnYZVfLC7ktWD/JaVsM/8egW3nSpS8n4W16cXxC0GzsFtKUSuRGEr4ENQpIJdA3OOHjzwUVlACGOOeKGeDAEXOC6+k72mGTB8SDquVXwguI/Aks2D5BuG1AoiTXjjSg964H9n5uZLUpyispFWI9A/CzssBjaqX+xgKIHDMTAuO2Q4tcPTm5QYR2tKgf9eboviZtUfOthweCxWwNuK/SZn+8jvfwciiPIlN4FxJuQMcn7QImf9249DUS+2f5lmuFPH9inlZnUsJUId7gO/v6OzEq6+8IhVdRxQVYd68ebjrrrtkkye44H0p37p+tk2AZyFAQS8SR1kjZK4Zm73yPauia3yXCFVtXuczbC98NG37PIh7LAE8dtIWVkhaNHX/uaPled4kotJjoAMQVZPU+0zXhD6niX00INNatx4P3U/m79wrdZvM9WwKejMI1d0mUxngb2kgZQlwa9yxE83xPMQC+Ri0A1L227biCGjE51hEtSVA9hJnj5Y+lQBHRUSV6jfGLqSsTOm9PWAYZ/XZhDMBGcdAIJgaxxQQUZsJ17M7c4Y6m2TYuMZfnuWc1+9hO92KpyVc+ooPQ1/HbYO1fag6Bq04spNhZFu9WDJzAvKdCpa05Jkg9XLvCZmef90CBP2xXPw0JwnFrsePopJSZAe8ONN+RoIJZTCdRV9aOlJQK+lbzUHWZWiFoEdUDE4YDm1cBtj2BMQ/lsntcDUG9Wq8k4x2TU1NqK6uFrIdd5ASyXdozhsqSJH9zQ0oU5BiuljTVsybP+8cExzD3T46Lq4HhgIIBAccJ1IEb9q0KZVZov33el3MnDlTxnj79u2p+AMzbYvXc9xYnY8Ckb9xHZ44ceIsSwQZBf/u7/5O5oy5Zvlsc65kStUzBRH/rgW9fg7byrVMeub33ntPvolWLFLsmoLPzBjgvWyrOwWN2nOmgEA33XSm/H6TVY/PpbZO83YmgKDb7m6TaarX12SyIAw3dsHtYnBzDmTqg+HEIGiAF2DQnsBsC62nO7C68Qj6g0VIJgNo3h2FZ6AASV8USAbFMZv0DCCroBXVU0rh9VNDD8FnxwT0012qhTaFtYrr8CDh8SLbjmCQxdtoSUQMMTsbPo8i9jrXQnxxa+RSXa2yqRRqEYXPJuetKv4nsWKWIsRjxd5F44owfVy1U0vHrAV0qVpzcc/5NQMIPhQUl6J0RD66OrqQV1AoAok54dRw8/Pz0NXVKedobuPGxoUUjkaF+pXRqdlZISHwoNm/sDAb3R1d6O2P/NoDhNOnT2Pt2rWysU6ZMgV1dXUpTZT9SUFAwWOapC+2WBNdRXMXzBUNVNB8aq5/BBAubtkDQwEE0mFPnz5d5v+vfvUrCfI1YxCo1VBQzp07V/4kIx2FJM9rIKA1XI75/fffL1X69GaddjuoFvOav//7v5f192EBgjaBmwCBJFCvv/661EcgCKEF4e677/4IIBhR/hyTywkQ2k53Ys2Oo+jJGiHCcEblOJSHVEXc/riFSALo7O7FK28+i7p5C+HP4nr2I0mxSQusWOPisMAURLptSUJnI5CI4eC6l7GrpQtLb/84wqf3ov54AvfeeWMq3iCDM/dil8oluF7FxBAwMc2+r/UI/PGwuFfs7AIUlVfD4wvCb8WwZGwhptZUfgQQLkGvD+sRZ1sQfCgsLkVZSSEG+vqRlZ0rG0VUysX6EE+Q0x3iH+TGSITe29eHMTVj0NPTi/zcXEQGlTbEbIXCwhDaWtpwpqPHMTVd/oyAYX30VbhIAwRuNqxgRw1TV2UjQKAFgcDB1JoyaVtDZTHw/DYhSpoPjxModqU/0y3crvT7L+X7zheDQFD86KOP4rXXXksBBK4TAoEHH3xQ6h8w4JRF0JidQpM9ixMxKpz3UFDzoKa+fPlyNDY24uTJk3Kf2w2VyYJA7ZnvulgLgpuMRgs+Pou8DwxQZAwC03x1rjmvGY4FwR2DwO8zAQnntWjPLqrwTAQ5TKs2yxifLwbBBNQfNIvhQkRJ7IOhiJJMH/hQ7I5uayHdMaYFoa29E281HkZfsEiqxUwaXYxcOwp4AugdiCMST6B3YABr172FWQtvBjMJYt0ncWj3UcT8YYyqrENJUQA7dx+RPbikvBD9vWHEOpvx5o//HsUzbkBB9XyU+1uxao8ff/DNRyUWRWUhXht7siqj54U3PoDjOzei8+huJLwBjJo2F5WTZyHpDSBgxbGkthDTaj8CCJdyr8v4LG2y5sLmBqVcDD4Ul41CcUEOwgNhSSlhtHQ4ElbpdtwsYsoX193dLTEMBAu5+XkCJKi5dnd2iYnQ9vpRVlqIeIwlZ9slq+DX2cVAM+6+ffskzoAkMKYJl5tmcXGxVLFzb/qmv9skShILgVOsiRsQn7GjcTsWzFsgHBJk4esdHEAwO4RcunuGQbU8VJ6+1njFp0y/tONT5nkzSt98h7lxu33xw2nLZV8AF3jB+QACBerKlSvx6quvilVAB7WxPO6hQ4ckpodaONfH+PHjxYpAgECmTIIGrh32Jceb97D0MSltn376aRw7duwsFxEBwne/+12ZH9oXr33dZrCWO7DO9NvrT9U+etPXrutDkD2PJccpmPXvGqyYXBt63p3jR3b5+3mdGRPAZ+jn3HPPPeJC0NwjJtkQn+t2MZgAQc9BDZL0t2kAYgrsTMDCBCQmaDEJjkwqYP2dmijJtL7ovtDn3JkVZh/o57BN1Jb8DP5zTOttHV14e2cT+gKFUva+pnQkgsk4kp4g+vssSUvsH+zGpi2rMXvRjfAHQmjd/TZ+8Hf/H5aumI0d+09jQlkeoshGZ1szxlSVo+FAC6aNK8fJre+geOYN2NecwD1LqrBmXz6+/TsPCcDU5EZXe62pGDFlQfDZScR62rB3/SqxQs9Ydhe8+SNh215kWTEsrMnH9NoqxG2fqixr1p25Ch9yXbsYuNgIEEiUpAGCP4slnpMgUYVmONOLkqlKZLzioQUFFyQrsKlcWFvSYCQdz+NDwG8hFo1J2o5jQLoKQ3htvFKnKJqpaHqD529lZWXnAARtQdCby1BpjgQRvJZMigsWLETMY+N4eysSfg+6ensxp7z6rKCv8/UIgQzH1vR58700Q7e0tAhXA99F/zuvufXWW6VmAQUN4ytI+MRoeGrQFALUoJcuXYqDBw+KgKAWTc35akcfX2hWXAggMHZAAwQtjL/61a/ixRdfBK1Fuq4G+UV27twpQpcCkWDBjOGRjAXLEgsSXRerV69OVbBjGwkQ/vZv//a8LgZe59bEOUZ8pzug1fT3a2FMkM+xIeV3OkPCcVN5PDK2ZuaGVi7cufyiJBjpkVoz5/WcF1RE9u/fn4rhIDjiesjk7zctCJkyBjJRLZuARPcJ15g7Y8DdB5ksD+5rMlkQ9L6o51ImoiTtJjTXMAFCwMdsLuV7bzvThdXbj6AvWArLTqCmuBjBeELIizrCMSQTQGQwgq31azF/0Q3IDoVwbMfb+Mm/v4nHvnYzfvSTn6Mw4EXZ5IUoyQvAGx1Es1WClQ/ejCf+/I9Qe+MtaNjdhmWLqrDx/RB+91vXFkBIxSA4WW7sk5Z9W4Q4qXhsHSxPCH7bQjAZxrzaQswYWwUGtPs9ToGzCy3my/j7dQ0Q2G+c1PVbNsPykZCC6YKqPDODZyTg8KPj8vWAx5aMACSiKCspw8TJ09P8Iq4qc0MFKZpESdu21mP2wgU41dOFZDyJytJSNLe1o2OgA5NHj8Hm99aLqZQCnEKMGiw3blZto2WD2i193XSB8DwtRTfffLMIsF/84heiAdNETjDDe2iSJocG3SU8R81448aNsuFTGBIMUCv90z/9Uzz11FPyO4PgaHLXWuO1ak0YCiBQoFFYPvTQQ3jjjTfEgiBaISDnaCUiKLrjjjvENM+4kpdeekksCNoapIPnCKIY38PfKioqhNKWpn5To74cQYqmdUdr66YWLBkMRhbScFwMFwpS5DylW/I//uM/BDwxRoNxHG6tm3ONc9QsQpTJGvI/OUiR1j26GFRRdg9a27uxdvthdGUVSFYHM8J8cQt2LIZ+xu4lLfT39uLQ8WOYtXg+QoFsnNz1Op766/9A7cduQXZuASqKC3Di2DGUVFUiOtCHhK8Qt956C5761+9h3Kwa7N7fiVmzp6DpwBk89IVPOSA0neRNJstr6RA+EJ3t4QRT+a04FtSWYMa4UU58lQ2GMw6/0syl/8JfC4CwbfMGxMg4SHONlVDEQpeQ4/3SD8v18URG6Ma9fnKPorKsFNMmTSPvlBwEBJmCFDPFIOg66vVbt2LB/AXojkVwoPkkCkcW49D+A6ii0K+oxNrVa1A9tgYvvfQyZk6fLuCQQo7CnECAGzd94fyPAODAgQNCd03LwHPPPYdHHnlEqhtSA6YVgACBGvO3vvUtMU0zS4MaMjd3AhAdMc5n/OQnP5FzNKV/7nOfO0trvBZH83xZDOxv9sWqVatEmGlTPH33n/3sZyWgjW6kLVu2iMZMawMtM7yPQItCkeNI7ovHH39c+pMuBIIoBg3qjAhtQbjUQYpXAyDwW44fP46/+Iu/kADdb3zjGzLvMgGE6z2LgQRAQYkTUgDh1JlOvNN4CD3BIngtC13tZ3CG8yBpISmV61VmWG5RIcrHVJISDq1Ht2HNz9/Ax776BRQX5sPLcvaRqKQbBslT4s2GPxiCNTAIOxRHNJ6DrIAFKxpEIE+lSJouhnRA87WxGkXwOjESer4GkjHcMK4YU8fqSp82CCOcLfOqNPy6Bgjc2CgkXl/fiIGkTwJBlNXgI8vBlZhtEiBEV0xiQAKTZk+bmKJEHSpti9rUUEyKtAAsnDsPts+HlkgfDhw+ghB8mD52LDzxJH713DPIHzEC3V1dmDJ5slgGjhw5Iu4AavfaSsFNm4KKpuWPf/zjIryeeOIJsSxwk6eVgdYFarc0nxMQ0N3AhUwLAoMtaW3gc5i5QWFJQcmDGvZjjz0m76RZ/Vo9LuRi0Bq2zpXnd/DvHBu6VhhwyGu02Zt91t7eLiBBxxAQQNGUTTBGoKFT5/gs/XydxcBrTFO2mebI85lcDDx/obLC1OrZ3ouxIAzlYtCWB51CZ5ru+a3M+iD4ZJtuv/12zJgxQ9HwOsV32IZMFgRtoTlf6mWmNulYAncg4QdJvTStGjp2ge802zTcNEdusQHHFUOB3namA+9sP4AufwU8FO4Sz6GYEfkupi3yn7xWcZAwFTAKXzQLgyEvQjS1S80DxXDM/AZmQyQpOj1+WB7WuQnBY4fhtclSm2mPZ9qlQ4CUgi7KNSxz2+Cd1dJBMXVc4B6TcV8x4Fz4Hp2BZZAo8D1ZVgRLxuZjUm2VosmnBVZqlly947oFCFyIXEA01b219X30WlmIeHMl91SRFV5rmPLqTYLL9WbL60XASiAn0oFZNSWYPLZKGNQybdbcKDhWPNwAQZukG7c3YvEiFnxSJEekWfWTKsoLhPsH8Npbb2LW7FkoKykV6lU+h0FxvJ/aLLVcanVamFEjpuuABzd2bvIU6pw7FHYECfy31np5L7VhPovnuYFqQUkhxI368OHD8r7y8vKzBNPl6uMP+tyhAAIFwsVQLZtZKaZAMYP8TDeLmTLJa9iPf/M3f5OKQdDCSQSHwVhnBtbpazTQ0BYJLcC0AOfz6SJhDII+Z/r79TnTt85zZjyNtp5ot4k7yFbHJZDfgTwPnHO0SBEo0gqj79dt5PvZJrof9LPMZ5uBk6YrhOfdYMPdJ3yHBmX629hHmhhJ96cObtRxVryGAIHz3czu0MGcup+1m8UEZm7eBf0tDFIkRVzSttDd2YGNuw4g4st3KLDpW1fcQSz7LSLYIBLyCSDwwCLpkI8s1cwaU3TzRAZSqd0mU60PSQ+VPsWKyHNSx4YgxGFh0ERX3HfSc1KJvfQ8IWDVvAnqNwKS9Lk0hDDnlqZyzvycTPec/z2+ZByzxpRg0vhaSfEM+vgtimbvah3XLUDQHcpF1XzqJDbvP4luOw+WL0uiR68Uy+DVGthr4b1eO45gdAC1RQEsmD4e2bk5Yirk4XYx8NxQQYqmi2E+iZKonTiU1AnS3DsMaz39feIKIB/6h1lV5sao+9E8l+n3a6G/L6YNF4pBMJ+lv9cUOuY5PZ7nyxJx96N+FgHCd77zHbEymMDRDKLTc8M8l0nrdlsZ2EZdpVA/WwtL8/sype/xW8xYiUzaurYg8E9mSTD2RVusGLTK+Ax+n6mF6za5aY1Nt4v+XjO40RT0Zj+54ync3zeU5cEdpMh+MtukhakeJ00SZaafZmon+0KxSSqiJB4tx5pwuieCmppK+Tehg9LMVY0aDRDkaha1I9OhFUDSG1U8suIe5q8kROADSFhH47vKmPCwXKKXzKZ8chJ+m7UwtA/ZEfyMOXGYDPU3KVChWpI6Jw1MUyMPeY9DsKeeocRJal/4gO/p7R9AX3cHptdNExIoQiJFNnX1juseIHDQqJn29PahceduRBMWPH6aoTQVsVHR0KDTNAEGMxgEwdtWqsxnypQkSJM0zml+T9GkWNpW2BXVQ2XBidxSwivJIBUv65/7HIrWdGEU0SI8XkSjEaFyZaZEMCuY0g4kZcl5Ds11Kb5PZ6JrLU3ygAVRqzakF4HTJmP6pdC10QeiqSW4CJ1vpLmU/PJO++S7BG0rNK6/UzQjRphHujB61ChMnTpFNlt3EZlM0dXuGAS9eQsPwrZtWDiftRg0P7vu8w9jhNOFsfQqJ/ZQC1OxJqsAPaoylicOLzefs2p18HdtFeGzuPnRwkEDaAKwshw+aJIqq0XPsoWkX2Vxr6sVgnQ+gKAzUUzrgBZgep6YY25q52aUv55zUr9E5ooXCUuZrcPRTkR64sgqLsWnfvv3EMwuhy/JfkwISx68YSGzJl0265Ao5jkndohd6GWxJ1I4exHzJ+BP+uUc/30WTbkEJXPMkpJixrKn1EZ5jdJd1ZipVLSz5xHdkUnJUPPLvWL+tplSq3ge1KGqqib5XR4vEp4EbK8NfyIIy6eqrrJAm2qXB8mUdqtM19SC5f9k17N9Am5tD4uyhSSgWq7hfJQ5SW3aqwrGGX2RSXyovlDCy2J1N5nPXqkH4z6keozwAbNvqN077dGu2GQCub4kpo8dg3FjyqWmsYUsVScmwYqEaatgpowMxu6w3DGDVElt7kn4AH8n4hiJdH1F3SpnHQ5TJup5eD2AdmbZNB09ilmzZw/z6wIlQMsAACAASURBVC//Zb8WACERj8EfCCISSyLJRc9sBiuBgFrbcpxtKlOTlFW5pAKYHCRCSciC9zGFx/E9pcyTznZjInY9aQlQKBzV5qnMVxSOQfprHR+llP+UQi/M31WtosmSVdb6+/skCp9scB/72N0psziflZQ66tx0dawrC9skHWHsBMKwTGpCFZ9JFbaJxUXQpvjmh+gDVrVjH7BIiTZhmoKez1NC3ChbKpXRFFkK38nvdmtp2gWUiQfBLAGtx4XXk0lRqjmeVQcjVd3lA66WzBtS6mwaNzheSv2LEi9K/zE3XbV7KyOGEjw6BVZpVMyecYpISJ2IqxOCxODN73//+6k+43gxeI7jdakAgjaXa4DAeBRO10g0io7BAXiSHgRHVOLx3/xD+EMjYPkiSgBbWfAEEkgSkMEPP+trSAlzp8Q5QZgISGqpXljeOHxJggCnJkZK6FPzVL2vVrASlCI4U4cCL1RClZaaPliFVY8266/EGUvgVEs9e7JJXT9VsZX7gNeSiqsKXPKZzn8yL7RPW7UlPXNE/MMna5/f7k/XBNDNEh2DYCH9dlXM7dypL8XeHVCSpiomuDgXIKQBkmNed0Cuo9vLnA0kI8iN9mDRzAmoraoQ9wEBtOyRJCVyDu5rPEzrhwYIkyZMhIXTSLa9iET8CAKFn4S/YGaK/4LrmpYMumDoxrvQwT1Bu/S4j9Ctx/dyz9CAVrtVeK22OrmtIBd6z5X6nQCBLlFmTV0rx3UNEDSaTSZiUq2NWQwMmFWFV6jlK41BTx4dGKU1cB2B7PbdmX46U/BxUmrBpwOFeI6TnkLPJOHR5lCdJ679qpoUiP9mYN2zzz4rYIJBcvSXMxKfz+LmK1YNWhCcYC39/kyBUTqnWX8LgQ3/rhey7gMtHPRzBciw7K3zPpPERj/LNO3q72Cb3MFTmSwIGiDw+WwTDxMgEFzx33wvAcLChYxB+DAWgwstPZox1bJIMsdcbIcqgMon0iICG8GUtqltMWqTTdeN129RQVcOKKBFgXPE2Vyvpu2Q2RisgaAPDRA4RpoT4MNaENwAgT5lRrh3d3VjUIBRCLFENWbM/CQ8gSLYNoMJ44A3isoJFsZOz4M/wDFQ1UoTtASIzk3LC1PAsmB7mDbHeROCJRVWKQTTVVeVoCSgUP3OcaJg00JWBdIqbn9TdioxSo3bKwCFwjbhdeaAU0hNLnEC4mgSpkWDc0CC5DwJqeIqIl2mkIKTChKk+f0UnRD96X7JfefflYFKVYNVRcPkRdLGpJdzKT2HxdiiCgOedShgpES8ej7fSstjpjLzBF5qTSmIQ8sNg+ToLqBVgTAtgWAygbKsOG5fPFPigNivVL4CwazUu7Vw1pYkziECBAKJCRPGI5E4Dv/pP0a4dxe6PH+MUZM/nRLydNEw2Pfo0aNCxGVapvR+ovcfzi3GFP3gBz+QlFK6dJg9xPiiv/7rv5YAY4IM/sm98+c//7nUAaEr68tf/rJkG+n5faEd4Ur9zv2efTVr1qxrpm3XLUAwhWc8FhNSilQJVgrVsyJ0VcpdqpysMyOoddNaQHM/lxurkjFwRU1+VVLUzcLGd9DSYEYSM1pea9LyaBuIO6Vi1SSlz0tXo2O5WtWAWCwuxXB++cunUVQ0Al//+tck4Mp8dppNTacVKeuEO8DJbc5PA4S05p/Jh0sLBb9X0oacsrvms9l+s0iOLpcrwiFl1VBtykTgYjK88Tm8z10CWoMmyWJYuJDIQ5gUu3r7pD/y/Gpzu1gzo1wvrhohe3d2WVbaDMo5R7Q7On4EsCmQ1MbrdSo8QqpncoNVW7/YCLhpI4a+PhvB3CxkebnR+iXFlsFSUeqbgxFhgfRfYQejBr8MSmP6JgMwdb8xfVEHKZrxBmcHZhmV8BxfrQa5br+9fi4FiYwPqzVaQHdPD8J2QIr03LD4bnz2k1+XCjyDCRbrshFPBrGhYQ0qxpYgu6hEldhl7DqFuCeBaGQAWf4QPLTKWQM4sWcvKifPk4o3tA6KBk8gkGRBaQveKN0VPnhyyKKYgI/jQMAgVgOdrU8goUdQWfloLaSpXkz9UrI9ilN7GmGPmIjRoysEHKhy6xaSlhdBFgmyCCroYqL1g0DS0foF5KiMBrojmInDewl2It2n0dLUgnGz5yGJBMPTYCOswI58c9qfr8z/CmowAJD+eh7KwpcuUeyhxkyLC1kNLVaktWF5/RLgp8G/ahuBgOoLmcCJmPAMWJEwlxkSXj8C+cXwBoPiOBsdiOCexXUKxPC9tDAa5FGmwiLP93hE4NNCOmH8RKWgtX4bzcd3wlv5z6iqnixMm9xHya/BYGGmiZJkisfmzZvFcsr9Y9q0abIfcs9jZhEBxQsvvIAbb7xR5vEXv/hFAQgvv/yyPIP7Ba0RPMc9k39nACnBgTvG5UqBgPO9hxYE9hWzX8RNLaXMr/AG4WrgdQsQ9HeKZppIIsg68c5JmcQiwBxN1NFeRZtNpZ6o6oJSztU5ko7pivXd9ZEQYOGUC3aC5ST1K5D2rsUiEbkmdZ/DARDg+9INPed9fLbeyO+84w6s/MQnZEH6g3y2+hoic04iCdxzjkQsptqkNW2Wqk4kYL4vFo2KBcWn22nbkG/hv80+EBNi+lsItgSgGBM3dZ/zfpssd9zeDIDgTpHSFgPTWsBN4Hw8CKzFwGI7Sa8HTa1tCCctDEYimFNdlbIysAmmhYFmc2YkkNdAa7TahSPazdEWVIwqRMupDlRVj0Jb+1Gcbo/BtjxoPXEMo8ZNxowpY9G2eyvqm89gzNiZKC0uw6jSBJoPtKNiXBG21e/B1CmzJUXy2PGDqB47H+Ujo3j66dfxyc98CqXZA9iy5xTqxlRiw4ZtSObk4sjhg3ho5eOoKkmX/b0Sm1QqPgUQze1nP/sZmpubRWhQg+Ea0LUKdD+Z1id9v3b9mFqeZsbU12ugKtHlTgwC12LHmQ50BYsxdmodHn1gJWpLymElYuhPKAARSwTw1sbVKB9TjdyCPFiJCOyohVBWFgb727G5YRsmTF6AyrJ8eAZP4Rf//iM89Jv/SywPtj8Af8iPRDhCJR7IDmDflg2IJnyYMv9GZLFI0GC/4iiwbakDEMrJgRWLIx6NyrTOygoJo6rkoOfmyB5gJT0IJdrxq3/6v1A442HccMMiZIUCiMWisOw4fNml8CY6kIzH4PEXIis7hASBp8QNWIiHB2FzDQYCiDKuJ5gFv5/Fe/pxcm8D1r+6Bp/91h9hwI4h4CuClewGEkzoA0J5BULtTjDjZUpfwkJ0YFAqAXpDAdjRuEjrQDCgqm8mLWT7/YiSMyArBG80gmg8IS6SoLhH0/FO3Be8/hB8oSwpZ07wdOrIIXTueFvtRwUlmLzwZgSLShDzhVAbiuDehVNTDhvZj1yKAL/5HBdDLIZJk8YgiQDird9FS3Mziif/3yjMyxcyMoJTEmqxWBjN7KSr5kFiLZJsrVmzRsADXa6cV7QC0KXAKp38ne7YL33pSwIGSHZGgEASM4KIt956S1g8aY3kv68lE7655gkQuIcQIJjy62qChF8LgCDCkf53AyCIx88RoNQWorEosoJZptwTi4EU/dCCl4GFQm2aNnEz+MZ8NmMKuEHSt6+PcFhZEBjZy4MomhuQmHJ1mxgbIXEC6j5es2fPbkGU9Bcz937C+AmYO2+uREbr+6jhU6f1GwCB38uYhJSct2wkkirmQVsnKbD5LTwnm7e0KS6bTMrl6cRK+J028Ty/V8COARDYT7wm1SYBYMxRT/dTpkhxk6aVbTkfQGCfbqvfhnnz56Otpwsxy0bpyJFobTuDjt5OzK2txsa3V+Hg8U5Mnn8vCvK88A2cxIlTLXjltTdw330P49DevZixcCGOnjiD2upS3LBgJta//Tq8BeXobmvBsltuxVsvPYlDxzqRnT8ds2bk4a3VO/HA3Tdj+4FjWLigBnY4iF2HmlA3Lhcbt57E/fdMxU9++EvMWnYPmltPY/rYIqx6ey8WzBmFwopxWDxxNN7e/C62727HfXfMw/o33sXMW+5Hsm8POpJVWHGzMideXT1BTUJqcDTH0jRrWqmGm2/PDVgX6OLz0vc5VjIAkXAYG3fsx6FwtlhTSnLyUJGfh0Qsit6wLUKbLsD1m99B5fgahAqKMdByAGuefwXzbpyHhk2b4fEHULfkHpzYvgbeEaNw8t1nMGPOQjRH89HecRgzptRh99F+1Ob3oT+rGL7BoxiMFiLScwaTblmJI6t+iDlL7kT97sMI5dgI5I1DsuekzIPevWswsW4OWq3RCMYOY/TMezB5xkT4kwH4E2145Z/+HGfy6pDbcwIzb3sYZzqPo/vUAUSzJiI6cBR5I6pQMma8KktOV4gPiJ3ej5dXNaBiZD5ON72PEyc7MLJ2JpbfMB5vvbMd5UU+tO5pQE3dfCA3hIFBG97uZgzkj4F17CCWfOKLqBlXixgtAt4ounavw6p3d6Fi7Dj4oz1o6clFYaAVWT19ONQXREVOG5A3EQNt72PxZ/4EPeuewaHECHj6D6KroxdhawTm3TAfeQV5iHSfQPPRXtzx2a8h1880Yx+S0QiaNr6MzrYWVNTNQeXUhZT4SHp9qA2Gce+iOhW1zzBb2SPTCsRQMQiKdXOSAIvBnp3o6uzCyNGLBahR06eVldYBXkcBSR4JHhT2PE9XAet+0NpAAMsiYAQDdDvyN4IBcpow3fhf//VfxVLA3wkUuH9SQeB+Q/Izsp1ei8dHMQhXeFS0BkRhqP32Shgq/72ZB+zO5+V17pQh03ymn+02y/MabWrV2hVNWwQDbs70C6UxERzQdEb0zJQpEvmwGp1ZRyBTulemgEDdJj0EGiDoxc3v0d9i+p4z3afjFNLAKXGWxjBUm8RVkQJl6n3m5iLajxO0yU2BC5mUyIy7EICwrQFz5s9HTyyMQydPYGRJKQ4dOICSgnzMqa3B2lUv4a0tB5BbtQRz6kYj3nEYoexc9PUOIphVhvl1BXhx7fs4fCqC3/+9h1BVmI1juzfitQ2HMa5uGhZPLMNTv3gBcV8WGnd7UVbRjqqR0zFzxiT0BfNxx4LR6D8TxT/+6KcYnR9Dyxkvbl86Ci2nenHgVATJYDE8vYcwYvQUVFZkY9rC5Ygd2oqfv/As2jpD+Pzn70brviYc7/dh5Z01WL0rgs8+cptEvwtA0OjtKqEFFmGij5bzixsuqao5B6lxcU6Y81VTAes5wPHhnCJA0GtD+4upmeq6J4MD/Vi/qwmHwwH4PB4UZWWjNK8AsXAYfTG6F2TlYUv9elSPH4e8ghEIR0/jmX/6KxSPGgdffgUG297HqHn34PDbT+Phr/0ZVv3TN9HefBLBuofQ3nUARb4Qiscuwc0zc/HjX23Gsmk29pxKIt52BNMe+CYO//IfMHpqHTbtPIoJ48fgRIcPQX8fHvzC72LjD/8YCX82pj/wh/B3b8LOo0E8/PmVCNoB+K1TeO0f/hSBBY/Dt+d1VExbjL5wOw7t2oqTg2UoCVmwQwFMWngPFixZgiw7JvEITfUvovH9djx4z63457/+NloHc/G1P/sXxE+8ica9HVi8aB5e+t7/iXh2iVg5Wk+3onDgJEqWfwaofxNlt34Kk2fNFbeFZQ1i08//Fm32GNz7qcew7Ym/hT3pYYzEDvzyX36Akpsex/zRp9Bl1aJr7zsYu/LPYG16Csnxy5HXsQU/e+oFzL33t/DYY3fiYMMm7D90CE179+GxP/kXjMyhYyYgwKb/1AE07d+DiYtugjevFF5xo3gwITuGjy2c6oTpqCwnKgemtUnvrXpuSJBiLCZ7WCbNWLtJ+adOdX7mmWfEqkALKvkkKOC5fzCei38SJOg9Wsde6b2EYEOnZfJaHYumY6YubwzTBxdypgXhYt2lH/yt57/zurUg6GBBPYm0r9sd2DeUoNfX6YBE/Rz+OZSg18BDm1i1oOVmynv0BquFsQ7Q08BD36cnhy5IQ4paanUECBq06EWh26/baQYbmgtDC3/9bDOYyB1saPqf3QGIpjZpCgKdM677QNweDtFNpr7MBKT4bfo8zYILFiwQOl+aG/mMnq5uLFu6FAm/D10D/TjSdAx+nxfTq6ukZvwP/uMH6LdC8ORUwYq0oK+3A0tvvBHv129BUcU0ZCWa0G9XoisSwG9/424UeAOw+0/gn7/3FG745OdQ1b8ba3b2IT8nhh/+53r8yf/6FHZs2I6JM6ejsX49KifWoji/Er78IiyfOwZPP/kiEpFTqJk2FYf2tKA1UoQ7l1Rh3YYdyMqysPD2+7GguhB9vWfw7CsbMHvuBBx+fz+au+O4ce4oHO/Nw8N33SgxLtcKQKA7hpsv+5+Fq5haeuedd55Fjyx+9KSypumaFRw3bUHQc0yDPUZnMPSN+evhgT5s3nsCh8JBMWmHbC/K8/IRj0QRjtuICcBmSusmjJ82BQV5Bej1JlH/q+9j9du78dg3/xS71/4Y45esxNF3n0NR7TQ0rXsR4yaOw8lIMQorclHk9WDv4S6UjbDRG6hEXc5RbG/zIre3HeHC8WirfxsfW/kg3tnYgP+/vfcMsuu40gS/Z8s7FArl4QoAAZLwjg4kSIkUjdQcNVutphQyw90ZhXZ7NPNjenZjIjZieyI2djtmY2O6Vz80092ake9usYdeVNOBBEEHSwIECAIE4VHe2+d3v7z3VGUd5Kt6KBZQBeC9EAXgvXvz5j2Zec6Xx3y5Zs3tiAXK0H7mIGqWrcbFd36P9Vu2ojXUiMzwSSy97TGsu3MjwkwsTXXh2b/8c5RtegL49GVUVtdhz749qK5chNZUGTavWYnWjnMor12Hx77+BMKBMaQzUcQ6juPpZ17E0sZ6nPhoD84MRPHP/5f/C5V9+/Drf/gdmhcvR/tHe1DWuATVzbdys472T97Eoru/g9jB36Nl5x9i5brNQCaJGDLo3P8cXnjjIyzbuAll/a34rK8EVYHzGGobxMCiW7CuphMDqYVoO7oHG574N0jsfx4nY9UIDp1Ga1cfajY9jm//8X14+i//D4yWLkHn+WP43r/9j6guKfQSGwNJpBMJJIcHEa6oQDrA8APDhgEsi47ioc2r/Dwbbx4wvKl1lg0m6Tbndbnu3DlvaCxl/hhuE8tDerWM4Vy3yxAfeTSEgXM+VFvcsADBRqo25z+/F4NsI8lsJ5Vp95kXYpiI98thQvI8MXL2ffQgeCEGL3wg8Xf7BDlxydoLS1jReMQu3XB2uaCdGCbGWAy7eENk0fJPG1jwOqJsAS02aNCVBrJIbW+BsMfJfZJfIO82bhjoOvcT2ewkRTEw7KcuaZQ2eZoi44Z0KfLEQLbDxKSHH/4KgoaXgi7slKntDkUCyKS9JKexWAKNTUvRfuk8kuEoWpY0ofXMMRSU16H1fBealy9FKFCAhoYyf8M+hqELXUjUN6Fk+BKGIw0oC/bh2LFB3HLrIoz19GOEiWGj/TjW2o4li9egsKwCteUZdLd1IJMMobppEUa6+9E6UojF9WkMdfXj9NkzeO/YWXz/m19HeUkEPV39CAUT+PTTU6iuW4a333kdW+97GLc11xjRzgeAQG8N5xllLfInIyBppWWOmb6SH8M/TfHSpUt46qmnjDtXGAJlrkx4srw3pINkZHgY73x8GqdGme+TwUhvP859ehLMbaHngPwkJg00kMGtG9YjXFpmOCjifZfQ1jmIpmVL0N9xCYUL6hDsa8OZ7gFUBEOoWVKHC2faEQvG0NJQj+7OEQzH+lBeVYlDL/4Cseq1eGj7Fnze04PycAK1TbcYI9TZ24rSsgYkLh7FR59+goGeBL753W/jQu8ICgL9KK9egs5LZ0zFYiIQQGEqjspltyMwfAnFRZXo6G1HfDiFUFkZkukBJGJRLKwswUBXJ9/GVFosra/FYHwM3T39aKytwdBQAhVLW1CaGcK5M2fMGQOlFWUoLYrg4qVeFJdWoDgcQ7ByCTJ9F5BJJTHU14VY0GM6bGhciN7+GIbH+tBQvwI9ba2suUH9wmXoSQygItSP0UANMsMXEK5ZgtPP/RLnUY/b7lyPqiJSzi/Ewrpy9J/7BBf646iMVqBmeQui5G0wXAletQdLO5NMyjaerYw58I4A4eFtq01ViKnsSF3uPTQhVivsQA8C54LHg5D/ZJNAPsQwB3ODBmeuAcJkHgRPCC5AosMVomBtUOMKe+gwgCver9352qvhAigCLDRosUGEeFZs0CTGw77PVVkhoR8bfEh4gockERgwSemb3/ymAVUHDx3Elm1bEPZJrsQj75VyMSONvmzv7HX+aQoTTGK6zzdgihV8dnOTWe8Rw7AQIc1qFU8Pmu+8PHHPcBtSV3NUq82MzlI7j0TH+5DIxzduTC1LpdHaO2gMZ2HYUNH4LO1kyUqhe2AEpVVl8Byl8wMgMMTAGC7/41HP9957r8kiZ0a5uGxlrDh2nHc8f4AeHnq4CDrJxpcLQDg9SkbTjDF+aVJsh4II0YMk/HGBNEKFRUiGg4gkmczLI9aZ+zKCVLIAmVAahWkgFiCddxSx8AhC6SgCgZipZAhlwt74D3dhqGcQwcpFKCssQSyaRNgcDhQB0mM8dhDpZAaJ7m6MpkeQiTagrCJiKlc4aqnEMEZ6OkzFQRyFKC8rQ6isCOlQFJFE1LD9BVkhkU4iGfQqF5IjAxjq70MgE0ECKZSULEBZeZEpm02hAAWJGEbDaQRSEYRMwUzKUOuyosHjYvAOGqJXjCRHyeEBjPT1mHMHTO1HZS0Ki8sRxiAy6WKkwnEE0wUI8u+hPoTpzQkUoyg1hrFwEUK95zESWYhoCUmnhhFBEeIYRpSeAVO5EUUinUAwlDbPTFDOptySYILHEHuEUXmAcHUNGD0ILMW0kxSv7hOnbz3vQfBlNJseBBoz2zhScQqToLEpUsVgiIsmAs7a+GtDz3t1roQrKciVgyAZ5jIlCBCo9O0cBDszXfqp8xL0MbQCdmzCIxdA0PKVEJB9nyQp8jtWH9DVzaxlGllef+jgQWzdvMk7z8GXm0c3QyDA0jW/ntuIdIK9zwMQfiamX6ZoaFoN6Y2UtvnsdOmEOdSLuyfzm6HlTiGTYdKnD0msOnqTqsV6dxajm5+DSASAiLmGrnVTGW94FQXQGOIfwy3vl0hOolOd6I90bYLqZxxKTL+yZ3AFPTCUNZNgxdjTK8Bx0J4zyRfh6Y083pr3cG7YAGHCa+T12/MgDOGDwydxbjRqOAwmZEx+Ar4puSTIVuidZEfyo0ymACGQf6LQkCdFuctlfCLlBS8iGSbQsSwwgmBmDMlQFME05Z1C2nDsM5wRRzgVNXF8AjmiwlCGlQqFCKRJGsaqhjFkMkUIhQg2eHcR0oaBkcPK5En2i0nBHD8CBBpOej5YABg0uSTAiGmDFOCRTAQpjHn9MmPtvVPU7MwTpo+sdAiZw4mIZsJIkMOBHAoEDGmWGaaQSrPcLYRohnCDidQxUhiaSZ3OFCEeSqIoxS5GkQgmEE4HkAwmUWAAVAHSwVGvvWQGqTBnPsuWh4F0EaJMTg4Q7IZM5Q6lRr4HU5oa4MzNIMzEUZb2BpJoKEzjwTvW+4RTfp6WXenle5Zs/cc8Fs4XE2Lw1w4TUQ0lOt9BCMeEHnICMvtLwFs53sqQqz296U7XsdbQxCLyEyvl3SyWvPEyZ77tRLjP6453ZD09lcKdIYRb4xsR0wlvE2JmuXm83TNh6vTfwidSGy+L9jcgfQP9OK+qGGawjGf1lhsaIEgM3jaqdk23K2FO4uoSN7drUanwbFcrR8KVpGjMhJWMJy54u15Y7+gl9k6Dzb9LVr9twF3Pmy5JUecJ2Ls7PkMnCdoLW+Rnewd0eZv0U3IQjGn2yZvsEI6LB8GUg5I22l9MbFuXOYp8+f1HH32ILZs2IeDzUEzK6fMVj+cxkIXugQBhNTQ/+YQwNE6Tz0mzFrGtX6ZbbuO1895zadwMqZJPrWCoZQ084VKTqg77Ad6FnvLxCLyEn1HwCI0UFdQkdXgVEhkJEBjvpbG354GeYxwvAQj/8A//gAcffNDcw+8kSVHmhZ3Dwzck8CMZzqLmFp8zgjvVqGeEw0zCo6HyDtwxPhcjhKA5MtzwDiGCUDplPA4ZH0hQidO4eQzf/kE9/nG/VO48/MdwKAQjrAv2iKsI0Mxpgh6Eo5kni6F5ZpA+CLZFAO8lHXsH93gMoYFg2JAgJVmlQGNqbAN5LghmPGIhPtN0OJRBKpPy8kz4m+mHISMw84XmyBC3Sft82/GzALzYPv+TfB4BqV6fPC4FciWY3329QYlNvsebxBL6M/dMeo5P3+RTqBtuB/bMnI3EvnmlkZlADG2XWrFh7TpjCkk4lUxP8CAYM5nySlptnWGIklIptPjVA93Dg+jq7kVLXSOiUY+ayfy/xz/urSNvBPzfPAKs/tEkCgtCKCC1vbknbvhF7HU1CTaoZWba5UuNDeNc1yAaFtVjNJ5CGfm5zLh5Xj5TU5ROIkXeCJaoBoFIMsiqU4TTCbNpiBtSK/5b9gVjhH4enfrEPsK019s1hIKiEIpLig0oNudPBBJIIIyerj6ULqgCu9A33Imzn18yoVWxIfYGcjpVdDV+v2EBgrjH7YRAMZba8Mk1trEUgGAbvvGsbH/BcEDs8IW0a7v8dbzfmAG/YsB+nu6TS8GKYp5KecsitReoHSqw8wZcAEHLQIy4TD4JFdgVIAJ2RJnZsrPv00RJtldDZEI5aPplvq8BCB9+iG1btxqAYJSg3zg373SBCuPeuLH1D21Spy2M72LGyzn91iYAg434p1t2NjIR407mPdaty46HCpm7RP+J41R4/vLzdxRmR2QUsbdH8d6HXgz+6aBknmWQQIDAPA9d5ugCCEJqRQ8CAQJZPsWDIHNM5oooOf5JjxDr3DesX++zSqYQTMSNy14O8jISlzMwbHZK8QwZOYosvZ25AQtOAOaPn30EsIShJgp6rfMY/EMOfAZNU0KHZQAAIABJREFU726Ogeft8Lw5Yd/d5LdtJiLPLJFQknir5Hd/nE2XZcyNyZ6YXE5CHBdjaBYmxOmmqbzH+KqZ7obLn80nf/zxEaxedYtXeUPvQ5olzlIq7eU62QCBwIUeBH6/YtUqtMVGMDwwhGgojK7BQayqrUdxOISR+DACgSiKogGMjrLcO2rCM8a7A9K2l+D1PR9j2dJ6NDVVmXUSTo0iE4waLgtzmqpPbZZK8PydYYQYBooUYmxsEMFIqfEKptODeO3Z5/FZXxjb7v4Shof6sfPuW3D66B4Eyu9AX8dBLF2+GfGeD/G7tz9Fyy3r8NmR/agoqcI9j96Bz/cdwPn2fkRrW1Bbtwj3rKnHu3uPYe26pXjzhd+h4vbNiIzEcfSjgyiuWIBtm1fiv7/6Mf7kGzuwKBzA86+9iXvuuBe7X38V4aoKjI72oallO3ZuXo3eoS6cPXXeVA0JwJvriosbFiDI9L/aOQja5e9KUpSEQNsbIMmNNkLU3gi96xZAopkUNWJ3hRjYlm14XTkIuYQmJHFS0yhfaZ9c4+LiQRD5Ejjs37ffEKkEQp7DdnBk1OxYyTvHnUEwEzM8dCE/ycrs2AJpJNLBccZCs7PzSXu8Tbvn9uW3BvkHvd2VGHMXgheg6f2mtylUU1RqHudEgAozZPas4rw0bH7eUbF+vNn0g7tZtuYpXnohjM/BR0Fkuhs3i5NcJ9Mp+tx/t0MM0yXn6hADa9ElSVFk5pq/BAjM1F63nlS3QKa/Dxd3PY/iumZUb73f2wwaOXggjePMmDr39GZDblL/QuO7NAIJjxzYdw2r1/UCRCJLLwnS9QkhgbF0BCTl9I6Moq9CjPEEIPGDIn7YSKiMOU50RXugRcZM40H/7CQP/whu8WeQy+znPnLX5krK5eiRj3Gbv8PlBCdrrH0Wg0v/GYCQTGH50hYcuHAKSxsXoyQaxf7PTqIynUKiL4Zf/t3PDbnUzh1fwvPPvoDtd+7AiYsXEes6jaLyUtyx42F0dKWw963nsGr1cvQORbGkrhjJsWEc//ws/sd/8S+w5pYlBji8u3svnnvx71FSXIEHv/QHePq//zcsuf0edF/sQVN9BvtffQMj1Ztw30OPoKGmDA/tWI5Ln76N3ftSqFgwhvt3Poy9r/8S+z7pRkHtetxzax32vvMWWtZvRPvFNnz1Gw8jNJLAL377GpbWJHHgeCe+993HsPuZv0d3cSPqFjTjtsWLsOutXWhoLEakbjPu31qP919+Dp+3j+He+x7CWy+8hO0P3oeFC9P4p3cv4ftPPIqR0X6cO+1RLc+XTx4g+CMx0xyEmQIEHe9nN+YbQMiWpGjzGcwUtGiAIM/SIQYBLfx93/792LRli1H4rZ1dSKRThkmxqaEBCyMZ7N21Gyd7hvFHX30IBYUlZmQJEF557TDWrluG+poKE0f14uFyznoSnT0ptLX3Ye3qRcYFyBitd2jOBHWtvWBlh2zaN25VoK21DQ2NtZMIpPjraHcvzrT1YNVtK4wz1Hcr4OOPj+OTI4exoHYRNt+1E5WRIRz4YD+iNbfg7OG30DEQw9r1WzHU34+u7nZU19bjLrL3kbTTdO2LHlJ1uQqabYDgyqERgHD7hrWMhGP0k2MYePpv0J2KouVf/3sU8thn3xX8+RnKdCEKA2PY9dYhtKxZg8X1leZMhrBxg9O/m8aljh6ULahDKQPqPvwTE0x6ZOYZGFhgKJY9z44HAcJob+tFTW0pUkN9eGbXAXz1kS+jxPBfBzHU34F4oBBVFRVy5IInd0NvzKCEMKEmTbKqoStODOOdXbsxlC7HWGwI9997B059+jEutbajrXsAS5ctxz13342iQh+oSJddFsF1sNKkg6YEZUzViN2wfzRxLtYny7OPfuwDBN9y5FLFQIDAiqOWlSvQPTKEC50dSDBRt7MbG1cuxomPezA8OohLZ04gnqjGV//ZVvz+lfdwqmsIG+rDWLS0Bn1DzOOoxJplxfjtC68iGW7A975xD/7z//N/Y+XajVi9di22bVpjDuDb/ebHWLioEO+9ux8XzvWjpi4MlNZioDeAH/zLnXjjV3+HwtUP4vSlXiyvL8ajO1ow3NOKn/3kV6jfeie+vH05fvLjvzE7hsNnqrF4UQq1hWW44yuP4uiHB/GH338EkcF+/OrZ/bh9RRHe2/sJ1q1fgQPvvY+egRFULL8LyY5PUF4QxNpNq1HcsAkrSsfwwu+exskzXbj70UfRVBzC228fxMNfuQOvfNCJp771IGJjfTh35uK8Ynq8aQEClbwuV9QEQK6EQFeylh1Hz8WDwPWZSxVDLh4EyYvQeQJ2n1wJgbl4EK4mQNB9skMMdumjyInX7ztwABu3bkV7Vxcy4RAqqxags78P7e1duKOhCn/+Z/87arfsQEMpEEtFsXx5A458ehQdnaUoKxvFqpal2Lp5NV564UWUVtTjq489hHA4hYsdQZw/343SSBve2vMWtt/zCNrOnUB/fx923Hsv3tq1C8lUGs3NTTh16jPU1jZgcLDfJO81LW7Bxg2bcOyTY+jqbDd9ufueHdi79x0kU4NYXtOM//Lzf8T3f/BdnDz2Me66cyduu20Ffv/yHixrrsXh44dRVLscD61fhL/8T3+J5i1fx90tBdh94BSe+ONv4O9+8zy237UBNYtqUVHOZD3ZoTKeOruHVl1LgLB2w1rjCQi1deDM3/6fGKtZihXf/Z8xGovh2IljaFq8Aq++9j6+8uAd2PfKP+KdQ6fxR3/yXZw48gHqV65GfU05PnjnHey49z589Olp1DWtxpolFTh58jPDYkrq3fsfeAB97afx7ofHceeW7eg4dxapcDm+9s++jBCPXc4E8NnJNmQCQ3jz5Rdxqh/493/2I1RGmfOQwq43XkGk5hYsqi7HcH87ooE0Pnh/D1bfugW1NWV448130dC0DKXFwMlzXXjsaw+jvrIAu/7pdQyEGvDyS8/j61/diU/+f5rur371cTz70m585zvfwMIqE/S2TgI1JyJcbrZddt8VVsoVH9iui+lAQpY2jx6d8CB4Z7OkJrHGZvMgUE+tXLHCHFTSOTqAUxfOY0V1A6oWVuHggXbEkp3ovbgPnUMVuHjxKOrq16E3U4YNNXFULS1HX2cYvX0ZfPrJ21iw5DYEo9X4xkMr8Iuf/BShsio88JWvYNWKJoTTSfz+lX3Yu/81VFfXY0nj7fjk5B40L9+IsbEyPPHHt2PPb36FolVfxum2ESyvLcT92xqAZBF2//bHSK15HOvqO3HgUAxbN9fhX/27l/E//ehhXDr2PtJlxeg6ehpD0SBKympRv2YTHrurGa8/9xKGR8ewecdj6D79EZ49Oow/fuA2HHv/TVzq7kDR2h34wf13IhON492XX0N5fS3ef2sXxsYKcO+9y/DRxSC+/fWHMTYYw5lzJ/MAYbq5ORu/2zkIercuWfa5MBvqEj9d7mXvkiQGr3MQ6HrVVQw2uyNBh52kKO3YFQSya3WBFvvwJPFEaGIRO1eCbWkmRduDIS5i6ZOdh2GDFrnOPqyJ7Ugc0sXpYCdv6vJTiWu7AALb/JBJitu2Ymh0DKfb2lBcUYnPT51GY3kFVq6sxG/++kU0r9uK3c+8AEQSSBQ14X/4ziN4+dWDWLOyCG+/fwbf+PpO7H725zjeGcW/+V//LVqqgzjbPYbzZweR6tyP199/G8Ph29FY24x1S/qQLmlBov1jnInXoj7QiQOH38XRs/X4/pOrMDKSQWt3AN/+1hP41d88i3On92JBzQIsXvsAQvEuFKQ+Q2HJYnxyogcLG2uxdslC7Dt2Bt996nHs/t1xLF5XhSWpAby6tw3Lmsbwwqu70dcewff+9HEc/mgQT35rJ/7z//v3qGsuwZJVt2PDrUuNkfISqiZSs2ZjvbCNXHIQ7HnI+cEkRdLikhdfKh90DoIdjiI7npeDsAEpJhD29eHEz36Moo13oPneB5AaHsFvfvkLFNW24PUPWvG1L23BaN859PS1IpOoxIW2YygqW4hwohib72zGW+91YcWKMDoHmvGVB6rx8gtvoq9tAJHiIdQ2b8VQ7yA2rs/gvQ8CWLmyGeGxz7GS/BNNlQimA3jhtSP45NNP8aUNdXjjo9P4wQ/+BOXm5NcYPnzrdbxzthErl2fQ/flRnD09hhR6UbxgMeKJFHZuW4xX3jyO+iXNWFOXQHdoER594DZ88Mpu9ASbcOpCG1YvbMc7+0bx1FP344V/fBff+8GTqCyZoGGfrbG7Vu0cPnzYHJokYbZsOUoy5pwjPEOBa12YFCVHSRK+uVkR/cPvWO7HZFl+hHOF7VA/kFmRlTb8FBcWYmSoHwMDgygsKsTbu3djaHgEF3uDuPeebVjR0oTS4jC6u9oQDpWaCpuiokKMjoyavIlkMmb0sugbCQWLPuZvvb29Ji9Hni/f8ZA43sdNAvU7f2f7BEyjo3EUF5UgnYmjp/cS/umtA9h57w401y9CcmzI5Bb19A4gEynGBwcPY8XKlbhlWYMpjT19+oxJUpQNbD4H4SrP7GwJgXysjqPr+n6Xy18bY22wXZn/mgdB3OvaY6HLHPXzbSMuYnOVOXKic/KKAXfJQB/3zPZy4U9wuY1dlRzaQ5Nr27zPlaTohRj2YcvmLYa5rXt4BEc//dQs0NuWLkO0eAzPP/0Gbt1yF47sehtL167F+wc+wB1bN+PgsUF8+e4GvPi7t7H2tlUY6jyFc/0pPPboH6ClthwXekZw4WI/jr3/DJpalmLXoR6sXbsRW5pHca49jiOH3sKmx3+I8++9hAW1Ffjti5/jRz/8Evr7RnDyRCv+8A//AL/5+TNIJjqw44H7kA7XITZwCenRk4glS7Fv72eorq9CY1UZ2kcD+Na3HsauFw4gEe1HvOccmlq24cTBV5EuLUPP511Yccd69PcW4Rt/ci9++dNnserWJtQsasCKZfVevoVhu8tW4jXzBZXtLIZslTKc61LmyBwEzYOQLQeBxF+bNrBcNYlkLIZzb7yCshW3oIZEOukAjuzfh/ePnMdIuga3tlSh/cJn6OpuQ031UlQvKkJz8y14943foaqxDhcHM1hcWYCOnjQWLMrgwPtH0VC7EJu3bERFTTNee/ZlLG2J4sipNOoXFqM0NYRtjz2GJbU8Xhp45fVj+Oz4YaxcXIJDpzvwr374TZRFS8ypisf2HcTeEwkEU2fRerEThaVVWLOiGctWrsebLz+PxUsXYc+RTtQvLMHSBSGUNq7GPdtX4cW/+y0Gg/UYTCTw6J21+N/+wy/x5//hh3jpmXfwvX/5TVSUTJxdMPPRmps7ScEtWfayGdAcKGLYpYesYqAOJHX37H7kBE6vOMGPCiIR8M6T8ZIWvQwjUz5rPrOXwGOHGie9lyQUM9E2EEcaBf5jJ7xGjOCw2sWQUpHzAikM9vXhYmvrJPlmfcbsCjJrazdFiEET8riMuN4FS8VALsl3uhrBRtVSxUDw4WJgnCpJ0WWM5TsZUSkpdJ0rMR1AmK7MUQCJ/X76VEZeo9kkRb4CwPgcuc/uk+ZmcCUpUrEQ7PBa0v5u3ewlKTKCHOOhVAigkEmLgTF0dQ+juKwS3afPoTc+ioqiIgwOjyBS3oTl9SXo6epAaWk5Lpw/ieF0Auc+O4/40CjSRaXYce+XgVgn+of6ESlZ7J1JEB7CwHAArZeOA5UNKEuPYmRsAChoRnNjMZNGMDKcwYKFC8whOCOj3egdHERj42oUhJIIZ7qRDhSju3UY0RKgr7cbVY0tWLSwDD0Xe3Ch/SzKF5SjsXE5RtouoLShAenebgyZRPASYwzPn7qA3oF2FJXXYvmyBpP9PfvQwJtNOsRg7xJdoTUBCA8//PAk7gQbvOrKFZY5EiCsN0mKCXAEwzwRke8VIo+BR07U1Z9EPB1FeUkSF8+fMwagdlEjLlw6hUhkERZVZNDWPopEYQE+eH0XvvL1RzHQ04mCaDnKSphb0IeKhZU4+sav8cqHrXj4j55Cy8I0MqEylAcSeO+DdzCajqKueRXW3roc3Z0XEC6qRSDWioMHDiMWBIZ6RrD5vodQHhhCPFiO2uoKdF24YLLPYyfexs9feR8N25/AH22tw9BgCktWrUFxQQanT5xEPFiFkqpyNFWk8fnFYTTUl6KvK4FFDZUmTn69fjRA0JsD7Z3lvGltbTVjbnNk2O/Pa8RrOlVZn607zN9NWepErpC0Ycim/APQTE4yqxZNWbP3HH68Z05dBmQ/T+6RfovhnpywLPhjolqJKdCkYDN98ytjmMxKhgmvKoacLgwbps0Grap64bxinLwpAIJ2Zes6fXG52ztXKTPUbICcINp1rkGEXTEgAMHm1RYPgu1KF7ebDnvYCpbPzgYQXFUFVwoQNEiSHYKWgatPWga2B0HAlt2OeDVcREkiF9vTwr/vP3DAHPfMEqtJGeJeOYK3AE0FQtrbYZu6apYNsuww4qF4r0QBacTQdqEN8XgagYIoFtXVIRohZQ1d+D6BkldWYMh6PD3kl3NNrH+vfaN6vKQ5ZtNzn+DtXkjuE0YgGQFC3E14asHUWpsX8DLfJUfeq4fgjiNqItImj98ukvAz+yd2QlMruCs1QuJBEB4EUX52aau0qXkQWOZIVytdr2Y0MhmcPHnSHLLDMeaaI5UscwM4V+574D6EMiETKrFrQbw3ipldV8BUg/AbgiKfWCJAciPyJnjENAPxMSR6R1BeV4nIuFvFH8NACu2dF5EeDKJsWRMKDHkRzxgYw7m2ViQDUVQtrEVlRZGpl2B/hnouobN3GIlAGtFQKWqWNqDE1KUEDfkV5wGn1VhPu6FOLl28ChUea7RPpOUpfjJCmsoYMh8adsikYXf0qT2vdGjmzfWk4+YJifY8cJ3mKHqMa7+jo8McumbrO9cLCVD44i+ra0J8dtXLGp7d9ZOt3+PkSYbXg/Od2uHyuhWukaamJixduvSLi2CWWrihAYIgSh3v1y5TF0Dgd7LDtXdS/LsYOk5om1lQjLzeGdP1ykVkEyXp2J3sum0jmm23ro2xxPL0orVzCajQ7QWqmRR5rwYItgykbbtPgqJd51Hweu1B0BwL0ieRL//Nv8vJm+J5EPIoAoQtW7ciTB4K4eYzvAFBr0zdM01IBn12Ol85B9NxpIMe2x2z303J4Xhde9ijGSAxnzE5HhcBG2QrpGShk5JEPqTK9Yy5Z6TYIsGAASW82yQGeH3zvuO9QCgRRCbilerRleixs5kjDg0BIxtNkNUyDcSDPE+Pz/EMiwEIwjBnCKDIp+CBnNn2JIgHQXgQpvIguHgQbIDA9+eJfDzoifOfZzvwdx44xnHdtG0jwmnf1c738hMuPYVEAhyCJAKziP+aPvNlgKArikAyiHQ4hhEUoNSXIZ+ZIqmUX6HiSSgJMtzEwzFExNXLHaXPmeftMDkeJKOiAWfVQ4EpjiRg8IAmx4eMjQFzHoOBLOm46Vs8RHqcNJIZchWysoH5C2bG+M/wjIFhWjQduhKOjVnS8rPYDM9GkRCD6E19nortbRKAQBpvezPg6pLkd4l+5jWymZvJK3ibCE8xCEHaTNq58nuoP/x1a5XfUh+Y9+F/ES9YaBgrzaVBpNMZNDfWG4AwlSflyvsz8ztuWIAgO1T5k0ZGDJo2xrJTpXHW7IpS0ifGMlsOgrTJgXUBBBfVsv08OyGQf7c9GDay1tTHsrvTrIU2g530XXIsZGFrqmXdNqeVnWMhsrRlYBtxM9F9F57tQXDJTtoSb4S0w+8FSIjnQQDCh4cOYdtWhhiMGR83xF5UfoJ2ZvKue+aL42a7kwCBhDP0IFCZ2wBBAB+/4/hzXvDDk0bJRSGJXDJWHNe3337bJC/SLd3c3Gw45nk/k8zu27nTACUa9FDaT9q7jl3vN8tc4ViuXr160vHOtu5xJSjzhFCyZ0a5SYoWoLamGulUCh1dPeaQNXH3k066uakZnV3tBlSyXdFvortFzt4Gy6M2tgGFt0WYvxOJsjhx4gSWL18+zlhqb+S4Xuh1k03fXJ9iecMCBHvBumLkovDkOtcZAzoBkf+eqopBEG+uAEEjah3P0/1m+/q7XMocBQBpoiQbIAgYsBM1bXAlcnKVZ2bzIOicCw3AKHM5153tu3IQ5Hnsy34mKW7ZjGCQTHbWCPuzWIho5q96mN9mZKoyR/Zch9b4b4YN5GheKnWGGAREvPjii9i4caM58IneAx7+xNwOZqJv37bd7LJMQMUABYZ38p/5LgEdYnAlcuu5QqNIYFFQEAWCYSxuakA6lUQmGEEk5K37wcFhVFZWobSkDGfPnTaAk8CTc4u5CyMjI+MglO2TT6O0pBihYBBdXZ0YGeVZHN5nPgME5mPs2rXLeJPr6+uxYcOG8YoNbgwbGxuNl238XZhn4WTZvDYz5YYHCC4jp5MUZUetj192kSBxWKbjHLDLHHm9K8SgSy/tXb4MfbYkRVfMT4cm7AoJ9keDFl3F4AIRXwQg6LCHDpe4uBmmAgi8/uDBA9iyaYvh4U9kMugbGkJRcTHKeHiT73b3TsOb3vmudyTXZrnN76dkq2LIBkJ1qEsAgrzlCy+8gPvvv9+EjEiWQ+PCOd3Q0IC77rnHOy2xvxN977yJUGU1yrffh6BJwnR/CCjtXJ6ZSnOmY6+rg6bqpwbfM+3rfLtPQgzi1XSVOdohBvZfchAKC6ImzLa0uckwMBYWl2J0dAglJcWIx5IYGhoxxnJ4eAgLFlQZcCCh0Lq6OvT09BiQQIBJfVJWWoJQkEmQbRgeGb4uAEJbWxtef/11syboKVizZo3x2hlgk8mYtWEDhLke/5sCIOgqBlcOQq7MhtOVObqIQrh7omITI+4yvNkAgq2EOVlcoIX3TgcQNGjJBhBsYJGtT5pJMVsms2vHaSdO6uRRtsN+2p4OmyiJIYaNGzeZM+rPtbVhFGkMjg7j9qZmlEeLeLQdMoblzqNQFiXmQuDckfzmN78x1zzyyCMGQHHHy/Hl2QJ0ifLoVcpjwYIFBul3d3ebBf3hhx+af+/fvx8tLS1GifEaqd2e60U90+dfaZmjBggcK+765ENFzt2fuKA5vuRAaG9vx9a77jQpn8OfHMHIP/5XdIxlsOTP/hylZFJ0fDgv3njjDZOkWlVVNeUr2gDABQZyBQicE3QHs36f91Cx33PPPZPeUc8t9pNHlDNMw1i9a+6xzT179pjfaSS4Dt59911jSClTno45nxLVbGFPV+boKrumB4HgMBqNIBItwtLFTcjwwK1wFIMDPSgtIVCgN7HYhCHa2luN/FjxQtnQgLJd8U5xXnH9FhUWoLKiAu3tbejt67suAALH+NSpU+ZkS+b62OHjPECYqeaawX1cqFTctjEW16cABB231yVZbMPOxnURLGmDzWfIc9htia3bRtVlePmdGHE7B8Huk8TkbZBilxSKMtL159J2tnplUZiuunXb+EtehHgH5D3t5EbJweC769iknbToAkkS19Y5COOHNX38MbbcsR3dPb2IJRImvn2xrR19Qz1Y3bgEe3a9iaHhYaN4yffPvlDRHj9+3LjzaJgoAypgKp+f//znuPPOO/HRRx+Z67g74sJl2IO7RcYJ+R3/zftpoGggXn75ZfzoRz/C3/7t35qSJBpBUfYzmKrz5hYCBBp4gh1duitzWc8x+V57hGTO2bkwvJdESQRe6zdu8BKz2lpx4af/EaM1zVjxnR+a8jS6YGkE7r77bhw8eNCMCQl6qFjvu+8+nDt3zowNr+GOjLKXzHqO25tvvmnmHp/HXSjDHKyeoIHh+O/cudNcw99ooLu6ukxcnYab779jxw4DUjkfmUfB32jQWc//p3/6p2a8+b5sk99t2rTJGEBex8oNAsdt27YZ/cPnsR3+yb5TtgRJnEtsh78xP4O/c87yXQhI+NtcupazTUqOA+e8fLR+cOlI7vxPnjzhJR8HwiiI8LyRDJI8pCzjhW2JFyJhL3EvkfDkxv/Ynp2PRblzbnrh3gBCTBSPe3pePvM5xGB7r0V/St/5G6uBOB/4kby1uZwHN4UHwTbiFLY2quJe17tn186YA2eDBjsmL0pRJrEMvCgKUbr8Xe+e2a646+S+qVgLbRef9EkmkotzgG1pPgMuTFfJpp00ozkddNsCgFwGRZS0gAE7IVEMishcrtEeBJET+8GzGLZs3YKhsTg+PncGCxub8MmxT7GipMAkN3EXRkP/s5/9zNRds20qaiplLjy2xXaoyBnre+655/Dtb38bP/nJT7B48WKj3PkbZcKEOro1qfjJ7MbY+auvvmqMEw0WjRe9DAQQPH2Nz6GxuZ4/01Etu0pp5X0pV+1B0IBTDDbDDes3bPAon/p6cfwX/wmV6+9B3Y4H0dHZYciX6KkhkOB4Cksj//3aa6+NV9tQ5vT2cNyfeOIJ0xUCBgIJ3v/SSy8Z4ECDzb5w90ZjvnXrVlNVQW/Ej3/8YwMS77jjDvz0pz819/7FX/wFSPzE9+Fc4pyg14IGnM8jiOCafvbZZ40niWCD7ZMP4r333jPzjc9kvPnSpUt49NFHjduYO0Y+n4Bk7969ph3uhPleDzzwAC5evGj6xLk2Xz/0INhljkLuZusjHhcdibC000sk7ujsNuuouID1OZ4h937jAVtXwhM9X6Vy5f0yJdmBjOE/8ORBB2gAtQ31WL6UOQiedOb6c9MABNttLaUztsJzJd9p70CusVgBCDK4+twDFyDhta6En1w5B6Zy57vi/bn0KdcQw0xyNUQGMi7yLCocXTYlVM9Uuls3bwaCIXQODeHzc+dN6cLty5rNDoIeASpXvi+VLQ05jfzu3bvNjpCyJGh4/PHHzQ7tr/7qr4zCZgiI11H5cXfEeUEgQDcnjQIVO3d2whRIQ8rdK59FrwT7zGvuuusus7O9Xj/TAYSpcm8oA84pGj0BmK4cGjmsacO6DYbkITM2ivPvvYKixatQ03KriTP/9V//tdntcyfNceF8oEHuWqjyAAAgAElEQVTlb2yb84F0vxw3ypwu/a997WtG7DS+BAasJ+f7MOzDseb8IG0ux5ftPvPMM8aQE/wR4LFdeglosH/4wx8aUML3+fWvf20AAucBn//UU0+ZvvHdfvWrX5n7JIxCwELQwHnC5/Ia/kZwKpUhnG8s+fv9739v5hSf/fTTT5tyUIIJnuQ3XQhlLudXLkRJaQKEMAmFvaLgjq5ufHT4MMJ+fokNCm5OeKBzpDyJEFgtXtKMFcs8HTL38GCCo+SqzDkurieffPKqtJ1ro9oQ8b6rCRBcCYG5HIx0swMEef+pAcI+bPMBAl3R8WQKYXIJRILGYDOHgDs6Gmnu3qioWVLH3AEm/9AYcD5wp88/6WXgeJEClmNE1y8VPn/nPWyTYIHggh4HXstwA3/jdVTkfAaNEt3VfAaBwvX6mW2A4ApZjQOEtRsMeZQ5OTOdQCYQ8o/AhuHup/HnOEpiIHf2NMyUL8eJf2fCGkEaPQMME/FDAMhwEEEEr+G40AvBdiSJkoCDZ0jQWHPMhOVUck44B+nl4HgTaHB+ECDweQyREDza84jX8FqCAvaNc4b9ojeD84T9EaBPAMU2CGD5PdskKGGfpKpH5x3Np/k0E4DQ2t6Bvfv2Y6CozjuiyjAHEj4IKdl8esNr1Bef4pHcKuaAUGQQSY1gw7IarF65Kg8QrsUwCBDQO1wXQHDlEugMXYmHTeVqdcXWXVUM2uUvO2jha6B8dJ9cIEInXPIacfuJjPm+dpIilRaVEf8UZST9tssc7XiZtJWtssKum88m3+lKKNk279UeBPaR73Tow0Mek6IhIxLWRJ9KNZ02Bp0K16DvOSwNuhZz+2o8gztbAiohSpJn6HkvuTC210pyfuwkRRdAoHGUEAPbFw6LSSSRV/hy9P4x3COeO3oJpjOyBA7ZXPkEHASYfE/Gg+0dPcELPQl8FoGHHBx0hV2+bi9nDoJ9FoM7DJtBKMxiY0KAAHp7+/HBvn1oizYgEQgjFQgbKjBzTkLm5ixKzvgMrIaFNZNEBCkUJwdw9+oGLG70PKLMr5hrPXbDhhjE4IkHgUZHkv9cBjPbWQy2EnQZY71AXAaaAMEmSnIZfzHG4k4XMGC7dYWg5kr6xPe3EyAlVsj35UdTHeuQhg02BMRo8g7JE+A7mIQjn+jJntySqCXgSsbHDjHwGn4v34kh4j38/tCHH2L71u0mOelyqmVP5/K6uV5U16v2J0AgwKLrPVtIThKr9HqREIPNt6/BpCQpMhmwakEFAoEiz3tgbATdrFM7nGXu2vKV/sjY6/GXfB65R+YG/+S8kqQ615zhPBewK/dLe/zNDjnK+tV903NB3sF+nv133d/5NJf4jgRWDINIn7X+8+RFMi1DKG5wXyKewtnz53D4bCcSkRLEAoVIB0LGi3Azf4RmPJKOI5ocQnVxAHdtvB0Fkai3eQuFJiV6z4WsbliAYC9onRCYa4jBlRPAgZuOB0FzDuQS73cBi1x4EETBXWkOQi48CK5wiTb0U4EdLSddyaG9KC4eBPGisC/MQTCnOQZ5xsJcLJcb+5lfJMTA8SEQtnMQXB4EVo94fAhjSKbDhq46ECQN9YTBEO+Q2V0ZHuzJB/LYoyAGdybAMNd7BITI9fafN9qMsEGYgAAbtBA4MtdCPtlLnD22U37iiSQCwQAuXmrHqbMXvBMMgyHjCeQnbcINPgurHMIUCKicLLepMjNDbQrG++vTYjMcKZsXmUvjYy/X+KHngKH8lkTKiQ1HkIc7iVc3TEpu790yaZJ2e4nr5rl+NVqAVTS+kCjHFCvi/I2O32UwV4M8DplkAnULq9DcWIeykomy4Pmg4vIAwR/E2UpSzCUHQbwadtUEu5FPUkyZHd1USYpbtvgA4UbTzPPgfWYbILgALgECPRXx2Jhh1eNOM5BJmbMKAmlfMfMwLiMPKmuea+B5wfKeoWszScTAiufOfip1FqtAsgEEFw+CPQ9kc6Y3Ua7wLb0VzOuQcdeeX9GZuXDT8Fpd5m2X4IpOtj1nrs0XQ2TMbbFlo0PRrmR2l6fFDvvKRktzzFybEc/+lDxAmAOAIJPBjsnPV4Cgd/m5eBBcoRhtLPSClPAFF429SOU+/m48CHmAcNV0xrUECMlEHJlgGOWlpYhGgugfHEEyFvN2ZQQIPLOhqpqkmejp6coDhKs26pMb5tplQijzM/ShXbzyiwIE4zFwMLvyubbB5nVMaGXIayqAkCv1O+eT7WXVBpu/T0eoxz4RtLBPdqhUAwSXjpyuZD4b2LlGw571MTcsQBCDI4LXrG9mf+K7uFzGmd9pXgKdtMeJK25UkbDrGslBEATrQquycKYib3IlhwnyHndx+Z4ITfpkI3Y+33Wao2vR8H2mQt7sk5zFILs8PksnRU7HzSDvJkmKsouRPrFNMhhy92LLaK4X0I30fAIEKj+W5NnJsnpHJGOl15SUOdprgdfacX9m7PM5qWTCxKFrqquxaOECnLt4CQVh70C1/sEhlJaVoaqqGrGxEQwM9BnQKP3gn3KENOeChKaE4IrrbT7H8ufznKFxY9koK36YhMkKDiZiSpiFuoDVH/LRCdG55GmxLVuvGBe8T4hkhzWYdEwWRdtzNB4q8Dvg8lJNt1sXva0BiTufwrMTEnphn+hBsPup30XrOrElth512Ql5F5Gtzgebi3lzwwIEsxPxE/Q0MnTlIOQy0VyuI418XW4wKk4ppZJ+6bwIATRT5RKI58EFduzJpw+ecqFjnYPAtjUad/VJn6ngAlcu+ep4tAsk6SRFeV/KhG2SVS/vQbh6akIf9yxPcrmN9XhyHXD89OFbWskRIDDEQA8CmfSqKipQV7sQvX2DKDXsgcDIaBwFRWSzjCMSCRrOfSG5YgUBywPZjg0SOJ/4LJYPMoyR/8xMAgIQWK1B40zCMPKJ8EOjSJmzksieGzppWu/WXd5D7ZnUwIJtaIDg0q25eDR5n4BKG9jkEmKQZFa5j8CJYY+pPAh8lg57uMLH2ltq3yeAbGajOHt33dAAQYyxCyCIQhFR5pKD4IqTye7Z3jXpyairGFw5CNmMsc5T0KWPuSYpuhInOYntMkd5FxsduxIJtdLXMnD1yQUQcklSJNhhTgLbPHDgQB4gzN7av6ylKw0xuDwIdhWDS1HSsJskRVbRBMNYWL0AC6ur0D8whCiTv0xSWwIFhYVIpQy/nOHwHxwYwOjYGAqiUVRUViIeT5h50T/Qj9FRegzSaKxvMImSNG5MAMt/rlwC1C8kpWJC3cpVq0xFS9CEfNLIBIMoiIRNojCRHKtOUskkwmGequF9ZqqP9KaC+pDx/ulCDC6A4NJH7JtOmrbnb64hBnOKZGnpOEBwhUtcG0mtt6cLs8yXnJubAiBMV8Ugk2O60xxzTT6xDR+NreuwJt0n1048F9Di6pO+zzUZqUiFWdAGUrYMKJdcchBcC5LP1NTO9nHPLlTPZ2lULe/C78l9zwzqfIjhyhV/LnfIYU0MMeh4rSsRTHNmCNOkvbu0lTLXggCEWCJpDE9RcZF5lqn08dO2DcCORE0CYyweN3OC1RFifBL8vaDQC2OFwognvJLdglAI8VjMAIxxwH5zltnnMtyXXWOMEgIYHRtFYbTAeAwMOPBTRlmWVxQNY/PmrT5VchqZVAqh0ARAcHmbtAfBpY9yAQjZvKw6sc+1aXMlBGp6ePbTTpB2bQhz8SDk4tWQMKwG2dpjMaOBnMWbbmiAICGGbADBjo3qum5BwxxAmbzyp8T77ZwAO5FG79YJEGh4XQRLrliWoEfXDkzHqdgnO84r/dYkNrZXQzwYvE+uk1wCTTAj8TWdE2DHBe0+STyR/ZD3FTlNlRfB63WIQQBKPsQwiyt+iqZsD4LNx6HzXFw5CJwnwgQo8VqJT9vrjG5jPkeMuJnrfi5QwJ/L3vz3T/A2nPV+5VnAS3AzJDvcwWbGq828txovhxz/K9J5gJD75DHy9DwDQZ9ohJ6D8fEDPY4BbNy6BWmEEfJd9+HIZIBgGzmJ99t6VDZDtvdScgtsvZItSdEGndozKW3bxG0uYyz32cLRwELsh53fRa+G7UGYCrTY815CDKJHJQ/DzvVxJWqyf7ZMch/M2bnyhgUInHBicGQXLHEdnSBiGyLb0IuhlpIWMcZ27MrOspdJrnfdmklRjKEYTDGqfJ4sJPnONv4uxZzNq6Hja4KgbUPPftgHSEm/NWjhv2WRyPNEJvzeBlcCauwQjiwGW3HIwpLFzvZoYPiRnancx2u4eEinu307iZLyWn92lv/kVmi4mYClkxRFUWqFZydviUeIO317jmnPA9cCn5NIJWf+CjRkOd4thFo5Xp6/bAoJZFCIUDCBjZvWAoEwQpkA0skUQpGwWZ8eRvMKVLURt+eB5BLIdwIi7PnFa7ixknMuZHNmbzwEDOiQp53waBtkWydmS+7WnjPRffJu9IAxz0YnhROQiAwEGNt5CgIQbPsixl90peR3id2x89bmamLesABBBOoKH2h3lhhsXXao40bZdvTaVaU9CNlyEOxyPhcSzbWERy9I7eISj4H9PLbNyWqjeHlfGyBIJYfIc6YxP1cCpM4NoXz5PNvNR9AgKNsc1pSvYrhquiJbDkKuceVsIQZ7B0QPAqtRLsYmdp3yQuRCyOXjcfQ5WPhuUtreXGR2pdcwnKA/ZD6sLg7igbu2+McweSFIOwfBFWLQCXrZkgbtDQSfrT0I2XSkHbrkfbmEGHLJiXJVZLjKHMXLautIggMbJOXSJ1dI40rHbbavv+EBgkwYO9nP5UGQzP+pslNdEyaXpMFsVQzTESXpSSVARsetuHCmY1KcrSTFmYIWXf3gAi0ugGB7aJikyAzqvAdhttWA196VJCm6FJ4uc3RVBtFFy2qUo+nGy86ryxUgmOADGRb1xwEQcoMcV0ee13OrrhTPYgxiUSSFx+7aCBIOkv8ylUwhEo6OvyrHnIbe1ke55ETpUCn1A+cKKwbGAaQ6U4bfuzZtuSRNyy7fbtuVg6A3Xy6AkEuelgZJLlviepe5nkM3PEBwGSINEFwgQiafLuHRKNcFEHSCnitJUU8qPk9PWt12NoDg6pNOILNzEOR9bQ+CSwbZ4mvTeVpy8dBIWMcGO9MBBCYpsgbbdu/pBSTxb/t713fT/X6z3UN5HD9+3GStS4hBZOQKY7kSzzRAcMWHqbx5yuFbJ1oRDxYhHogawiQeDpz2mRT12LiUpLiObe+E67vJwQgX979slSd+k3Z478SZXxNbasbl+ZkuNjzRjnWtTyWsD9J19917c89rP0E3faVGw/0+ViuOPpn8Du8QYgSZD5JOo3SsAxtvXYE1S+vNKQsZMPTHRFHSKnufmSYp6vi7AAS7iiGbPtJJiq6KAZ2kqOdmNq+GBgi6isEOg4oMck1S1Bs7WwYSZrjSsZ7t629YgCADJyEGnZ1qD7wYK33aoLjXZbByUZSuhBhJUhSXU7bJyO8luUaAjXgZpA+usIcdJ7NBhNyjjbHIRJc56jiZXpDSjp07kQ1I6YWlF40rk5nGg8/IdpojQwx28txsL4abtT0BQwwR3HrrrSYJy/ZuyW7HlXsj90qSInMYxCC5AILMg1Nnz+H46UsYRRSZUIHJNgw5Qgxs6zLjafHnu4yw8PN7xtU3/ONGcLJhdxnm8RDbhHWeRLxkexnt5/uoYRIHv8wp+zlJZv7beTSTzgPwjPIkcJLlfafsuwNUmJbNYUqTZSA5AJMqToK8Ls2DEpBKJxFCAC21Zbh11XIUmmpUnsUYRDLBipPpqxh0GFZvWGz3urwXjbF4EGSe6ZCni5fFpSPZYzshW+ahHU7VIVbt8me/hCjJngN2iEF0K9/XlZQu88FlA7QHQRM5zYV+umEBAoUpO1kXouTvegCzAQQZmFxCDJKAY3sesh3WNFUOgjbqsqh1tUU2V5WuGNCVHGyH769DE7o2WC9IlxvMFWPU8s0l5qerGDTYYYiB14gsbABkL3T9dxuNT3ePrdBzacdetPP5OS5DpfvLMSIxDgGCy3NGeYhMvogHwZTSptMYHo0hlvAMVihME+T93cyxUNCU2ImR13HeVDqFTPpy+lzbyPH99AFSLqWvDYNrDY8n54Z4CI9wAKQmycnlmWQ/+R72XGKiG5Pv7IQ19lXX6dtjQDm41qLeHMg684o/WOmRmWCENbkbHmthiBzWPpThNSSXshkCU+Q9yKQRJpAxhwoFzRgVRMN+v4MGIHghhgkPgitfxaUfdMjT5XWUigF7veeSEzVd2Jcy09VgsiHLdoqprB8CBEmclO/0++WqI7UMtI6019tcgAMPBorv6ir04Ne//jWefPLJq9By7k3mMvB6ty6t57Jbz4UDwMU5oJWSKMaZMCmy/9PlIOj4Wi4nTGoPghjs6Vx62YCUBmA2aJFn6SRFeyHTgyAxTgF3opTtGSGyEHdn7rPlxr2Syka8NqJ47DJUAaTr1q0z5DQ6C93lpXLxINinObpyEIT4ijDPO8EvhUA6hbAhQfBOAPR2hTzq1jM8LLtLG6PmESkZY3kZQMggkUh6Ca3cgZuD9dIYHh5BWVnpuDH0AAI3BxNGLRYbQ7SgwBhPfkiyZFzS1vM8pc8jouU+Pi+BSGQi/m7uo8vdJ3wyazqVRCgYsgBCGkPDwx6FsDwv7VUATO5TzBBEiSeBjpBUSicEMt5vJ8Nd3ifKgHKZfAhR0h9f/0RC+KyFJRO0xqmMBy7CjC/44Y14bNS8b8CSXTI5GSS5PKguMKk9CBog8NlClGQDBB2adRnjXMK++hqXnXAlDdqHNQl4na0+5XMQ5kD/zkeAIIZWx/I1EnUp2OnQsattLr6ZAgQ9+XONr7Efrh2RdumJ4hKAIGEWG6RJWIEeBBoPtltTU2OUXmtr63jcU+6pq6szf2WsO/+ZkAAV3okTJwxZEelzCQS08r1WAMG3/HTzecf9Gg+CZ4sSibgxzsKPwC+5Uw1ZhjdNgGB23ROgIZlIIByZ+Dc9DCT9KS4umQAWPg3uRNsAAUJB1AtzeErfAwiTAEnKI3ay7yOLoN0nuu8JXOys/jTvMzH6iba5C/VkP3FksBkHK+wQj8cMWZQ/QCYRIZGcDEj4fB6jbAMLTwZWhUiW++x+s+2BQXHne30iZGGqhecc8MI0Y3FSX5NAyet5IJMGwyWaSVHnYM0UILhCDLNljPMAITfNeEN7EKhAXABBvp8qRsRrLnNr+geKTHefdoNpHgRX+MD1PD2JzY7ElBVZOym//ng6Y6wXluuwJlcoZrrkHlefXK5WrSRcMmAfswEEPmf//gOG2pXqqrysEgtrqtDV2YsF5VGkglH09vaisqoK0eIKpEe7MDSaRFFhEcZGR5HMhJFIjKCkpNjEVUnZGxuLIZ5Ko7S4AAO93egfHmNK1rirO7cldH1cJR4EckkcOXLE7GBvu+02tLS0jOd1UP4ECHQ1T5ec63IbE7zZZzHoxDNKylX9oN3rrtyFXOa9TvIV1znfVT76GumTnXORbS1qz5lLBnq9uPo0ARC8XmVL6p2NcF+2nbEOxRA0ctzlk2uisdZ1rhCDKwFR38fn2S519lvLKdu4TJc07bpPj53LW+ryIOjSSwOmjHdrcqKm5v9wzRU977WcpkuCvRaa54YFCLIwxIBJLb0oSntw+J0ku9g7XE5aTa7B9lz1rQI6vB3I5HiiAASd5GX3yXbL835RHDYZjR07k37KfXbb43FIfwaJa9k+3GYqHgSzm/Fd0i6QlI0RUZSKrVykn+I+EyWgAYI9XjYLmgAb/n7o0IfG1UzplJaUG4AwNDiKspIwwgXF40Ql8XQQBYEYCkvKMTw0bMhcuvoHsWxpk6mtriyvwNDAoKeYQ2FUlBWj7eIFdPT03TQAgTtY5hssWbJknGeCspYkRRkn/qnnJuea5MLIXOWfdhWDzFVZKzp3wZ5j9nqReSFzjP+WPtjzTvIE7O9ECcs9vIYJwpI4yX6P5xIEvSOlbdBi5wTY857f2/fx3/b8FeNmA2N73tvkZ7yG8X77lMJsbduEYS5DlG2d2TJ3yUkbPl4jAMHWfyJHGSsbuInsxNDb/xYdKXPIFe+fyhMgbdkAQfQr/9R6VCdNZ/Oy2uOg3fmif2xOBZGTDVxcIQaXDKSPMldsEGHrVvGO8nr22343ze9wLQCBfsYNCxDkRV0I2rXDddX3uyaaBgiuXbdOPnHF+0WZaUAylSfAtduROPt0OQgS85NFnwtRkgALXYqo0XEuYQ8XD4JLSWgPguw4+f3+/QeRTCaMq3dBdQ3Ky4sxODCCwmgAwUiBcU0bzn4EkR4bQiBSgNjYGEaGhhAuKkEkHDCHAEWCIYwOj2BoaNCU2C2oKkd8ZAitnT03PED47LPPjNFctmzZZUfpag+CbeRcOQg6M93Fg6B33fqkUTFgoihtYKGZ6Fz8HzZAcHmpxBiLPnDFeafqk31fLjJwJZ5pFkGp77dBPv9ueyZdJ7K61ovcpwGYrVdc92mQr7Pz7XERGbjWsPYE8FnUMfZYzTTEcKW0xrYM9NzUnh3XXBFdozdftk5mn5ikKN/pjQ5lJYZe63I9f3UoxvYg2OBsLoCBPPOmBQgUgL0gcwEIgvSvdOBdAEFPRvF0TEpwYowzNJHgJJNPG2yX4pqOB+F6TFI8sP8g4okYAgwDkOo1TCY3xkOTxhMAk8TF7OoQgskEUsEQggyYppNIBYJ+klcYGb92m5OfYCLI7PlUHIkMD6a5MUMMNmCWHeG4ErB2xF8kB8E+i0Hmqnb/SpKiPDtXQ6SNnCsR1sXWOVsAwaX0XeGS6TLTXR4Elzv/SgDCVPrIZcBc7vVcjlZ2lRS6Qj/a8H0RgKDzZFyAJJcNi6tPOoRjJ02Lx0YDt3yS4izCleulisG1M78SYzwdMtTGOJvy1IvNFYvVu/VsoOV6BQjagyDvS0VHD0IiEQMMwX4ICCQRQBiZAMMOQQQySXMiII1+KJ1BMkCAwNIuDyB45C9AiH9PMeYJpAIh0r0gYEBE+IYHCOLytJe57TK/ngHC1fQgzCZAENe5HdLQG5Y8QMiYcOB0PAguj1C+imH2jPgN60GQpBOJH9o7cxuxS2xLYo72otXxLlcCTi7JJy6qZTu2bru0uBsQ95IGCOJ+vZIkRTufwd5p2KDFjh/aHgvXLs21IF0ysBWejIWN9OU7HRrh93ZJlih9js9Hhw6ZxMK0x7tnjDmNejQz6q8ImylvMkOeTz2T5Tq5z+OOc/L8z96amwcteW9oTuRDCmkCLrLlJRNYu2GDCT3o2H4uSVc6SVFi8zK/bdBt5wnoXbcdsxbwonNhXGFCV4zc5UHQ7nVXuE9ixtJ3ORPE9jrq5DTdJ74jv7PjyvxOOAfEk5PtXeywi7Q1XfmpKylSv599jYyDhBimAi25ehDsMKxrndvf2fPAjvWzDfFqiH4SL+uVhDxFv9tzTOtRnU9he7dkjEQuuSQpuoCqax64EjztnDPtPZ4LxXFDAwRZeNoY2wtSJqhrUO0BlAVqGz4BHzp5SoCFTC59WJNLUdrKRO6zjbHdT+2xsBek7Z2w3cr2u7Dfdg6CnZegs7m1DFxeDZf7V7vmslUx2OxmbMd2BcpCluSiN9/bj9ZYFMlg1BjxUCaFTMAcTjsXa+e6f6ZHTBRAOhAyXATR9Cge2rTK7NpsoybrxeZNsEGhzF0BCBrw2oKSnbFtHG3j78pBEMOgQT6fqw2mvsbOzpf1aofk2IbsOO24vcuVbc9pe+273kXa0uuFzxPDJ/fZyXDynV4vLhm48o9c4QN7R611lhhHV4hBy1dKnOXdXPovl02UyFySkdmOSwaSg2CPiwaK2TwI9jwQQGInhbvApJ4HOvTDdnSfOC56roicpmNSlLwI0b+SgyDrJQ8QrpGKpYEmfW82dMwByjUnYLp4Fwedk8/eBWuiJNuI27srvbh1jNMGFiI614LUyoXX8L/pTnPUMqBctPF3Ka5cYrEugKBjfnwW+6lPc5R+7957CJ8PBjASLjPJheEMQwxpZCYI8ydm1IRTIPssy/UafbKdvu9K2vFcFPPi43liTEYHIskhlGUG8cjW20wSls6FsY0qO+8a81xOc8ylzFErWNc8dHm37CQv9tE2xrLOss1ffZibTmrLxZXNe7J5Q2wjJwRA2ltpgx3K0i4ZzVUGLvlqfaRd8GL49LkH2hhrL0q2Pk2Xg+DSRwIQ7MRUCTHYcnLleGid7CKvY1+1t1LnIPC+qSj5Oaf0YU3Zxpx9clW72Xpbb+xcm6+5VhQ3rAfB3j3rgXchQ40eXcbYhdj1YnMlXc30uOdsu3UdYnBNfp2DoBeW5kHItpOaCUDIBbS4gJR4EDSQkX93dPVgz6FPMIBixAOFhiQGwZAJNoyPt/yd+QY+NbDtohy/0BxA4ycl+F8Ks50xLq7jhNVqFSpgMujZH3c7E99K2/Z19v38nb+Je9303wIV5vsc+m4UqwASQy44OQQTyAQRzCQRTCdRnB7EppZarFy29DKAmy3PRWeK5wIQcklSzAUg5NInAQiS6Ca7cJdBmQ4g5LorzAUg0PBVVFSMD7k2jq4NRDawrg1RNg+Cvaam8mpMBVpyDTFofaSf5zKqLoCgvRriqdJJmbpSJhed7JKTCyBoT+hMTnO0PSY2QNBASgPcuQYHfP5NARC0kdMAQXZEtpIQZaJ3Uvx+qkoD1+R3ESW53FnapZetssI2/q6dVC5Zw7mUOWZbkC5iEt0nF2ixF7JLThogiGtQ5M1/d3T34sinnyORSgPBiHGPpzI+VS25+31DamJ+hss/Y5j69Ie/ea49Q/pgfpZ5YYyzoZj1+OzNwjXc9d5HjLMYeKH2lXuUHc7ajteY16YGGab6wq8uYD9td6V5PkGExbw3PqcdMvCAhsdYaLcTZDupmOHZb1ncgGWNixAMkVAqMcnb5DLGWsFSRlLmmM29zvecKUBwZZizPbvcTIfD+Ls2Mi5jrNeZC+TrJEgZ+4kAAAQISURBVMWZ7p5du/Vc++TyBNgAwdWnbP3UIaRcEidzLXN06Ugd+tEeGpf3R3tatD4QIGXrFZcxdo2nCyS5dLJsMmTtu05znEmIwbWJygOEawiJZDJR6HphiVG1Y6p2YpSN8iT+bRsQXQNrE1rIztiOrdtEScYmWAeo6PiaJCbJ5LcNrx2flT5KfNi+z5UTYIcYZBHx/W3jq5E3nyGTX3bh9iR2uW15nfyn5TsdQKAC4r2u0xzt940n4giJAWWQIZU0P5PzXj5aARjufsasLV58ctvTyNqHAhmqXIu+lzKRPhkjnvGAhK04zPsyJ0LODhAZWN+xX5crJbqkyd3PxFQPrnun7QXMYTr8zswV3SeWcCZTDtZCeh0mgAypecfnD7GAOTjIICLvf4z9JhOGWz8a9Sh0+UyZP/aY67g954HESAVIUlYydjpGb8CWn/uid+vZgDHnj/RBJy4KaHElDYrnhc/UCYEuJSyGT4f7dC0/31eSiMXwak+dzqcQICXvwT/ZJ9urIeBO2ma/bdDCfmm9ImvTNvQyx0S+sg5F/3mA2DuoSOdNuQ6QEkMv/ZP5K8+0+ySyy6ZbJf5vr0+bEE1AEvslz9MHSNkyt9txhX31oUui//R8svWvy6sgc1Puk2ROPl/mpwsg2H2SeW+/r+htkYusIXs8pQ17Xl5DE2oedVN4EC7bgfk7SlvwMgHsCSNKTQZFXyPGXg+g2b1auzuXUtLXuNqSBW1PCv1dLn3SBluUi3af5dK2611y7WcucjKG3qIt1XLK9r56rFz36XmgDb2AQHvsXOEoGY9sc8U2BrqtSZ4AH0jo71zzzpada0fkkksusstFBrmOr1aUuc7N6cbONS65tq3Bci7vkm0e2OOUbb26dI3WM64+XU0ZTNcnPtuVIzTdPMxVBrnMQ9e4uDYsueioXNa+63m59NOVFzbTPk0lX1f/rjU4uCkAwlwINf/MvATyEshLIC+BvASudwnc8B6E632A8v3PSyAvgbwE8hLIS2AuJJAHCHMh9fwz8xLISyAvgbwE8hKY5xLIA4R5PkD57uUlkJdAXgJ5CeQlMBcSyAOEuZB6/pl5CeQlkJdAXgJ5CcxzCeQBwjwfoHz38hLISyAvgbwE8hKYCwnkAcJcSD3/zLwE8hLISyAvgbwE5rkE8gBhng9Qvnt5CeQlkJdAXgJ5CcyFBPIAYS6knn9mXgJ5CeQlkJdAXgLzXAJ5gDDPByjfvbwE8hLISyAvgbwE5kICeYAwF1LPPzMvgbwE8hLISyAvgXkugTxAmOcDlO9eXgJ5CeQlkJdAXgJzIYE8QJgLqeefmZdAXgJ5CeQlkJfAPJdAHiDM8wHKdy8vgfkqgfl4fv18lVW+X3kJXI8S+P8AQz1AkPIKPa4AAAAASUVORK5CYII=;" vertex="1" parent="1">
                    <mxGeometry x="30" y="140" width="760" height="336" as="geometry"/>
                </mxCell>
                <mxCell id="8" style="edgeStyle=none;html=1;exitX=0.5;exitY=1;exitDx=0;exitDy=0;entryX=0.5;entryY=0;entryDx=0;entryDy=0;" edge="1" parent="1" source="4" target="5">
                    <mxGeometry relative="1" as="geometry"/>
                </mxCell>
                <mxCell id="9" style="edgeStyle=none;html=1;exitX=1;exitY=0.5;exitDx=0;exitDy=0;" edge="1" parent="1" source="4" target="7">
                    <mxGeometry relative="1" as="geometry"/>
                </mxCell>
                <mxCell id="4" value="mueble armario&lt;br&gt;organicacion" style="rounded=0;whiteSpace=wrap;html=1;fillColor=#60a917;fontColor=#ffffff;strokeColor=#2D7600;" vertex="1" parent="1">
                    <mxGeometry x="100" y="520" width="140" height="80" as="geometry"/>
                </mxCell>
                <mxCell id="5" value="index" style="rounded=0;whiteSpace=wrap;html=1;fillColor=#d80073;fontColor=#ffffff;strokeColor=#A50040;" vertex="1" parent="1">
                    <mxGeometry x="120" y="670" width="120" height="60" as="geometry"/>
                </mxCell>
                <mxCell id="7" value="organizacion" style="rounded=0;whiteSpace=wrap;html=1;fillColor=#1ba1e2;fontColor=#ffffff;strokeColor=#006EAF;" vertex="1" parent="1">
                    <mxGeometry x="330" y="670" width="120" height="60" as="geometry"/>
                </mxCell>
            </root>
        </mxGraphModel>
    </diagram>
</mxfile>